M48
METRIC,LZ,000.000
;FILE_FORMAT=3:3
;TYPE=PLATED
;Layer: PTH_Through
;EasyEDA v6.5.57, 2026-08-01 22:12:09
;ce6ec3c6b95b40dda3310bd9e8daaa44,593fdc44a476429594515caf0fb21de9,10
;Gerber Generator version 0.2
;Holesize 1 = 0.306 mm
T01C0.306
;Holesize 2 = 0.600 mm
T02C0.600
;Holesize 3 = 0.701 mm
T03C0.701
;Holesize 4 = 0.915 mm
T04C0.915
%
G05
G90
T01
X026329Y040584
X034398Y040584
X042837Y047100
X055313Y040279
X046010Y031944
X082663Y030380
X046010Y021356
X043025Y035304
X080563Y028733
X079162Y029680
X037852Y036486
X040405Y038996
X040391Y041493
X012024Y028335
X051979Y044119
X027497Y045482
X018337Y043649
X057931Y048060
X064514Y046501
X058816Y032385
X025401Y021519
X052234Y031838
X072873Y028355
X058666Y040817
X084418Y040817
X019542Y013107
X031588Y013107
X057886Y032649
X031327Y031954
X060361Y042255
X031464Y030096
X015736Y030096
X050377Y026596
X042392Y023912
X049628Y007237
X058461Y007237
T02
X019094Y002110G85X019094Y002910
X011894Y002110G85X011894Y002910
T03
X017919Y005190
X013069Y005190
T04
X089313Y047352
X089313Y044812
X089313Y042272
X089313Y039732
X089313Y037192
X089313Y034652
X089313Y032112
X089313Y029572
X089313Y027032
X089313Y024492
X089313Y021952
X089313Y019412
X089313Y016872
X089313Y014332
X008033Y034652
X008033Y032112
X008033Y029572
X008033Y027032
M30
