G04 Layer: TopSilkscreenLayer*
G04 EasyEDA v6.5.57, 2026-08-01 22:12:09*
G04 ce6ec3c6b95b40dda3310bd9e8daaa44,593fdc44a476429594515caf0fb21de9,10*
G04 Gerber Generator version 0.2*
G04 Scale: 100 percent, Rotated: No, Reflected: No *
G04 Dimensions in millimeters *
G04 leading zeros omitted , absolute positions ,4 integer and 5 decimal *
%FSLAX45Y45*%
%MOMM*%

%ADD10C,0.1524*%
%ADD11C,0.2540*%
%ADD12C,0.0173*%

%LPD*%
G36*
X1764030Y5904230D02*
G01*
X1757476Y5903112D01*
X1752396Y5900013D01*
X1749145Y5895136D01*
X1748028Y5888736D01*
X1749196Y5882182D01*
X1752396Y5877255D01*
X1757476Y5874105D01*
X1764030Y5872988D01*
X1770176Y5874105D01*
X1775104Y5877255D01*
X1778355Y5882182D01*
X1779524Y5888736D01*
X1778355Y5895136D01*
X1775104Y5900013D01*
X1770176Y5903112D01*
G37*
G36*
X2556764Y5897880D02*
G01*
X2551277Y5897727D01*
X2545943Y5897270D01*
X2540660Y5896508D01*
X2535580Y5895441D01*
X2530551Y5894120D01*
X2521000Y5890564D01*
X2512009Y5885891D01*
X2503728Y5880100D01*
X2499817Y5876848D01*
X2496108Y5873292D01*
X2489250Y5865469D01*
X2486152Y5861151D01*
X2483256Y5856630D01*
X2480564Y5851855D01*
X2478074Y5846876D01*
X2475839Y5841593D01*
X2473858Y5836158D01*
X2470607Y5824575D01*
X2468372Y5812129D01*
X2467660Y5805627D01*
X2467254Y5798870D01*
X2467102Y5791962D01*
X2467254Y5784951D01*
X2467660Y5778144D01*
X2468372Y5771591D01*
X2469337Y5765241D01*
X2470556Y5759094D01*
X2472029Y5753150D01*
X2473756Y5747461D01*
X2475738Y5741974D01*
X2477922Y5736742D01*
X2480360Y5731713D01*
X2483002Y5726988D01*
X2488946Y5718149D01*
X2492197Y5714136D01*
X2499309Y5706872D01*
X2503170Y5703620D01*
X2507183Y5700623D01*
X2511348Y5697880D01*
X2515666Y5695442D01*
X2520137Y5693257D01*
X2524760Y5691378D01*
X2529535Y5689752D01*
X2534462Y5688431D01*
X2539492Y5687415D01*
X2544622Y5686653D01*
X2549855Y5686196D01*
X2555240Y5686044D01*
X2561691Y5686247D01*
X2567889Y5686907D01*
X2573832Y5688025D01*
X2579573Y5689498D01*
X2585008Y5691378D01*
X2590241Y5693714D01*
X2595270Y5696356D01*
X2600096Y5699455D01*
X2604719Y5702858D01*
X2609138Y5706668D01*
X2613406Y5710783D01*
X2617470Y5715254D01*
X2604516Y5729732D01*
X2599486Y5724448D01*
X2594203Y5719775D01*
X2588666Y5715762D01*
X2582875Y5712409D01*
X2576728Y5709818D01*
X2570276Y5707888D01*
X2563469Y5706770D01*
X2556256Y5706364D01*
X2550363Y5706618D01*
X2544673Y5707329D01*
X2539238Y5708548D01*
X2534056Y5710224D01*
X2529128Y5712409D01*
X2524455Y5715000D01*
X2520035Y5717997D01*
X2515920Y5721451D01*
X2512110Y5725312D01*
X2508554Y5729579D01*
X2505303Y5734253D01*
X2502408Y5739333D01*
X2499766Y5744768D01*
X2497480Y5750560D01*
X2495550Y5756706D01*
X2493924Y5763209D01*
X2492654Y5770067D01*
X2491740Y5777230D01*
X2491181Y5784697D01*
X2490978Y5792470D01*
X2491181Y5800191D01*
X2491740Y5807608D01*
X2492705Y5814720D01*
X2494026Y5821476D01*
X2495702Y5827928D01*
X2497683Y5833973D01*
X2500071Y5839714D01*
X2502763Y5845048D01*
X2505760Y5850026D01*
X2509062Y5854598D01*
X2512669Y5858814D01*
X2516530Y5862574D01*
X2520696Y5865977D01*
X2525166Y5868924D01*
X2529890Y5871464D01*
X2534818Y5873546D01*
X2540050Y5875172D01*
X2545486Y5876340D01*
X2551125Y5877052D01*
X2557018Y5877306D01*
X2563571Y5876950D01*
X2569768Y5875883D01*
X2575610Y5874207D01*
X2581097Y5871921D01*
X2586278Y5869076D01*
X2591054Y5865723D01*
X2595524Y5861964D01*
X2599690Y5857748D01*
X2612390Y5872988D01*
X2605938Y5879236D01*
X2602280Y5882233D01*
X2598318Y5885078D01*
X2594051Y5887770D01*
X2589530Y5890209D01*
X2584704Y5892393D01*
X2579674Y5894273D01*
X2574290Y5895797D01*
X2568702Y5896914D01*
X2562860Y5897626D01*
G37*
G36*
X3134106Y5897880D02*
G01*
X3128365Y5897676D01*
X3122879Y5897067D01*
X3117545Y5896051D01*
X3112414Y5894679D01*
X3107486Y5892952D01*
X3102762Y5890971D01*
X3098190Y5888685D01*
X3089554Y5883300D01*
X3081528Y5877102D01*
X3077718Y5873750D01*
X3090164Y5859018D01*
X3094634Y5863234D01*
X3099358Y5867095D01*
X3104438Y5870498D01*
X3109772Y5873445D01*
X3115310Y5875883D01*
X3121152Y5877712D01*
X3127146Y5878880D01*
X3133344Y5879338D01*
X3141218Y5878626D01*
X3148228Y5876798D01*
X3154324Y5873851D01*
X3159404Y5869889D01*
X3163468Y5865012D01*
X3166465Y5859272D01*
X3168294Y5852769D01*
X3168904Y5845556D01*
X3168599Y5839968D01*
X3167634Y5834583D01*
X3165957Y5829554D01*
X3163519Y5824880D01*
X3160268Y5820562D01*
X3156204Y5816650D01*
X3151225Y5813247D01*
X3145332Y5810351D01*
X3138474Y5808065D01*
X3130550Y5806338D01*
X3121609Y5805271D01*
X3111500Y5804916D01*
X3111500Y5787136D01*
X3120034Y5786932D01*
X3127908Y5786374D01*
X3135122Y5785408D01*
X3141675Y5784088D01*
X3147568Y5782411D01*
X3152851Y5780430D01*
X3157575Y5778093D01*
X3161690Y5775502D01*
X3165246Y5772556D01*
X3168294Y5769356D01*
X3170834Y5765901D01*
X3172815Y5762193D01*
X3174339Y5758180D01*
X3175457Y5754014D01*
X3176066Y5749594D01*
X3176270Y5744972D01*
X3175914Y5739028D01*
X3174847Y5733440D01*
X3173120Y5728360D01*
X3170732Y5723686D01*
X3167786Y5719470D01*
X3164281Y5715812D01*
X3160217Y5712612D01*
X3155746Y5709970D01*
X3150768Y5707837D01*
X3145383Y5706313D01*
X3139643Y5705398D01*
X3133598Y5705094D01*
X3124860Y5705602D01*
X3116935Y5707075D01*
X3109722Y5709361D01*
X3103118Y5712358D01*
X3097123Y5715863D01*
X3091586Y5719876D01*
X3086506Y5724194D01*
X3081782Y5728716D01*
X3070098Y5713984D01*
X3077260Y5706973D01*
X3081324Y5703620D01*
X3085693Y5700420D01*
X3090418Y5697423D01*
X3095548Y5694680D01*
X3101035Y5692241D01*
X3106877Y5690108D01*
X3113227Y5688431D01*
X3119983Y5687110D01*
X3127197Y5686298D01*
X3134868Y5686044D01*
X3141472Y5686298D01*
X3147923Y5687060D01*
X3154121Y5688279D01*
X3160014Y5690006D01*
X3165652Y5692190D01*
X3170936Y5694832D01*
X3175863Y5697931D01*
X3180435Y5701487D01*
X3184550Y5705398D01*
X3188258Y5709767D01*
X3191459Y5714542D01*
X3194100Y5719673D01*
X3196285Y5725210D01*
X3197860Y5731103D01*
X3198825Y5737352D01*
X3199130Y5743956D01*
X3198723Y5750864D01*
X3197555Y5757316D01*
X3195675Y5763361D01*
X3193186Y5768898D01*
X3190036Y5774029D01*
X3186379Y5778703D01*
X3182213Y5782868D01*
X3177590Y5786577D01*
X3172561Y5789726D01*
X3167227Y5792419D01*
X3161588Y5794603D01*
X3155696Y5796280D01*
X3155696Y5797550D01*
X3160928Y5799632D01*
X3165906Y5802122D01*
X3170529Y5804916D01*
X3174796Y5808116D01*
X3178657Y5811723D01*
X3182061Y5815634D01*
X3185058Y5819952D01*
X3187598Y5824626D01*
X3189579Y5829706D01*
X3191052Y5835142D01*
X3191967Y5840933D01*
X3192272Y5847080D01*
X3191967Y5852972D01*
X3191154Y5858510D01*
X3189782Y5863742D01*
X3187903Y5868619D01*
X3185515Y5873140D01*
X3182721Y5877306D01*
X3179419Y5881116D01*
X3175762Y5884570D01*
X3171698Y5887618D01*
X3167227Y5890310D01*
X3162452Y5892596D01*
X3157321Y5894476D01*
X3151936Y5895949D01*
X3146247Y5897016D01*
X3140303Y5897676D01*
G37*
G36*
X3305810Y5897880D02*
G01*
X3297478Y5897422D01*
X3289350Y5895949D01*
X3285388Y5894882D01*
X3281476Y5893511D01*
X3277615Y5891885D01*
X3273907Y5890006D01*
X3270250Y5887821D01*
X3266694Y5885383D01*
X3263290Y5882640D01*
X3259988Y5879642D01*
X3253790Y5872683D01*
X3248202Y5864504D01*
X3243275Y5855004D01*
X3241090Y5849772D01*
X3239109Y5844235D01*
X3237280Y5838291D01*
X3235706Y5832043D01*
X3234334Y5825439D01*
X3233216Y5818479D01*
X3232302Y5811113D01*
X3231642Y5803442D01*
X3231134Y5786882D01*
X3231640Y5771896D01*
X3253232Y5771896D01*
X3258565Y5778703D01*
X3264001Y5784392D01*
X3269538Y5789066D01*
X3275076Y5792825D01*
X3280562Y5795619D01*
X3285947Y5797600D01*
X3291179Y5798718D01*
X3296158Y5799074D01*
X3302406Y5798667D01*
X3308096Y5797550D01*
X3313226Y5795721D01*
X3317798Y5793181D01*
X3321812Y5789980D01*
X3325266Y5786170D01*
X3328212Y5781751D01*
X3330549Y5776772D01*
X3332429Y5771337D01*
X3333699Y5765342D01*
X3334512Y5758942D01*
X3334765Y5752084D01*
X3334461Y5745175D01*
X3333496Y5738672D01*
X3331972Y5732576D01*
X3329940Y5726988D01*
X3327349Y5721908D01*
X3324351Y5717438D01*
X3320897Y5713476D01*
X3317087Y5710224D01*
X3312922Y5707583D01*
X3308400Y5705652D01*
X3303676Y5704484D01*
X3298698Y5704078D01*
X3293719Y5704382D01*
X3289046Y5705246D01*
X3284626Y5706618D01*
X3280511Y5708599D01*
X3276650Y5711088D01*
X3273094Y5714136D01*
X3269843Y5717692D01*
X3266795Y5721807D01*
X3264103Y5726379D01*
X3261664Y5731459D01*
X3259531Y5737047D01*
X3257702Y5743092D01*
X3256127Y5749594D01*
X3254857Y5756605D01*
X3253892Y5764022D01*
X3253232Y5771896D01*
X3231640Y5771896D01*
X3232404Y5763361D01*
X3233420Y5756198D01*
X3234639Y5749391D01*
X3236163Y5742940D01*
X3237890Y5736844D01*
X3239922Y5731052D01*
X3242106Y5725617D01*
X3244596Y5720537D01*
X3247288Y5715812D01*
X3250133Y5711393D01*
X3253232Y5707380D01*
X3256534Y5703671D01*
X3260039Y5700318D01*
X3263696Y5697321D01*
X3267506Y5694680D01*
X3271520Y5692394D01*
X3275685Y5690463D01*
X3280003Y5688888D01*
X3284474Y5687618D01*
X3289096Y5686755D01*
X3293821Y5686196D01*
X3298698Y5686044D01*
X3304438Y5686348D01*
X3310077Y5687263D01*
X3315512Y5688787D01*
X3320745Y5690819D01*
X3325723Y5693410D01*
X3330498Y5696559D01*
X3334918Y5700166D01*
X3339033Y5704281D01*
X3342741Y5708853D01*
X3346094Y5713882D01*
X3349040Y5719318D01*
X3351479Y5725160D01*
X3353460Y5731357D01*
X3354882Y5737961D01*
X3355797Y5744870D01*
X3356101Y5752084D01*
X3355848Y5759856D01*
X3355086Y5767070D01*
X3353866Y5773826D01*
X3352190Y5780074D01*
X3350056Y5785815D01*
X3347415Y5791098D01*
X3344418Y5795822D01*
X3340963Y5800090D01*
X3337102Y5803849D01*
X3332835Y5807100D01*
X3328212Y5809843D01*
X3323183Y5812078D01*
X3317849Y5813856D01*
X3312109Y5815076D01*
X3306064Y5815838D01*
X3299714Y5816092D01*
X3293465Y5815634D01*
X3287166Y5814364D01*
X3280918Y5812282D01*
X3274771Y5809437D01*
X3268776Y5805881D01*
X3262985Y5801614D01*
X3257550Y5796737D01*
X3252470Y5791200D01*
X3252825Y5800699D01*
X3253536Y5809589D01*
X3254502Y5817819D01*
X3255822Y5825490D01*
X3257448Y5832551D01*
X3259277Y5839002D01*
X3261410Y5844946D01*
X3263798Y5850331D01*
X3266440Y5855208D01*
X3269284Y5859576D01*
X3272332Y5863437D01*
X3275533Y5866841D01*
X3278987Y5869787D01*
X3282543Y5872276D01*
X3286302Y5874359D01*
X3290163Y5875985D01*
X3294176Y5877255D01*
X3298291Y5878169D01*
X3302508Y5878677D01*
X3306826Y5878830D01*
X3311398Y5878576D01*
X3315970Y5877763D01*
X3320440Y5876442D01*
X3324758Y5874664D01*
X3328924Y5872429D01*
X3332886Y5869736D01*
X3336544Y5866587D01*
X3339846Y5863082D01*
X3352546Y5877306D01*
X3348177Y5881522D01*
X3343452Y5885434D01*
X3338322Y5888939D01*
X3332784Y5891987D01*
X3326790Y5894476D01*
X3320338Y5896305D01*
X3313328Y5897473D01*
G37*
G36*
X811784Y5894070D02*
G01*
X811784Y5874512D01*
X912114Y5874512D01*
X801624Y5703316D01*
X801624Y5689600D01*
X941578Y5689600D01*
X941578Y5709158D01*
X830326Y5709158D01*
X940562Y5880354D01*
X940562Y5894070D01*
G37*
G36*
X1529842Y5894070D02*
G01*
X1529842Y5689600D01*
X1550670Y5689600D01*
X1550619Y5814568D01*
X1550111Y5829452D01*
X1547876Y5867146D01*
X1549146Y5867146D01*
X1565148Y5820664D01*
X1605534Y5710428D01*
X1621536Y5710428D01*
X1661414Y5820664D01*
X1677670Y5867146D01*
X1678686Y5867146D01*
X1676907Y5837224D01*
X1676196Y5821832D01*
X1675892Y5807710D01*
X1675892Y5689600D01*
X1697482Y5689600D01*
X1697482Y5894070D01*
X1668780Y5894070D01*
X1628901Y5782310D01*
X1620215Y5755182D01*
X1614678Y5738876D01*
X1613408Y5738876D01*
X1598422Y5782310D01*
X1558290Y5894070D01*
G37*
G36*
X2304288Y5894070D02*
G01*
X2304288Y5875528D01*
X2364435Y5875426D01*
X2376678Y5874410D01*
X2382215Y5873496D01*
X2387244Y5872276D01*
X2391867Y5870752D01*
X2396083Y5868924D01*
X2399842Y5866739D01*
X2403144Y5864199D01*
X2406040Y5861253D01*
X2408478Y5857951D01*
X2410460Y5854192D01*
X2412034Y5850026D01*
X2413101Y5845454D01*
X2413812Y5840425D01*
X2414016Y5834888D01*
X2413812Y5829350D01*
X2413203Y5824270D01*
X2412136Y5819546D01*
X2410663Y5815177D01*
X2408732Y5811266D01*
X2406396Y5807659D01*
X2403652Y5804458D01*
X2400452Y5801614D01*
X2396794Y5799124D01*
X2392680Y5796991D01*
X2388158Y5795213D01*
X2383129Y5793740D01*
X2377694Y5792622D01*
X2371801Y5791809D01*
X2365451Y5791352D01*
X2327402Y5791200D01*
X2327402Y5875528D01*
X2304288Y5875528D01*
X2304288Y5689600D01*
X2327402Y5689600D01*
X2327402Y5772404D01*
X2362200Y5772404D01*
X2368854Y5772556D01*
X2375255Y5773013D01*
X2381453Y5773775D01*
X2387346Y5774842D01*
X2392934Y5776214D01*
X2398268Y5777890D01*
X2403297Y5779871D01*
X2408021Y5782157D01*
X2412441Y5784799D01*
X2416505Y5787745D01*
X2420213Y5790996D01*
X2423617Y5794552D01*
X2426614Y5798464D01*
X2429306Y5802680D01*
X2431542Y5807252D01*
X2433472Y5812078D01*
X2434945Y5817311D01*
X2436012Y5822848D01*
X2436672Y5828690D01*
X2436876Y5834888D01*
X2436672Y5841288D01*
X2436012Y5847232D01*
X2434894Y5852769D01*
X2433421Y5857900D01*
X2431491Y5862675D01*
X2429205Y5867044D01*
X2426512Y5871057D01*
X2423464Y5874715D01*
X2420010Y5878017D01*
X2416251Y5880963D01*
X2412085Y5883605D01*
X2407615Y5885891D01*
X2402840Y5887872D01*
X2397709Y5889599D01*
X2392273Y5891022D01*
X2386584Y5892139D01*
X2380589Y5893003D01*
X2374290Y5893612D01*
X2367737Y5893968D01*
G37*
G36*
X2925064Y5894070D02*
G01*
X2840359Y5764784D01*
X2862580Y5764784D01*
X2911856Y5837936D01*
X2920187Y5852820D01*
X2928112Y5867654D01*
X2929636Y5867654D01*
X2928366Y5849416D01*
X2927858Y5831332D01*
X2927858Y5764784D01*
X2840359Y5764784D01*
X2838196Y5761482D01*
X2838196Y5746496D01*
X2927858Y5746496D01*
X2927858Y5689600D01*
X2949448Y5689600D01*
X2949448Y5746496D01*
X2977388Y5746496D01*
X2977388Y5764784D01*
X2949448Y5764784D01*
X2949448Y5894070D01*
G37*
G36*
X1030478Y5844286D02*
G01*
X1025296Y5844082D01*
X1020216Y5843371D01*
X1015136Y5842254D01*
X1010208Y5840730D01*
X1005382Y5838748D01*
X1000709Y5836361D01*
X996187Y5833618D01*
X991869Y5830417D01*
X987755Y5826861D01*
X983843Y5822950D01*
X980236Y5818632D01*
X976934Y5814009D01*
X973886Y5808980D01*
X971194Y5803646D01*
X968806Y5798007D01*
X966876Y5792012D01*
X965250Y5785713D01*
X963887Y5776722D01*
X985519Y5776722D01*
X986637Y5784189D01*
X988364Y5791149D01*
X990701Y5797499D01*
X993648Y5803290D01*
X997051Y5808421D01*
X1000861Y5812993D01*
X1005128Y5816854D01*
X1009751Y5820105D01*
X1014679Y5822645D01*
X1019810Y5824524D01*
X1025194Y5825642D01*
X1030732Y5825998D01*
X1036675Y5825642D01*
X1042162Y5824575D01*
X1047242Y5822848D01*
X1051814Y5820410D01*
X1055928Y5817260D01*
X1059535Y5813450D01*
X1062634Y5808980D01*
X1065174Y5803849D01*
X1067206Y5798007D01*
X1068679Y5791555D01*
X1069543Y5784443D01*
X1069848Y5776722D01*
X963887Y5776722D01*
X963421Y5772200D01*
X963168Y5765038D01*
X963421Y5757722D01*
X964082Y5750712D01*
X965250Y5744057D01*
X966774Y5737707D01*
X968756Y5731713D01*
X971092Y5726023D01*
X973836Y5720689D01*
X976884Y5715711D01*
X980287Y5711139D01*
X983996Y5706872D01*
X988009Y5703011D01*
X992276Y5699506D01*
X996848Y5696407D01*
X1001674Y5693714D01*
X1006652Y5691378D01*
X1011885Y5689498D01*
X1017320Y5687974D01*
X1022908Y5686907D01*
X1028649Y5686247D01*
X1034542Y5686044D01*
X1042162Y5686348D01*
X1049324Y5687263D01*
X1055979Y5688634D01*
X1062278Y5690514D01*
X1068171Y5692800D01*
X1073708Y5695391D01*
X1078992Y5698236D01*
X1084072Y5701284D01*
X1075690Y5716524D01*
X1071422Y5713780D01*
X1067104Y5711342D01*
X1062583Y5709259D01*
X1057960Y5707430D01*
X1053134Y5706008D01*
X1048054Y5704941D01*
X1042822Y5704281D01*
X1037336Y5704078D01*
X1031849Y5704332D01*
X1026566Y5705094D01*
X1021537Y5706364D01*
X1016812Y5708091D01*
X1012342Y5710275D01*
X1008176Y5712917D01*
X1004316Y5715965D01*
X1000810Y5719419D01*
X997610Y5723331D01*
X994765Y5727547D01*
X992276Y5732119D01*
X990142Y5737098D01*
X988415Y5742330D01*
X987145Y5747918D01*
X986231Y5753811D01*
X985774Y5759958D01*
X1088898Y5759958D01*
X1089710Y5766257D01*
X1089914Y5773674D01*
X1089761Y5780125D01*
X1089253Y5786272D01*
X1088440Y5792165D01*
X1087323Y5797804D01*
X1085900Y5803138D01*
X1084173Y5808218D01*
X1082141Y5812942D01*
X1079804Y5817412D01*
X1077214Y5821527D01*
X1074318Y5825337D01*
X1071118Y5828842D01*
X1067663Y5831992D01*
X1063904Y5834837D01*
X1059891Y5837275D01*
X1055624Y5839409D01*
X1051102Y5841136D01*
X1046327Y5842508D01*
X1041298Y5843473D01*
X1036015Y5844082D01*
G37*
G36*
X1200658Y5844286D02*
G01*
X1193088Y5843778D01*
X1185976Y5842254D01*
X1179271Y5839815D01*
X1172870Y5836666D01*
X1166825Y5832805D01*
X1160983Y5828436D01*
X1155344Y5823559D01*
X1149858Y5818378D01*
X1148842Y5818378D01*
X1146810Y5840476D01*
X1128268Y5840476D01*
X1128268Y5689600D01*
X1150874Y5689600D01*
X1150874Y5799836D01*
X1156614Y5805576D01*
X1161999Y5810554D01*
X1167231Y5814771D01*
X1172362Y5818276D01*
X1177493Y5820968D01*
X1182776Y5822899D01*
X1188262Y5824067D01*
X1194054Y5824474D01*
X1199032Y5824220D01*
X1203502Y5823407D01*
X1207465Y5822035D01*
X1211021Y5820105D01*
X1214069Y5817565D01*
X1216710Y5814466D01*
X1218946Y5810758D01*
X1220673Y5806389D01*
X1222044Y5801410D01*
X1223010Y5795822D01*
X1223568Y5789523D01*
X1223772Y5782564D01*
X1223772Y5689600D01*
X1246632Y5689600D01*
X1246632Y5785358D01*
X1246479Y5792368D01*
X1245971Y5798972D01*
X1245108Y5805119D01*
X1243888Y5810859D01*
X1242314Y5816142D01*
X1240383Y5820968D01*
X1238097Y5825337D01*
X1235456Y5829300D01*
X1232458Y5832805D01*
X1229055Y5835802D01*
X1225296Y5838393D01*
X1221130Y5840526D01*
X1216609Y5842152D01*
X1211681Y5843320D01*
X1206347Y5844032D01*
G37*
G36*
X1354836Y5844286D02*
G01*
X1349349Y5844082D01*
X1343964Y5843422D01*
X1338630Y5842355D01*
X1333500Y5840882D01*
X1328470Y5838952D01*
X1323594Y5836666D01*
X1318971Y5833973D01*
X1314500Y5830874D01*
X1310284Y5827369D01*
X1306372Y5823508D01*
X1302664Y5819292D01*
X1299311Y5814669D01*
X1296212Y5809691D01*
X1293520Y5804357D01*
X1291132Y5798616D01*
X1289151Y5792571D01*
X1287576Y5786221D01*
X1286459Y5779465D01*
X1285748Y5772404D01*
X1285494Y5765038D01*
X1309116Y5765038D01*
X1309319Y5771591D01*
X1309979Y5777890D01*
X1310995Y5783884D01*
X1312418Y5789574D01*
X1314246Y5794857D01*
X1316431Y5799836D01*
X1318920Y5804408D01*
X1321765Y5808573D01*
X1324965Y5812332D01*
X1328420Y5815634D01*
X1332179Y5818479D01*
X1336243Y5820867D01*
X1340510Y5822746D01*
X1345082Y5824118D01*
X1349857Y5824931D01*
X1354836Y5825236D01*
X1359814Y5824931D01*
X1364640Y5824118D01*
X1369212Y5822746D01*
X1373530Y5820867D01*
X1377594Y5818479D01*
X1381404Y5815634D01*
X1384909Y5812332D01*
X1388160Y5808573D01*
X1391056Y5804408D01*
X1393596Y5799836D01*
X1395831Y5794857D01*
X1397660Y5789574D01*
X1399133Y5783884D01*
X1400200Y5777890D01*
X1400860Y5771591D01*
X1401064Y5765038D01*
X1400860Y5758434D01*
X1400200Y5752084D01*
X1399133Y5746089D01*
X1397660Y5740450D01*
X1395831Y5735167D01*
X1393596Y5730240D01*
X1391056Y5725668D01*
X1388160Y5721553D01*
X1384909Y5717844D01*
X1381404Y5714542D01*
X1377594Y5711748D01*
X1373530Y5709412D01*
X1369212Y5707532D01*
X1364640Y5706211D01*
X1359814Y5705348D01*
X1354836Y5705094D01*
X1349857Y5705348D01*
X1345082Y5706211D01*
X1340510Y5707532D01*
X1336243Y5709412D01*
X1332179Y5711748D01*
X1328420Y5714542D01*
X1324965Y5717844D01*
X1321765Y5721553D01*
X1318920Y5725668D01*
X1316431Y5730240D01*
X1314246Y5735167D01*
X1312418Y5740450D01*
X1310995Y5746089D01*
X1309979Y5752084D01*
X1309319Y5758434D01*
X1309116Y5765038D01*
X1285494Y5765038D01*
X1285748Y5757672D01*
X1286459Y5750661D01*
X1287576Y5743956D01*
X1289151Y5737606D01*
X1291132Y5731560D01*
X1293520Y5725922D01*
X1296212Y5720588D01*
X1299311Y5715609D01*
X1302664Y5710986D01*
X1306372Y5706770D01*
X1310284Y5702909D01*
X1314500Y5699455D01*
X1318971Y5696356D01*
X1323594Y5693664D01*
X1328470Y5691327D01*
X1333500Y5689447D01*
X1338630Y5687974D01*
X1343964Y5686907D01*
X1349349Y5686247D01*
X1354836Y5686044D01*
X1360322Y5686247D01*
X1365758Y5686907D01*
X1371041Y5687974D01*
X1376222Y5689447D01*
X1381252Y5691327D01*
X1386128Y5693664D01*
X1390802Y5696356D01*
X1395222Y5699455D01*
X1399489Y5702909D01*
X1403451Y5706770D01*
X1407160Y5710986D01*
X1410563Y5715609D01*
X1413611Y5720588D01*
X1416354Y5725922D01*
X1418742Y5731560D01*
X1420723Y5737606D01*
X1422298Y5743956D01*
X1423466Y5750661D01*
X1424178Y5757672D01*
X1424432Y5765038D01*
X1424178Y5772404D01*
X1423466Y5779465D01*
X1422298Y5786221D01*
X1420723Y5792571D01*
X1418742Y5798616D01*
X1416354Y5804357D01*
X1413611Y5809691D01*
X1410563Y5814669D01*
X1407160Y5819292D01*
X1403451Y5823508D01*
X1399489Y5827369D01*
X1395222Y5830874D01*
X1390802Y5833973D01*
X1386128Y5836666D01*
X1381252Y5838952D01*
X1376222Y5840882D01*
X1371041Y5842355D01*
X1365758Y5843422D01*
X1360322Y5844082D01*
G37*
G36*
X1887728Y5844286D02*
G01*
X1882038Y5844082D01*
X1876399Y5843422D01*
X1870913Y5842355D01*
X1865528Y5840882D01*
X1860296Y5838952D01*
X1855266Y5836666D01*
X1850440Y5833973D01*
X1845868Y5830874D01*
X1841500Y5827369D01*
X1837385Y5823508D01*
X1833575Y5819292D01*
X1830120Y5814669D01*
X1826920Y5809691D01*
X1824126Y5804357D01*
X1821688Y5798616D01*
X1819656Y5792571D01*
X1818030Y5786221D01*
X1816811Y5779465D01*
X1816100Y5772404D01*
X1815846Y5765038D01*
X1816049Y5757672D01*
X1816760Y5750661D01*
X1817827Y5743956D01*
X1819351Y5737606D01*
X1821230Y5731560D01*
X1823516Y5725922D01*
X1826107Y5720588D01*
X1829104Y5715609D01*
X1832406Y5710986D01*
X1836013Y5706770D01*
X1839975Y5702909D01*
X1844141Y5699455D01*
X1848612Y5696356D01*
X1853336Y5693664D01*
X1858264Y5691327D01*
X1863445Y5689447D01*
X1868830Y5687974D01*
X1874367Y5686907D01*
X1880057Y5686247D01*
X1885950Y5686044D01*
X1892807Y5686348D01*
X1899513Y5687364D01*
X1905965Y5688939D01*
X1912213Y5691124D01*
X1918258Y5693867D01*
X1924050Y5697169D01*
X1929536Y5701030D01*
X1934718Y5705348D01*
X1924557Y5720334D01*
X1920849Y5717286D01*
X1916887Y5714441D01*
X1912620Y5711850D01*
X1908098Y5709564D01*
X1903323Y5707684D01*
X1898396Y5706313D01*
X1893265Y5705398D01*
X1887982Y5705094D01*
X1882597Y5705348D01*
X1877517Y5706211D01*
X1872640Y5707532D01*
X1868017Y5709412D01*
X1863750Y5711748D01*
X1859737Y5714542D01*
X1856028Y5717844D01*
X1852625Y5721553D01*
X1849628Y5725668D01*
X1846935Y5730240D01*
X1844649Y5735167D01*
X1842719Y5740450D01*
X1841195Y5746089D01*
X1840128Y5752084D01*
X1839417Y5758434D01*
X1839214Y5765038D01*
X1839468Y5771591D01*
X1840179Y5777890D01*
X1841347Y5783884D01*
X1842973Y5789574D01*
X1844954Y5794857D01*
X1847392Y5799836D01*
X1850136Y5804408D01*
X1853285Y5808573D01*
X1856739Y5812332D01*
X1860499Y5815634D01*
X1864563Y5818479D01*
X1868881Y5820867D01*
X1873453Y5822746D01*
X1878279Y5824118D01*
X1883308Y5824931D01*
X1888489Y5825236D01*
X1897481Y5824220D01*
X1905558Y5821324D01*
X1912874Y5817006D01*
X1919732Y5811520D01*
X1931924Y5826252D01*
X1927758Y5829808D01*
X1923288Y5833160D01*
X1918462Y5836208D01*
X1913229Y5838901D01*
X1907590Y5841136D01*
X1901494Y5842812D01*
X1894890Y5843930D01*
G37*
G36*
X2033270Y5844286D02*
G01*
X2026970Y5843727D01*
X2020874Y5842050D01*
X2014982Y5839358D01*
X2009343Y5835700D01*
X2004060Y5831128D01*
X1999183Y5825744D01*
X1994662Y5819597D01*
X1990598Y5812790D01*
X1989582Y5812790D01*
X1987296Y5840476D01*
X1969007Y5840476D01*
X1969007Y5689600D01*
X1991614Y5689600D01*
X1991614Y5787898D01*
X1995728Y5797042D01*
X2000250Y5804662D01*
X2005075Y5810859D01*
X2010105Y5815685D01*
X2015236Y5819343D01*
X2020417Y5821832D01*
X2025497Y5823254D01*
X2030475Y5823712D01*
X2034438Y5823559D01*
X2037892Y5823102D01*
X2041143Y5822340D01*
X2044700Y5821172D01*
X2049272Y5840984D01*
X2045512Y5842558D01*
X2041753Y5843574D01*
X2037740Y5844133D01*
G37*
G36*
X2129282Y5844286D02*
G01*
X2123795Y5844082D01*
X2118410Y5843422D01*
X2113076Y5842355D01*
X2107946Y5840882D01*
X2102916Y5838952D01*
X2098040Y5836666D01*
X2093417Y5833973D01*
X2088946Y5830874D01*
X2084730Y5827369D01*
X2080818Y5823508D01*
X2077110Y5819292D01*
X2073757Y5814669D01*
X2070658Y5809691D01*
X2067966Y5804357D01*
X2065578Y5798616D01*
X2063597Y5792571D01*
X2062022Y5786221D01*
X2060905Y5779465D01*
X2060193Y5772404D01*
X2059939Y5765038D01*
X2083562Y5765038D01*
X2083765Y5771591D01*
X2084425Y5777890D01*
X2085492Y5783884D01*
X2086914Y5789574D01*
X2088743Y5794857D01*
X2090928Y5799836D01*
X2093468Y5804408D01*
X2096312Y5808573D01*
X2099513Y5812332D01*
X2102967Y5815634D01*
X2106726Y5818479D01*
X2110790Y5820867D01*
X2115058Y5822746D01*
X2119579Y5824118D01*
X2124354Y5824931D01*
X2129282Y5825236D01*
X2134260Y5824931D01*
X2139086Y5824118D01*
X2143658Y5822746D01*
X2147976Y5820867D01*
X2152040Y5818479D01*
X2155850Y5815634D01*
X2159355Y5812332D01*
X2162606Y5808573D01*
X2165502Y5804408D01*
X2168042Y5799836D01*
X2170277Y5794857D01*
X2172106Y5789574D01*
X2173579Y5783884D01*
X2174646Y5777890D01*
X2175306Y5771591D01*
X2175510Y5765038D01*
X2175306Y5758434D01*
X2174646Y5752084D01*
X2173579Y5746089D01*
X2172106Y5740450D01*
X2170277Y5735167D01*
X2168042Y5730240D01*
X2165502Y5725668D01*
X2162606Y5721553D01*
X2159355Y5717844D01*
X2155850Y5714542D01*
X2152040Y5711748D01*
X2147976Y5709412D01*
X2143658Y5707532D01*
X2139086Y5706211D01*
X2134260Y5705348D01*
X2129282Y5705094D01*
X2124354Y5705348D01*
X2119579Y5706211D01*
X2115058Y5707532D01*
X2110790Y5709412D01*
X2106726Y5711748D01*
X2102967Y5714542D01*
X2099513Y5717844D01*
X2096312Y5721553D01*
X2093468Y5725668D01*
X2090928Y5730240D01*
X2088743Y5735167D01*
X2086914Y5740450D01*
X2085492Y5746089D01*
X2084425Y5752084D01*
X2083765Y5758434D01*
X2083562Y5765038D01*
X2059939Y5765038D01*
X2060193Y5757672D01*
X2060905Y5750661D01*
X2062022Y5743956D01*
X2063597Y5737606D01*
X2065578Y5731560D01*
X2067966Y5725922D01*
X2070658Y5720588D01*
X2073757Y5715609D01*
X2077110Y5710986D01*
X2080818Y5706770D01*
X2084730Y5702909D01*
X2088946Y5699455D01*
X2093417Y5696356D01*
X2098040Y5693664D01*
X2102916Y5691327D01*
X2107946Y5689447D01*
X2113076Y5687974D01*
X2118410Y5686907D01*
X2123795Y5686247D01*
X2129282Y5686044D01*
X2134768Y5686247D01*
X2140204Y5686907D01*
X2145487Y5687974D01*
X2150668Y5689447D01*
X2155698Y5691327D01*
X2160574Y5693664D01*
X2165248Y5696356D01*
X2169668Y5699455D01*
X2173935Y5702909D01*
X2177897Y5706770D01*
X2181606Y5710986D01*
X2185009Y5715609D01*
X2188057Y5720588D01*
X2190800Y5725922D01*
X2193188Y5731560D01*
X2195169Y5737606D01*
X2196744Y5743956D01*
X2197912Y5750661D01*
X2198624Y5757672D01*
X2198878Y5765038D01*
X2198624Y5772404D01*
X2197912Y5779465D01*
X2196744Y5786221D01*
X2195169Y5792571D01*
X2193188Y5798616D01*
X2190800Y5804357D01*
X2188057Y5809691D01*
X2185009Y5814669D01*
X2181606Y5819292D01*
X2177897Y5823508D01*
X2173935Y5827369D01*
X2169668Y5830874D01*
X2165248Y5833973D01*
X2160574Y5836666D01*
X2155698Y5838952D01*
X2150668Y5840882D01*
X2145487Y5842355D01*
X2140204Y5843422D01*
X2134768Y5844082D01*
G37*
G36*
X1752346Y5840476D02*
G01*
X1752346Y5689600D01*
X1775206Y5689600D01*
X1775206Y5840476D01*
G37*
G36*
X2693670Y5840476D02*
G01*
X2748788Y5689600D01*
X2775458Y5689600D01*
X2829306Y5840476D01*
X2806954Y5840476D01*
X2776982Y5752846D01*
X2768244Y5724753D01*
X2762758Y5708396D01*
X2761742Y5708396D01*
X2754426Y5730341D01*
X2747518Y5752846D01*
X2717546Y5840476D01*
G37*
G36*
X3023616Y5722366D02*
G01*
X3017113Y5721045D01*
X3011678Y5717286D01*
X3007969Y5711444D01*
X3006598Y5703824D01*
X3007969Y5696559D01*
X3011678Y5690920D01*
X3017113Y5687314D01*
X3023616Y5686044D01*
X3030423Y5687314D01*
X3036011Y5690920D01*
X3039770Y5696559D01*
X3041142Y5703824D01*
X3039770Y5711444D01*
X3036011Y5717286D01*
X3030423Y5721045D01*
G37*
G36*
X3903218Y5777992D02*
G01*
X3903218Y5676900D01*
X3913378Y5676900D01*
X3913378Y5726938D01*
X3918458Y5731814D01*
X3923131Y5735269D01*
X3927856Y5737402D01*
X3932936Y5738114D01*
X3939133Y5736996D01*
X3943400Y5733542D01*
X3945890Y5727598D01*
X3946651Y5719064D01*
X3946651Y5676900D01*
X3957065Y5676900D01*
X3957065Y5720588D01*
X3956761Y5726785D01*
X3955796Y5732170D01*
X3954221Y5736742D01*
X3951935Y5740501D01*
X3949039Y5743448D01*
X3945382Y5745530D01*
X3941064Y5746851D01*
X3935984Y5747258D01*
X3929379Y5746343D01*
X3923487Y5743803D01*
X3918153Y5740095D01*
X3913124Y5735574D01*
X3913378Y5749798D01*
X3913378Y5777992D01*
G37*
G36*
X4320540Y5777992D02*
G01*
X4320540Y5676900D01*
X4330700Y5676900D01*
X4330700Y5695188D01*
X4344162Y5710936D01*
X4364736Y5676900D01*
X4376166Y5676900D01*
X4350258Y5717794D01*
X4372864Y5745480D01*
X4361434Y5745480D01*
X4331208Y5707888D01*
X4330700Y5707888D01*
X4330700Y5777992D01*
G37*
G36*
X4389628Y5777992D02*
G01*
X4389628Y5676900D01*
X4399788Y5676900D01*
X4399788Y5726938D01*
X4404868Y5731814D01*
X4409592Y5735269D01*
X4414266Y5737402D01*
X4419346Y5738114D01*
X4425543Y5736996D01*
X4429810Y5733542D01*
X4432300Y5727598D01*
X4433062Y5719064D01*
X4433062Y5676900D01*
X4443476Y5676900D01*
X4443476Y5720588D01*
X4443171Y5726785D01*
X4442206Y5732170D01*
X4440631Y5736742D01*
X4438345Y5740501D01*
X4435449Y5743448D01*
X4431792Y5745530D01*
X4427474Y5746851D01*
X4422394Y5747258D01*
X4415790Y5746343D01*
X4409897Y5743803D01*
X4404563Y5740095D01*
X4399534Y5735574D01*
X4399788Y5749798D01*
X4399788Y5777992D01*
G37*
G36*
X3855212Y5771388D02*
G01*
X3849217Y5770930D01*
X3843782Y5769559D01*
X3838854Y5767425D01*
X3834688Y5764580D01*
X3831234Y5761024D01*
X3828694Y5756910D01*
X3827068Y5752287D01*
X3826510Y5747258D01*
X3828287Y5738418D01*
X3832809Y5731814D01*
X3838956Y5727039D01*
X3845560Y5723636D01*
X3859022Y5717794D01*
X3865219Y5714796D01*
X3870248Y5711342D01*
X3873550Y5706821D01*
X3874770Y5700522D01*
X3873398Y5693968D01*
X3869385Y5688888D01*
X3862984Y5685688D01*
X3854450Y5684520D01*
X3847134Y5685332D01*
X3840226Y5687720D01*
X3833876Y5691378D01*
X3828287Y5696204D01*
X3821937Y5689092D01*
X3828542Y5683250D01*
X3836162Y5678881D01*
X3844747Y5676087D01*
X3854196Y5675122D01*
X3861104Y5675630D01*
X3867200Y5677154D01*
X3872585Y5679592D01*
X3877056Y5682792D01*
X3880662Y5686653D01*
X3883253Y5691073D01*
X3884879Y5696000D01*
X3885437Y5701284D01*
X3883914Y5710428D01*
X3879799Y5717235D01*
X3873652Y5722315D01*
X3866134Y5726176D01*
X3852672Y5731764D01*
X3847236Y5734253D01*
X3842258Y5737504D01*
X3838600Y5741924D01*
X3837178Y5748020D01*
X3838498Y5753862D01*
X3842207Y5758383D01*
X3847896Y5761228D01*
X3855212Y5762244D01*
X3861511Y5761583D01*
X3867150Y5759805D01*
X3872229Y5757011D01*
X3876801Y5753354D01*
X3882390Y5760212D01*
X3877056Y5764733D01*
X3870604Y5768289D01*
X3863289Y5770575D01*
G37*
G36*
X3518154Y5769864D02*
G01*
X3518154Y5761482D01*
X3543554Y5761482D01*
X3553460Y5760618D01*
X3560622Y5757926D01*
X3564940Y5753100D01*
X3566414Y5745988D01*
X3565093Y5739333D01*
X3560978Y5734253D01*
X3553663Y5731103D01*
X3542792Y5729986D01*
X3528822Y5729986D01*
X3528822Y5761482D01*
X3518154Y5761482D01*
X3518154Y5721858D01*
X3545586Y5721858D01*
X3551529Y5721604D01*
X3556762Y5720791D01*
X3561334Y5719470D01*
X3565093Y5717590D01*
X3568039Y5715203D01*
X3570224Y5712206D01*
X3571544Y5708700D01*
X3572001Y5704586D01*
X3571544Y5699963D01*
X3570173Y5696000D01*
X3567937Y5692698D01*
X3564890Y5690006D01*
X3561079Y5687923D01*
X3556558Y5686450D01*
X3551377Y5685586D01*
X3545586Y5685282D01*
X3528822Y5685282D01*
X3528822Y5721858D01*
X3518154Y5721858D01*
X3518154Y5676900D01*
X3547110Y5676900D01*
X3554577Y5677306D01*
X3561384Y5678627D01*
X3567328Y5680760D01*
X3572459Y5683707D01*
X3576574Y5687568D01*
X3579622Y5692241D01*
X3581501Y5697728D01*
X3582162Y5704078D01*
X3580790Y5712612D01*
X3576878Y5719165D01*
X3570782Y5723737D01*
X3562858Y5726430D01*
X3562858Y5726938D01*
X3568903Y5730087D01*
X3573272Y5734710D01*
X3575913Y5740450D01*
X3576828Y5747004D01*
X3576218Y5752642D01*
X3574491Y5757418D01*
X3571748Y5761380D01*
X3567988Y5764530D01*
X3563365Y5766917D01*
X3557981Y5768594D01*
X3551834Y5769559D01*
X3545078Y5769864D01*
G37*
G36*
X3692398Y5769864D02*
G01*
X3692398Y5676900D01*
X3702050Y5676900D01*
X3702050Y5730494D01*
X3701592Y5744057D01*
X3700779Y5757672D01*
X3701287Y5757672D01*
X3708654Y5736336D01*
X3726942Y5686298D01*
X3734054Y5686298D01*
X3752342Y5736336D01*
X3759708Y5757672D01*
X3760215Y5757672D01*
X3759403Y5744057D01*
X3758946Y5730494D01*
X3758946Y5676900D01*
X3768598Y5676900D01*
X3768598Y5769864D01*
X3755644Y5769864D01*
X3735933Y5714136D01*
X3731006Y5699252D01*
X3730498Y5699252D01*
X3723640Y5719064D01*
X3705351Y5769864D01*
G37*
G36*
X4004818Y5747258D02*
G01*
X3996740Y5746394D01*
X3989476Y5744210D01*
X3983228Y5741263D01*
X3978148Y5738114D01*
X3982212Y5731002D01*
X3986580Y5733796D01*
X3991559Y5736234D01*
X3997096Y5737961D01*
X4003040Y5738622D01*
X4010355Y5737047D01*
X4014876Y5732881D01*
X4017162Y5726938D01*
X4017772Y5720080D01*
X4007459Y5718657D01*
X3998671Y5716778D01*
X3991305Y5714492D01*
X3985412Y5711647D01*
X3980840Y5708345D01*
X3977640Y5704382D01*
X3975709Y5699861D01*
X3975159Y5695188D01*
X3985260Y5695188D01*
X3985666Y5698540D01*
X3986885Y5701588D01*
X3989120Y5704281D01*
X3992372Y5706668D01*
X3996791Y5708751D01*
X4002430Y5710529D01*
X4009390Y5712053D01*
X4017772Y5713222D01*
X4017772Y5693156D01*
X4012641Y5688990D01*
X4007764Y5685942D01*
X4002938Y5684113D01*
X3997960Y5683504D01*
X3992981Y5684164D01*
X3988968Y5686196D01*
X3986225Y5689803D01*
X3985260Y5695188D01*
X3975159Y5695188D01*
X3975100Y5694680D01*
X3976624Y5686247D01*
X3980840Y5680151D01*
X3987190Y5676392D01*
X3995165Y5675122D01*
X4001515Y5675934D01*
X4007459Y5678119D01*
X4013098Y5681319D01*
X4018279Y5685282D01*
X4018534Y5685282D01*
X4019550Y5676900D01*
X4027932Y5676900D01*
X4027932Y5719572D01*
X4027627Y5725414D01*
X4026662Y5730748D01*
X4024985Y5735472D01*
X4022547Y5739536D01*
X4019397Y5742787D01*
X4015384Y5745226D01*
X4010558Y5746750D01*
G37*
G36*
X4083558Y5747258D02*
G01*
X4076903Y5746343D01*
X4070959Y5743752D01*
X4065524Y5739993D01*
X4060444Y5735320D01*
X4059936Y5735320D01*
X4058920Y5745480D01*
X4050537Y5745480D01*
X4050537Y5676900D01*
X4060951Y5676900D01*
X4060951Y5726938D01*
X4065981Y5731814D01*
X4070654Y5735269D01*
X4075328Y5737402D01*
X4080510Y5738114D01*
X4086555Y5736996D01*
X4090771Y5733542D01*
X4093210Y5727598D01*
X4093972Y5719064D01*
X4093972Y5676900D01*
X4104386Y5676900D01*
X4104386Y5720588D01*
X4104081Y5726785D01*
X4103115Y5732170D01*
X4101541Y5736742D01*
X4099306Y5740501D01*
X4096410Y5743448D01*
X4092803Y5745530D01*
X4088536Y5746851D01*
G37*
G36*
X4158487Y5747258D02*
G01*
X4152696Y5746343D01*
X4147159Y5743752D01*
X4141927Y5739993D01*
X4137151Y5735320D01*
X4136898Y5735320D01*
X4135882Y5745480D01*
X4127500Y5745480D01*
X4127500Y5676900D01*
X4137660Y5676900D01*
X4137660Y5726938D01*
X4142536Y5731916D01*
X4147159Y5735370D01*
X4151579Y5737453D01*
X4155694Y5738114D01*
X4161637Y5736996D01*
X4165854Y5733542D01*
X4168343Y5727598D01*
X4169156Y5719064D01*
X4169156Y5676900D01*
X4179315Y5676900D01*
X4179315Y5726938D01*
X4184142Y5731916D01*
X4188714Y5735370D01*
X4193082Y5737453D01*
X4197350Y5738114D01*
X4203293Y5736996D01*
X4207510Y5733542D01*
X4209999Y5727598D01*
X4210812Y5719064D01*
X4210812Y5676900D01*
X4221226Y5676900D01*
X4221226Y5720588D01*
X4220921Y5726785D01*
X4219956Y5732170D01*
X4218330Y5736742D01*
X4216044Y5740501D01*
X4213148Y5743448D01*
X4209542Y5745530D01*
X4205325Y5746851D01*
X4200398Y5747258D01*
X4194301Y5746242D01*
X4188561Y5743498D01*
X4183024Y5739231D01*
X4177537Y5733796D01*
X4174896Y5739434D01*
X4170984Y5743651D01*
X4165549Y5746343D01*
G37*
G36*
X3587750Y5745480D02*
G01*
X3615436Y5676646D01*
X3613912Y5671312D01*
X3611219Y5665114D01*
X3607714Y5660085D01*
X3603294Y5656783D01*
X3597910Y5655564D01*
X3595166Y5655868D01*
X3592576Y5656580D01*
X3590544Y5648198D01*
X3594049Y5647283D01*
X3598164Y5646928D01*
X3602939Y5647436D01*
X3607104Y5648807D01*
X3610813Y5650992D01*
X3614064Y5653887D01*
X3616909Y5657392D01*
X3619347Y5661406D01*
X3621481Y5665825D01*
X3623310Y5670550D01*
X3649472Y5745480D01*
X3639312Y5745480D01*
X3625087Y5701639D01*
X3620770Y5686806D01*
X3620008Y5686806D01*
X3613150Y5706364D01*
X3598672Y5745480D01*
G37*
G36*
X4243070Y5745480D02*
G01*
X4243070Y5702046D01*
X4243374Y5695848D01*
X4244340Y5690463D01*
X4245914Y5685840D01*
X4248150Y5682030D01*
X4251045Y5679033D01*
X4254652Y5676849D01*
X4258919Y5675579D01*
X4263898Y5675122D01*
X4270654Y5676087D01*
X4276547Y5678728D01*
X4281881Y5682742D01*
X4286758Y5687822D01*
X4287266Y5687822D01*
X4288028Y5676900D01*
X4296664Y5676900D01*
X4296664Y5745480D01*
X4286250Y5745480D01*
X4286250Y5696204D01*
X4281373Y5690819D01*
X4276801Y5687110D01*
X4272127Y5684977D01*
X4266946Y5684266D01*
X4260748Y5685383D01*
X4256582Y5688787D01*
X4254246Y5694680D01*
X4253484Y5703062D01*
X4253484Y5745480D01*
G37*
G36*
X3798570Y5691886D02*
G01*
X3795674Y5691276D01*
X3793236Y5689498D01*
X3791559Y5686856D01*
X3790950Y5683504D01*
X3791559Y5680151D01*
X3793236Y5677509D01*
X3795674Y5675731D01*
X3798570Y5675122D01*
X3801618Y5675731D01*
X3804107Y5677509D01*
X3805834Y5680151D01*
X3806444Y5683504D01*
X3805834Y5686856D01*
X3804107Y5689498D01*
X3801618Y5691276D01*
G37*
G36*
X247142Y4440936D02*
G01*
X240131Y4440783D01*
X233527Y4440275D01*
X227380Y4439412D01*
X221640Y4438192D01*
X216357Y4436618D01*
X211531Y4434687D01*
X207162Y4432401D01*
X203200Y4429760D01*
X199694Y4426762D01*
X196697Y4423359D01*
X194106Y4419600D01*
X191973Y4415434D01*
X190347Y4410913D01*
X189179Y4405985D01*
X188468Y4400651D01*
X188214Y4394962D01*
X188722Y4387443D01*
X190246Y4380382D01*
X192684Y4373676D01*
X195834Y4367276D01*
X199694Y4361180D01*
X204063Y4355338D01*
X208940Y4349648D01*
X214121Y4344162D01*
X214121Y4343146D01*
X192024Y4341114D01*
X192024Y4322572D01*
X342900Y4322572D01*
X342900Y4345178D01*
X232664Y4345178D01*
X226923Y4350918D01*
X221945Y4356303D01*
X217728Y4361535D01*
X214223Y4366666D01*
X211531Y4371797D01*
X209600Y4377080D01*
X208432Y4382566D01*
X208025Y4388358D01*
X208279Y4393336D01*
X209092Y4397806D01*
X210464Y4401769D01*
X212394Y4405325D01*
X214934Y4408373D01*
X218033Y4411014D01*
X221742Y4413250D01*
X226110Y4414977D01*
X231089Y4416348D01*
X236677Y4417314D01*
X242976Y4417872D01*
X249936Y4418076D01*
X342900Y4418076D01*
X342900Y4440936D01*
G37*
G36*
X258825Y4284218D02*
G01*
X252374Y4284065D01*
X246227Y4283557D01*
X240334Y4282795D01*
X234696Y4281678D01*
X229362Y4280255D01*
X224282Y4278528D01*
X219557Y4276496D01*
X215087Y4274210D01*
X210972Y4271568D01*
X207162Y4268673D01*
X203657Y4265523D01*
X200507Y4262069D01*
X197662Y4258310D01*
X195224Y4254296D01*
X193090Y4250029D01*
X191363Y4245508D01*
X189992Y4240682D01*
X189026Y4235653D01*
X188417Y4230319D01*
X188223Y4225036D01*
X206502Y4225036D01*
X206857Y4230979D01*
X207924Y4236466D01*
X209651Y4241546D01*
X212090Y4246118D01*
X215239Y4250232D01*
X219049Y4253839D01*
X223520Y4256938D01*
X228650Y4259478D01*
X234492Y4261510D01*
X240944Y4262983D01*
X248056Y4263847D01*
X255778Y4264152D01*
X255778Y4179824D01*
X248310Y4180941D01*
X241350Y4182668D01*
X235000Y4185005D01*
X229209Y4187951D01*
X224078Y4191355D01*
X219506Y4195165D01*
X215646Y4199432D01*
X212394Y4204055D01*
X209854Y4208983D01*
X207975Y4214114D01*
X206857Y4219498D01*
X206502Y4225036D01*
X188223Y4225036D01*
X188417Y4219600D01*
X189128Y4214520D01*
X190246Y4209440D01*
X191770Y4204512D01*
X193751Y4199686D01*
X196138Y4195013D01*
X198882Y4190492D01*
X202082Y4186174D01*
X205638Y4182059D01*
X209550Y4178147D01*
X213867Y4174540D01*
X218490Y4171238D01*
X223520Y4168190D01*
X228854Y4165498D01*
X234492Y4163110D01*
X240487Y4161180D01*
X246786Y4159554D01*
X253390Y4158437D01*
X260299Y4157726D01*
X267462Y4157472D01*
X274777Y4157726D01*
X281787Y4158386D01*
X288442Y4159554D01*
X294792Y4161078D01*
X300786Y4163060D01*
X306476Y4165396D01*
X311810Y4168140D01*
X316788Y4171187D01*
X321360Y4174591D01*
X325628Y4178350D01*
X329488Y4182364D01*
X332994Y4186682D01*
X336092Y4191203D01*
X338785Y4196029D01*
X341122Y4201109D01*
X343001Y4206341D01*
X344525Y4211777D01*
X345592Y4217416D01*
X346252Y4223207D01*
X346456Y4229100D01*
X346151Y4236669D01*
X345236Y4243781D01*
X343865Y4250436D01*
X341985Y4256684D01*
X339699Y4262577D01*
X337108Y4268165D01*
X334264Y4273397D01*
X331216Y4278376D01*
X315976Y4269994D01*
X318719Y4265777D01*
X321157Y4261408D01*
X323240Y4256887D01*
X325069Y4252264D01*
X326491Y4247489D01*
X327558Y4242511D01*
X328218Y4237278D01*
X328422Y4231894D01*
X328168Y4226356D01*
X327406Y4221073D01*
X326136Y4215993D01*
X324408Y4211269D01*
X322224Y4206798D01*
X319582Y4202633D01*
X316534Y4198772D01*
X313080Y4195216D01*
X309168Y4192015D01*
X304952Y4189171D01*
X300380Y4186682D01*
X295402Y4184548D01*
X290169Y4182821D01*
X284581Y4181500D01*
X278688Y4180586D01*
X272542Y4180078D01*
X272542Y4283202D01*
X266242Y4284014D01*
G37*
G36*
X258825Y4131056D02*
G01*
X252374Y4130903D01*
X246227Y4130395D01*
X240334Y4129582D01*
X234696Y4128465D01*
X229362Y4127042D01*
X224282Y4125315D01*
X219557Y4123283D01*
X215087Y4120946D01*
X210972Y4118305D01*
X207162Y4115409D01*
X203657Y4112209D01*
X200507Y4108704D01*
X197662Y4104995D01*
X195224Y4100931D01*
X193090Y4096664D01*
X191363Y4092092D01*
X189992Y4087317D01*
X189026Y4082237D01*
X188417Y4076903D01*
X188223Y4071620D01*
X206502Y4071620D01*
X206857Y4077563D01*
X207924Y4083050D01*
X209651Y4088129D01*
X212090Y4092701D01*
X215239Y4096816D01*
X219049Y4100423D01*
X223520Y4103522D01*
X228650Y4106062D01*
X234492Y4108094D01*
X240944Y4109567D01*
X248056Y4110431D01*
X255778Y4110736D01*
X255778Y4026408D01*
X248310Y4027525D01*
X241350Y4029252D01*
X235000Y4031589D01*
X229209Y4034536D01*
X224078Y4037939D01*
X219506Y4041800D01*
X215646Y4046016D01*
X212394Y4050639D01*
X209854Y4055567D01*
X207975Y4060698D01*
X206857Y4066082D01*
X206502Y4071620D01*
X188223Y4071620D01*
X188417Y4066184D01*
X189128Y4061104D01*
X190246Y4056024D01*
X191770Y4051096D01*
X193751Y4046270D01*
X196138Y4041597D01*
X198882Y4037076D01*
X202082Y4032758D01*
X205638Y4028643D01*
X209550Y4024731D01*
X213867Y4021124D01*
X218490Y4017822D01*
X223520Y4014774D01*
X228854Y4012082D01*
X234492Y4009694D01*
X240487Y4007764D01*
X246786Y4006138D01*
X253390Y4005021D01*
X260299Y4004310D01*
X267462Y4004056D01*
X274777Y4004310D01*
X281787Y4004970D01*
X288442Y4006138D01*
X294792Y4007713D01*
X300786Y4009694D01*
X306476Y4012031D01*
X311810Y4014774D01*
X316788Y4017873D01*
X321360Y4021277D01*
X325628Y4025036D01*
X329488Y4029049D01*
X332994Y4033367D01*
X336092Y4037939D01*
X338785Y4042714D01*
X341122Y4047794D01*
X343001Y4053027D01*
X344525Y4058462D01*
X345592Y4064050D01*
X346252Y4069791D01*
X346456Y4075684D01*
X346151Y4083253D01*
X345236Y4090365D01*
X343865Y4097020D01*
X341985Y4103268D01*
X339699Y4109161D01*
X337108Y4114749D01*
X334264Y4119981D01*
X331216Y4124960D01*
X315976Y4116578D01*
X318719Y4112361D01*
X321157Y4107992D01*
X323240Y4103471D01*
X325069Y4098848D01*
X326491Y4094073D01*
X327558Y4089095D01*
X328218Y4083862D01*
X328422Y4078478D01*
X328168Y4072940D01*
X327406Y4067657D01*
X326136Y4062577D01*
X324408Y4057853D01*
X322224Y4053382D01*
X319582Y4049217D01*
X316534Y4045356D01*
X313080Y4041800D01*
X309168Y4038600D01*
X304952Y4035755D01*
X300380Y4033265D01*
X295402Y4031132D01*
X290169Y4029405D01*
X284581Y4028084D01*
X278688Y4027170D01*
X272542Y4026662D01*
X272542Y4129786D01*
X266242Y4130700D01*
G37*
G36*
X191516Y3993134D02*
G01*
X189941Y3989425D01*
X188925Y3985717D01*
X188366Y3981805D01*
X188214Y3977386D01*
X188772Y3970985D01*
X190449Y3964838D01*
X193141Y3958945D01*
X196799Y3953357D01*
X201371Y3948074D01*
X206756Y3943146D01*
X212902Y3938574D01*
X219710Y3934460D01*
X219710Y3933698D01*
X192024Y3931412D01*
X192024Y3913124D01*
X342900Y3913124D01*
X342900Y3935729D01*
X244602Y3935729D01*
X235458Y3939794D01*
X227838Y3944264D01*
X221640Y3949090D01*
X216814Y3954119D01*
X213156Y3959301D01*
X210667Y3964482D01*
X209245Y3969613D01*
X208788Y3974592D01*
X208940Y3978554D01*
X209397Y3982008D01*
X210159Y3985260D01*
X211328Y3988815D01*
G37*
G36*
X327152Y3878579D02*
G01*
X312166Y3868674D01*
X315214Y3864914D01*
X318058Y3860901D01*
X320649Y3856634D01*
X322935Y3852113D01*
X324815Y3847388D01*
X326186Y3842461D01*
X327101Y3837381D01*
X327406Y3832098D01*
X327152Y3826713D01*
X326288Y3821633D01*
X324967Y3816756D01*
X323088Y3812133D01*
X320751Y3807866D01*
X317957Y3803853D01*
X314655Y3800144D01*
X310946Y3796741D01*
X306832Y3793744D01*
X302260Y3791051D01*
X297332Y3788765D01*
X292049Y3786835D01*
X286410Y3785311D01*
X280416Y3784244D01*
X274066Y3783533D01*
X267462Y3783329D01*
X260908Y3783584D01*
X254609Y3784295D01*
X248615Y3785463D01*
X242925Y3787089D01*
X237642Y3789070D01*
X232664Y3791508D01*
X228092Y3794251D01*
X223926Y3797401D01*
X220167Y3800856D01*
X216865Y3804615D01*
X214020Y3808679D01*
X211632Y3812997D01*
X209753Y3817569D01*
X208381Y3822395D01*
X207568Y3827424D01*
X207264Y3832606D01*
X208279Y3841496D01*
X211175Y3849573D01*
X215493Y3856990D01*
X220979Y3863848D01*
X206248Y3875786D01*
X202692Y3871671D01*
X199339Y3867200D01*
X196291Y3862425D01*
X193598Y3857193D01*
X191363Y3851554D01*
X189687Y3845458D01*
X188569Y3838803D01*
X188214Y3831590D01*
X188417Y3825900D01*
X189077Y3820312D01*
X190144Y3814826D01*
X191617Y3809492D01*
X193548Y3804310D01*
X195834Y3799332D01*
X198526Y3794506D01*
X201625Y3789934D01*
X205130Y3785565D01*
X208991Y3781501D01*
X213207Y3777691D01*
X217830Y3774186D01*
X222808Y3771036D01*
X228142Y3768242D01*
X233883Y3765804D01*
X239928Y3763772D01*
X246278Y3762146D01*
X253034Y3760927D01*
X260096Y3760215D01*
X267462Y3759962D01*
X274828Y3760165D01*
X281838Y3760876D01*
X288544Y3761943D01*
X294894Y3763467D01*
X300939Y3765346D01*
X306578Y3767632D01*
X311912Y3770223D01*
X316890Y3773220D01*
X321513Y3776522D01*
X325729Y3780180D01*
X329590Y3784092D01*
X333044Y3788257D01*
X336143Y3792728D01*
X338836Y3797452D01*
X341172Y3802379D01*
X343052Y3807561D01*
X344525Y3812946D01*
X345592Y3818483D01*
X346252Y3824173D01*
X346456Y3830065D01*
X346151Y3836873D01*
X345135Y3843477D01*
X343560Y3849878D01*
X341376Y3856126D01*
X338632Y3862120D01*
X335330Y3867912D01*
X331470Y3873398D01*
G37*
G36*
X289306Y3732784D02*
G01*
X282041Y3732377D01*
X275386Y3731260D01*
X269341Y3729431D01*
X263855Y3726992D01*
X258876Y3723944D01*
X254355Y3720337D01*
X250240Y3716274D01*
X246532Y3711752D01*
X243128Y3706876D01*
X240029Y3701643D01*
X237134Y3696106D01*
X234442Y3690365D01*
X221996Y3660648D01*
X216458Y3648811D01*
X213207Y3643071D01*
X209448Y3637838D01*
X205028Y3633317D01*
X199796Y3629761D01*
X193649Y3627424D01*
X186436Y3626612D01*
X179527Y3627323D01*
X173431Y3629456D01*
X168046Y3632911D01*
X163576Y3637584D01*
X159969Y3643325D01*
X157378Y3650081D01*
X155752Y3657752D01*
X155194Y3666236D01*
X155549Y3673348D01*
X156565Y3680104D01*
X158242Y3686505D01*
X160477Y3692550D01*
X163322Y3698240D01*
X166674Y3703574D01*
X170484Y3708654D01*
X174752Y3713479D01*
X160020Y3725926D01*
X156362Y3722268D01*
X152958Y3718356D01*
X149707Y3714191D01*
X146761Y3709720D01*
X144068Y3704996D01*
X141681Y3700068D01*
X139598Y3694937D01*
X137871Y3689553D01*
X136499Y3684015D01*
X135483Y3678224D01*
X134823Y3672332D01*
X134620Y3666236D01*
X134874Y3659530D01*
X135636Y3653078D01*
X136906Y3646932D01*
X138582Y3641090D01*
X140766Y3635552D01*
X143357Y3630320D01*
X146304Y3625545D01*
X149707Y3621125D01*
X153416Y3617112D01*
X157530Y3613607D01*
X161950Y3610559D01*
X166674Y3607968D01*
X171653Y3605936D01*
X176936Y3604463D01*
X182473Y3603548D01*
X188214Y3603244D01*
X195326Y3603701D01*
X201828Y3605022D01*
X207721Y3607054D01*
X213055Y3609797D01*
X217881Y3613150D01*
X222199Y3616909D01*
X226110Y3621125D01*
X229565Y3625646D01*
X232664Y3630371D01*
X235458Y3635197D01*
X240029Y3644900D01*
X256438Y3681476D01*
X259689Y3688079D01*
X263144Y3694074D01*
X267055Y3699205D01*
X271627Y3703472D01*
X276961Y3706672D01*
X283311Y3708704D01*
X290830Y3709415D01*
X295960Y3709060D01*
X300786Y3708044D01*
X305257Y3706317D01*
X309372Y3703980D01*
X313080Y3700983D01*
X316382Y3697427D01*
X319278Y3693261D01*
X321665Y3688537D01*
X323596Y3683254D01*
X324967Y3677513D01*
X325831Y3671214D01*
X326136Y3664458D01*
X325932Y3659022D01*
X325323Y3653637D01*
X324307Y3648354D01*
X322935Y3643122D01*
X321157Y3638042D01*
X319074Y3633063D01*
X316687Y3628288D01*
X313944Y3623614D01*
X310896Y3619144D01*
X307594Y3614928D01*
X304038Y3610864D01*
X300228Y3607054D01*
X315976Y3593084D01*
X320548Y3597605D01*
X324764Y3602431D01*
X328676Y3607460D01*
X332232Y3612794D01*
X335432Y3618382D01*
X338277Y3624224D01*
X340715Y3630320D01*
X342747Y3636619D01*
X344322Y3643122D01*
X345490Y3649878D01*
X346202Y3656787D01*
X346456Y3663950D01*
X346151Y3671722D01*
X345287Y3679088D01*
X343916Y3686048D01*
X342036Y3692601D01*
X339648Y3698697D01*
X336804Y3704386D01*
X333552Y3709568D01*
X329895Y3714292D01*
X325831Y3718509D01*
X321462Y3722166D01*
X316738Y3725367D01*
X311759Y3728008D01*
X306476Y3730091D01*
X300939Y3731564D01*
X295198Y3732479D01*
G37*
G36*
X247142Y3494278D02*
G01*
X240131Y3494125D01*
X233527Y3493566D01*
X227380Y3492703D01*
X221640Y3491484D01*
X216357Y3489909D01*
X211531Y3487978D01*
X207162Y3485642D01*
X203200Y3483000D01*
X199694Y3479952D01*
X196697Y3476498D01*
X194106Y3472738D01*
X191973Y3468573D01*
X190347Y3464001D01*
X189179Y3459073D01*
X188468Y3453739D01*
X188214Y3448050D01*
X188722Y3440582D01*
X190246Y3433521D01*
X192633Y3426815D01*
X195783Y3420465D01*
X199593Y3414420D01*
X203962Y3408629D01*
X208737Y3402990D01*
X213867Y3397504D01*
X182372Y3398265D01*
X120396Y3398265D01*
X120396Y3375660D01*
X342900Y3375660D01*
X342900Y3398265D01*
X232664Y3398265D01*
X226923Y3404006D01*
X221945Y3409391D01*
X217728Y3414623D01*
X214223Y3419754D01*
X211531Y3424885D01*
X209600Y3430168D01*
X208432Y3435654D01*
X208025Y3441446D01*
X208279Y3446424D01*
X209092Y3450894D01*
X210464Y3454857D01*
X212394Y3458413D01*
X214934Y3461461D01*
X218033Y3464102D01*
X221742Y3466337D01*
X226110Y3468065D01*
X231089Y3469436D01*
X236677Y3470401D01*
X242976Y3470960D01*
X249936Y3471164D01*
X342900Y3471164D01*
X342900Y3494278D01*
G37*
G36*
X327152Y3341370D02*
G01*
X312166Y3331210D01*
X315214Y3327501D01*
X318058Y3323539D01*
X320649Y3319272D01*
X322935Y3314750D01*
X324815Y3309975D01*
X326186Y3305048D01*
X327101Y3299917D01*
X327406Y3294634D01*
X327152Y3289300D01*
X326288Y3284220D01*
X324967Y3279394D01*
X323088Y3274822D01*
X320751Y3270554D01*
X317957Y3266541D01*
X314655Y3262884D01*
X310946Y3259531D01*
X306832Y3256483D01*
X302260Y3253841D01*
X297332Y3251555D01*
X292049Y3249625D01*
X286410Y3248101D01*
X280416Y3247034D01*
X274066Y3246323D01*
X267462Y3246120D01*
X260908Y3246374D01*
X254609Y3247085D01*
X248615Y3248202D01*
X242925Y3249828D01*
X237642Y3251809D01*
X232664Y3254197D01*
X228092Y3256940D01*
X223926Y3260039D01*
X220167Y3263493D01*
X216865Y3267252D01*
X214020Y3271265D01*
X211632Y3275584D01*
X209753Y3280156D01*
X208381Y3284931D01*
X207568Y3289960D01*
X207264Y3295142D01*
X208279Y3304133D01*
X211175Y3312210D01*
X215493Y3319627D01*
X220979Y3326637D01*
X206248Y3338576D01*
X202692Y3334410D01*
X199339Y3329940D01*
X196291Y3325114D01*
X193598Y3319932D01*
X191363Y3314242D01*
X189687Y3308146D01*
X188569Y3301542D01*
X188214Y3294379D01*
X188417Y3288690D01*
X189077Y3283051D01*
X190144Y3277565D01*
X191617Y3272180D01*
X193548Y3266948D01*
X195834Y3261918D01*
X198526Y3257092D01*
X201625Y3252520D01*
X205130Y3248152D01*
X208991Y3244037D01*
X213207Y3240227D01*
X217830Y3236772D01*
X222808Y3233572D01*
X228142Y3230778D01*
X233883Y3228340D01*
X239928Y3226308D01*
X246278Y3224682D01*
X253034Y3223463D01*
X260096Y3222752D01*
X267462Y3222498D01*
X274828Y3222701D01*
X281838Y3223412D01*
X288544Y3224479D01*
X294894Y3226003D01*
X300939Y3227882D01*
X306578Y3230168D01*
X311912Y3232810D01*
X316890Y3235756D01*
X321513Y3239109D01*
X325729Y3242716D01*
X329590Y3246628D01*
X333044Y3250844D01*
X336143Y3255365D01*
X338836Y3260090D01*
X341172Y3265017D01*
X343052Y3270250D01*
X344525Y3275634D01*
X345592Y3281172D01*
X346252Y3286963D01*
X346456Y3292856D01*
X346151Y3299663D01*
X345135Y3306267D01*
X343560Y3312668D01*
X341376Y3318916D01*
X338632Y3324910D01*
X335330Y3330701D01*
X331470Y3336188D01*
G37*
G36*
X192024Y3181604D02*
G01*
X192024Y3158998D01*
X300228Y3158998D01*
X306628Y3153460D01*
X312064Y3148126D01*
X316636Y3142996D01*
X320294Y3137966D01*
X323088Y3132836D01*
X325069Y3127603D01*
X326237Y3122117D01*
X326644Y3116326D01*
X326390Y3111296D01*
X325577Y3106826D01*
X324205Y3102813D01*
X322275Y3099257D01*
X319786Y3096158D01*
X316687Y3093567D01*
X312978Y3091383D01*
X308660Y3089605D01*
X303733Y3088284D01*
X298145Y3087370D01*
X291896Y3086811D01*
X284988Y3086608D01*
X192024Y3086608D01*
X192024Y3064002D01*
X287782Y3064002D01*
X294792Y3064154D01*
X301396Y3064662D01*
X307543Y3065526D01*
X313232Y3066694D01*
X318516Y3068269D01*
X323291Y3070148D01*
X327660Y3072434D01*
X331571Y3075076D01*
X335076Y3078022D01*
X338074Y3081426D01*
X340614Y3085185D01*
X342696Y3089300D01*
X344373Y3093821D01*
X345541Y3098698D01*
X346202Y3104032D01*
X346456Y3109722D01*
X345948Y3117291D01*
X344474Y3124352D01*
X342036Y3131058D01*
X338785Y3137357D01*
X334772Y3143351D01*
X330047Y3149092D01*
X324713Y3154629D01*
X318770Y3160014D01*
X318770Y3160776D01*
X342900Y3162808D01*
X342900Y3181604D01*
G37*
G36*
X267462Y3025140D02*
G01*
X260096Y3024886D01*
X253034Y3024174D01*
X246278Y3023006D01*
X239928Y3021431D01*
X233883Y3019450D01*
X228142Y3017062D01*
X222808Y3014319D01*
X217830Y3011271D01*
X213207Y3007868D01*
X208991Y3004159D01*
X205130Y3000197D01*
X201625Y2995930D01*
X198526Y2991510D01*
X195834Y2986836D01*
X193548Y2981960D01*
X191617Y2976930D01*
X190144Y2971749D01*
X189077Y2966466D01*
X188417Y2961030D01*
X188214Y2955544D01*
X207264Y2955544D01*
X207568Y2960522D01*
X208381Y2965297D01*
X209753Y2969869D01*
X211632Y2974187D01*
X214020Y2978251D01*
X216865Y2982010D01*
X220167Y2985516D01*
X223926Y2988716D01*
X228092Y2991612D01*
X232664Y2994152D01*
X237642Y2996336D01*
X242925Y2998165D01*
X248615Y2999587D01*
X254609Y3000654D01*
X260908Y3001314D01*
X267462Y3001518D01*
X274066Y3001314D01*
X280416Y3000654D01*
X286410Y2999587D01*
X292049Y2998165D01*
X297332Y2996336D01*
X302260Y2994152D01*
X306832Y2991612D01*
X310946Y2988716D01*
X314655Y2985516D01*
X317957Y2982010D01*
X320751Y2978251D01*
X323088Y2974187D01*
X324967Y2969869D01*
X326288Y2965297D01*
X327152Y2960522D01*
X327406Y2955544D01*
X327152Y2950565D01*
X326288Y2945790D01*
X324967Y2941218D01*
X323088Y2936900D01*
X320751Y2932836D01*
X317957Y2929077D01*
X314655Y2925572D01*
X310946Y2922371D01*
X306832Y2919476D01*
X302260Y2916936D01*
X297332Y2914751D01*
X292049Y2912922D01*
X286410Y2911500D01*
X280416Y2910433D01*
X274066Y2909773D01*
X267462Y2909570D01*
X260908Y2909773D01*
X254609Y2910433D01*
X248615Y2911500D01*
X242925Y2912922D01*
X237642Y2914751D01*
X232664Y2916936D01*
X228092Y2919476D01*
X223926Y2922371D01*
X220167Y2925572D01*
X216865Y2929077D01*
X214020Y2932836D01*
X211632Y2936900D01*
X209753Y2941218D01*
X208381Y2945790D01*
X207568Y2950565D01*
X207264Y2955544D01*
X188214Y2955544D01*
X188417Y2950057D01*
X189077Y2944672D01*
X190144Y2939338D01*
X191617Y2934208D01*
X193548Y2929178D01*
X195834Y2924302D01*
X198526Y2919679D01*
X201625Y2915208D01*
X205130Y2910992D01*
X208991Y2907080D01*
X213207Y2903372D01*
X217830Y2900019D01*
X222808Y2896920D01*
X228142Y2894228D01*
X233883Y2891840D01*
X239928Y2889859D01*
X246278Y2888284D01*
X253034Y2887167D01*
X260096Y2886456D01*
X267462Y2886202D01*
X274828Y2886456D01*
X281838Y2887167D01*
X288544Y2888284D01*
X294894Y2889859D01*
X300939Y2891840D01*
X306578Y2894228D01*
X311912Y2896920D01*
X316890Y2900019D01*
X321513Y2903372D01*
X325729Y2907080D01*
X329590Y2910992D01*
X333044Y2915208D01*
X336143Y2919679D01*
X338836Y2924302D01*
X341172Y2929178D01*
X343052Y2934208D01*
X344525Y2939338D01*
X345592Y2944672D01*
X346252Y2950057D01*
X346456Y2955544D01*
X346252Y2961030D01*
X345592Y2966466D01*
X344525Y2971749D01*
X343052Y2976930D01*
X341172Y2981960D01*
X338836Y2986836D01*
X336143Y2991510D01*
X333044Y2995930D01*
X329590Y3000197D01*
X325729Y3004159D01*
X321513Y3007868D01*
X316890Y3011271D01*
X311912Y3014319D01*
X306578Y3017062D01*
X300939Y3019450D01*
X294894Y3021431D01*
X288544Y3023006D01*
X281838Y3024174D01*
X274828Y3024886D01*
G37*
G36*
X138430Y2882900D02*
G01*
X138430Y2734564D01*
X157988Y2734564D01*
X157988Y2796794D01*
X342900Y2796794D01*
X342900Y2820162D01*
X157988Y2820162D01*
X157988Y2882900D01*
G37*
G36*
X258825Y2651506D02*
G01*
X252374Y2651353D01*
X246227Y2650845D01*
X240334Y2650032D01*
X234696Y2648915D01*
X229362Y2647492D01*
X224282Y2645765D01*
X219557Y2643733D01*
X215087Y2641396D01*
X210972Y2638806D01*
X207162Y2635910D01*
X203657Y2632710D01*
X200507Y2629255D01*
X197662Y2625496D01*
X195224Y2621483D01*
X193090Y2617216D01*
X191363Y2612694D01*
X189992Y2607919D01*
X189026Y2602890D01*
X188417Y2597607D01*
X188223Y2592324D01*
X206502Y2592324D01*
X206857Y2598267D01*
X207924Y2603754D01*
X209651Y2608834D01*
X212090Y2613406D01*
X215239Y2617520D01*
X219049Y2621127D01*
X223520Y2624226D01*
X228650Y2626766D01*
X234492Y2628798D01*
X240944Y2630271D01*
X248056Y2631135D01*
X255778Y2631440D01*
X255778Y2547112D01*
X248310Y2548229D01*
X241350Y2549956D01*
X235000Y2552344D01*
X229209Y2555240D01*
X224078Y2558643D01*
X219506Y2562504D01*
X215646Y2566720D01*
X212394Y2571343D01*
X209854Y2576271D01*
X207975Y2581402D01*
X206857Y2586786D01*
X206502Y2592324D01*
X188223Y2592324D01*
X188417Y2586888D01*
X189128Y2581706D01*
X190246Y2576677D01*
X191770Y2571699D01*
X193751Y2566873D01*
X196138Y2562199D01*
X198882Y2557678D01*
X202082Y2553360D01*
X205638Y2549245D01*
X209550Y2545384D01*
X213867Y2541778D01*
X218490Y2538425D01*
X223520Y2535428D01*
X228854Y2532735D01*
X234492Y2530398D01*
X240487Y2528417D01*
X246786Y2526842D01*
X253390Y2525725D01*
X260299Y2525014D01*
X267462Y2524760D01*
X274777Y2525014D01*
X281787Y2525674D01*
X288442Y2526842D01*
X294792Y2528366D01*
X300786Y2530348D01*
X306476Y2532684D01*
X311810Y2535428D01*
X316788Y2538476D01*
X321360Y2541879D01*
X325628Y2545588D01*
X329488Y2549601D01*
X332994Y2553868D01*
X336092Y2558440D01*
X338785Y2563266D01*
X341122Y2568244D01*
X343001Y2573477D01*
X344525Y2578912D01*
X345592Y2584500D01*
X346252Y2590241D01*
X346456Y2596134D01*
X346151Y2603754D01*
X345236Y2610916D01*
X343865Y2617571D01*
X341985Y2623870D01*
X339699Y2629763D01*
X337108Y2635300D01*
X334264Y2640584D01*
X331216Y2645664D01*
X315976Y2637282D01*
X318719Y2633014D01*
X321157Y2628646D01*
X323240Y2624124D01*
X325069Y2619451D01*
X326491Y2614574D01*
X327558Y2609545D01*
X328218Y2604363D01*
X328422Y2598928D01*
X328168Y2593390D01*
X327406Y2588107D01*
X326136Y2583078D01*
X324408Y2578303D01*
X322224Y2573832D01*
X319582Y2569667D01*
X316534Y2565806D01*
X313080Y2562301D01*
X309168Y2559100D01*
X304952Y2556256D01*
X300380Y2553817D01*
X295402Y2551684D01*
X290169Y2550007D01*
X284581Y2548686D01*
X278688Y2547823D01*
X272542Y2547366D01*
X272542Y2650490D01*
X266242Y2651302D01*
G37*
G36*
X192024Y2507234D02*
G01*
X192024Y2484882D01*
X279654Y2455164D01*
X324104Y2440940D01*
X324104Y2439670D01*
X296570Y2430678D01*
X279654Y2425446D01*
X192024Y2395474D01*
X192024Y2371852D01*
X342900Y2426970D01*
X342900Y2453386D01*
G37*
G36*
X143764Y2346706D02*
G01*
X137363Y2345486D01*
X132486Y2342184D01*
X129387Y2337155D01*
X128270Y2330958D01*
X129387Y2324557D01*
X132486Y2319578D01*
X137363Y2316327D01*
X143764Y2315210D01*
X150317Y2316327D01*
X155244Y2319578D01*
X158394Y2324557D01*
X159512Y2330958D01*
X158394Y2337155D01*
X155244Y2342184D01*
X150317Y2345486D01*
G37*
G36*
X192024Y2342134D02*
G01*
X192024Y2319528D01*
X342900Y2319528D01*
X342900Y2342134D01*
G37*
G36*
X340868Y2289048D02*
G01*
X323596Y2284730D01*
X325221Y2280615D01*
X326593Y2276043D01*
X327558Y2271369D01*
X327914Y2266950D01*
X327406Y2260752D01*
X325882Y2255672D01*
X323392Y2251557D01*
X319989Y2248357D01*
X315722Y2246071D01*
X310642Y2244496D01*
X304800Y2243582D01*
X298196Y2243328D01*
X210820Y2243328D01*
X210820Y2284984D01*
X192024Y2284984D01*
X192024Y2243328D01*
X149352Y2243328D01*
X149352Y2224278D01*
X192024Y2221484D01*
X193294Y2197862D01*
X210820Y2197862D01*
X210820Y2220722D01*
X297434Y2220722D01*
X304546Y2220925D01*
X311200Y2221585D01*
X317398Y2222754D01*
X323138Y2224481D01*
X328320Y2226767D01*
X332892Y2229662D01*
X336905Y2233218D01*
X340258Y2237486D01*
X342900Y2242464D01*
X344830Y2248255D01*
X346049Y2254910D01*
X346456Y2262378D01*
X345998Y2268880D01*
X344728Y2275687D01*
X342900Y2282545D01*
G37*
G36*
X302514Y2185670D02*
G01*
X295706Y2185162D01*
X289610Y2183739D01*
X284276Y2181504D01*
X279603Y2178456D01*
X275437Y2174798D01*
X271780Y2170633D01*
X268528Y2165959D01*
X265684Y2160930D01*
X260705Y2150211D01*
X256286Y2139188D01*
X251612Y2126640D01*
X249021Y2121052D01*
X246125Y2116124D01*
X242773Y2112010D01*
X238912Y2108860D01*
X234391Y2106879D01*
X229108Y2106168D01*
X224637Y2106625D01*
X220370Y2107895D01*
X216509Y2110130D01*
X213106Y2113229D01*
X210261Y2117293D01*
X208127Y2122373D01*
X206705Y2128367D01*
X206248Y2135378D01*
X206502Y2140407D01*
X207264Y2145131D01*
X208483Y2149652D01*
X210108Y2154021D01*
X212090Y2158187D01*
X214375Y2162251D01*
X219710Y2170176D01*
X204978Y2181352D01*
X201574Y2176830D01*
X198374Y2171903D01*
X195529Y2166620D01*
X193090Y2160930D01*
X191058Y2154936D01*
X189534Y2148687D01*
X188569Y2142134D01*
X188214Y2135378D01*
X188569Y2127554D01*
X189687Y2120290D01*
X191465Y2113635D01*
X193903Y2107641D01*
X196900Y2102256D01*
X200456Y2097532D01*
X204470Y2093468D01*
X208940Y2090166D01*
X213817Y2087524D01*
X219049Y2085593D01*
X224586Y2084476D01*
X230378Y2084070D01*
X236474Y2084527D01*
X241960Y2085898D01*
X246888Y2088032D01*
X251307Y2090877D01*
X255219Y2094331D01*
X258775Y2098344D01*
X261924Y2102764D01*
X264769Y2107590D01*
X267309Y2112670D01*
X271780Y2123338D01*
X276250Y2135174D01*
X278841Y2141423D01*
X281736Y2147366D01*
X284937Y2152700D01*
X288645Y2157222D01*
X292912Y2160727D01*
X297840Y2163013D01*
X303530Y2163826D01*
X308610Y2163368D01*
X313334Y2161895D01*
X317601Y2159508D01*
X321360Y2156104D01*
X324408Y2151735D01*
X326694Y2146350D01*
X328168Y2140000D01*
X328676Y2132584D01*
X328320Y2125726D01*
X327304Y2119325D01*
X325678Y2113330D01*
X323545Y2107641D01*
X320852Y2102307D01*
X317754Y2097125D01*
X314248Y2092096D01*
X310388Y2087118D01*
X325882Y2075688D01*
X330098Y2081275D01*
X334010Y2087422D01*
X337515Y2094026D01*
X340563Y2100986D01*
X343052Y2108301D01*
X344881Y2115921D01*
X346049Y2123795D01*
X346456Y2131822D01*
X346049Y2140204D01*
X344881Y2147874D01*
X342950Y2154936D01*
X340360Y2161235D01*
X337159Y2166874D01*
X333451Y2171801D01*
X329184Y2175967D01*
X324510Y2179421D01*
X319430Y2182164D01*
X314045Y2184095D01*
X308406Y2185263D01*
G37*
G36*
X143764Y2045207D02*
G01*
X137363Y2044039D01*
X132486Y2040788D01*
X129387Y2035759D01*
X128270Y2029460D01*
X129387Y2023059D01*
X132486Y2018080D01*
X137363Y2014829D01*
X143764Y2013712D01*
X150317Y2014829D01*
X155244Y2018080D01*
X158394Y2023059D01*
X159512Y2029460D01*
X158394Y2035759D01*
X155244Y2040737D01*
X150317Y2044039D01*
G37*
G36*
X192024Y2040636D02*
G01*
X192024Y2018030D01*
X342900Y2018030D01*
X342900Y2040636D01*
G37*
G36*
X302514Y1981200D02*
G01*
X295706Y1980692D01*
X289610Y1979269D01*
X284276Y1976983D01*
X279603Y1973986D01*
X275437Y1970328D01*
X271780Y1966112D01*
X268528Y1961438D01*
X265684Y1956409D01*
X260705Y1945589D01*
X251612Y1922068D01*
X249021Y1916531D01*
X246125Y1911604D01*
X242773Y1907489D01*
X238912Y1904390D01*
X234391Y1902409D01*
X229108Y1901698D01*
X224637Y1902155D01*
X220370Y1903425D01*
X216509Y1905660D01*
X213106Y1908759D01*
X210261Y1912823D01*
X208127Y1917903D01*
X206705Y1923897D01*
X206248Y1930907D01*
X206502Y1935937D01*
X207264Y1940661D01*
X208483Y1945182D01*
X210108Y1949551D01*
X212090Y1953717D01*
X214375Y1957781D01*
X219710Y1965706D01*
X204978Y1976882D01*
X201574Y1972310D01*
X198374Y1967331D01*
X195529Y1961997D01*
X193090Y1956358D01*
X191058Y1950415D01*
X189534Y1944166D01*
X188569Y1937664D01*
X188214Y1930907D01*
X188569Y1923034D01*
X189687Y1915718D01*
X191465Y1909064D01*
X193903Y1903018D01*
X196900Y1897684D01*
X200456Y1892960D01*
X204470Y1888947D01*
X208940Y1885645D01*
X213817Y1883003D01*
X219049Y1881124D01*
X224586Y1880006D01*
X230378Y1879600D01*
X236474Y1880057D01*
X241960Y1881428D01*
X246888Y1883562D01*
X251307Y1886407D01*
X255219Y1889861D01*
X258775Y1893874D01*
X261924Y1898294D01*
X264769Y1903120D01*
X267309Y1908200D01*
X271780Y1918868D01*
X276250Y1930704D01*
X278841Y1936953D01*
X281736Y1942896D01*
X284937Y1948230D01*
X288645Y1952752D01*
X292912Y1956257D01*
X297840Y1958543D01*
X303530Y1959356D01*
X308610Y1958898D01*
X313334Y1957425D01*
X317601Y1955038D01*
X321360Y1951634D01*
X324408Y1947265D01*
X326694Y1941880D01*
X328168Y1935530D01*
X328676Y1928114D01*
X328320Y1921256D01*
X327304Y1914855D01*
X325678Y1908860D01*
X323545Y1903171D01*
X320852Y1897837D01*
X317754Y1892655D01*
X314248Y1887626D01*
X310388Y1882648D01*
X325882Y1871218D01*
X330098Y1876806D01*
X334010Y1882952D01*
X337515Y1889556D01*
X340563Y1896516D01*
X343052Y1903831D01*
X344881Y1911451D01*
X346049Y1919325D01*
X346456Y1927352D01*
X346049Y1935734D01*
X344881Y1943404D01*
X342950Y1950466D01*
X340360Y1956765D01*
X337159Y1962404D01*
X333451Y1967331D01*
X329184Y1971497D01*
X324510Y1974951D01*
X319430Y1977694D01*
X314045Y1979625D01*
X308406Y1980793D01*
G37*
G36*
X258825Y1850389D02*
G01*
X252374Y1850237D01*
X246227Y1849729D01*
X240334Y1848916D01*
X234696Y1847799D01*
X229362Y1846376D01*
X224282Y1844649D01*
X219557Y1842617D01*
X215087Y1840280D01*
X210972Y1837689D01*
X207162Y1834743D01*
X203657Y1831593D01*
X200507Y1828139D01*
X197662Y1824380D01*
X195224Y1820367D01*
X193090Y1816100D01*
X191363Y1811578D01*
X189992Y1806803D01*
X189026Y1801774D01*
X188417Y1796491D01*
X188223Y1791207D01*
X206502Y1791207D01*
X206857Y1797151D01*
X207924Y1802638D01*
X209651Y1807718D01*
X212090Y1812289D01*
X215239Y1816404D01*
X219049Y1820011D01*
X223520Y1823110D01*
X228650Y1825650D01*
X234492Y1827682D01*
X240944Y1829155D01*
X248056Y1830019D01*
X255778Y1830324D01*
X255778Y1745996D01*
X248310Y1747113D01*
X241350Y1748840D01*
X235000Y1751228D01*
X229209Y1754124D01*
X224078Y1757527D01*
X219506Y1761337D01*
X215646Y1765604D01*
X212394Y1770227D01*
X209854Y1775155D01*
X207975Y1780286D01*
X206857Y1785670D01*
X206502Y1791207D01*
X188223Y1791207D01*
X188417Y1785772D01*
X189128Y1780692D01*
X190246Y1775612D01*
X191770Y1770684D01*
X193751Y1765858D01*
X196138Y1761185D01*
X198882Y1756664D01*
X202082Y1752346D01*
X205638Y1748231D01*
X209550Y1744370D01*
X213867Y1740712D01*
X218490Y1737410D01*
X223520Y1734362D01*
X228854Y1731670D01*
X234492Y1729282D01*
X240487Y1727352D01*
X246786Y1725726D01*
X253390Y1724609D01*
X260299Y1723898D01*
X267462Y1723643D01*
X274777Y1723898D01*
X281787Y1724558D01*
X288442Y1725726D01*
X294792Y1727250D01*
X300786Y1729232D01*
X306476Y1731568D01*
X311810Y1734312D01*
X316788Y1737360D01*
X321360Y1740763D01*
X325628Y1744472D01*
X329488Y1748485D01*
X332994Y1752752D01*
X336092Y1757324D01*
X338785Y1762150D01*
X341122Y1767128D01*
X343001Y1772361D01*
X344525Y1777796D01*
X345592Y1783384D01*
X346252Y1789125D01*
X346456Y1795018D01*
X346151Y1802688D01*
X345236Y1809851D01*
X343865Y1816557D01*
X341985Y1822805D01*
X339699Y1828749D01*
X337108Y1834286D01*
X334264Y1839569D01*
X331216Y1844548D01*
X315976Y1836166D01*
X318719Y1831898D01*
X321157Y1827580D01*
X323240Y1823059D01*
X325069Y1818436D01*
X326491Y1813610D01*
X327558Y1808530D01*
X328218Y1803298D01*
X328422Y1797812D01*
X328168Y1792325D01*
X327406Y1787042D01*
X326136Y1782013D01*
X324408Y1777288D01*
X322224Y1772818D01*
X319582Y1768652D01*
X316534Y1764792D01*
X313080Y1761286D01*
X309168Y1758086D01*
X304952Y1755241D01*
X300380Y1752752D01*
X295402Y1750618D01*
X290169Y1748891D01*
X284581Y1747621D01*
X278688Y1746707D01*
X272542Y1746250D01*
X272542Y1849374D01*
X266242Y1850186D01*
G37*
G36*
X342900Y1703832D02*
G01*
X252475Y1651000D01*
X250596Y1657959D01*
X248158Y1664462D01*
X245262Y1670507D01*
X241808Y1676095D01*
X237896Y1681073D01*
X233375Y1685493D01*
X228396Y1689354D01*
X222808Y1692554D01*
X216712Y1695094D01*
X210058Y1696974D01*
X202844Y1698091D01*
X195072Y1698498D01*
X188976Y1698294D01*
X183286Y1697634D01*
X178003Y1696567D01*
X173075Y1695145D01*
X168554Y1693265D01*
X164338Y1691081D01*
X160528Y1688490D01*
X157022Y1685543D01*
X153873Y1682292D01*
X151028Y1678736D01*
X148539Y1674825D01*
X146304Y1670608D01*
X144373Y1666138D01*
X142748Y1661414D01*
X141376Y1656384D01*
X139446Y1645615D01*
X138531Y1633982D01*
X138430Y1588262D01*
X156972Y1588262D01*
X156972Y1624076D01*
X157175Y1632000D01*
X157835Y1639366D01*
X159004Y1646021D01*
X160629Y1652066D01*
X162814Y1657400D01*
X165557Y1662125D01*
X168859Y1666138D01*
X172770Y1669440D01*
X177342Y1672031D01*
X182524Y1673860D01*
X188468Y1675028D01*
X195072Y1675384D01*
X201625Y1675028D01*
X207619Y1673860D01*
X213004Y1672031D01*
X217779Y1669440D01*
X222046Y1666138D01*
X225704Y1662125D01*
X228752Y1657400D01*
X231292Y1652066D01*
X233222Y1646021D01*
X234594Y1639366D01*
X235458Y1632000D01*
X235712Y1624076D01*
X235712Y1588262D01*
X138430Y1588262D01*
X138430Y1565148D01*
X342900Y1565148D01*
X342900Y1588262D01*
X254508Y1588262D01*
X254508Y1626616D01*
X342900Y1677670D01*
G37*
G36*
X1055370Y3511042D02*
G01*
X1049375Y3510584D01*
X1043940Y3509213D01*
X1039012Y3507028D01*
X1034846Y3504082D01*
X1031392Y3500526D01*
X1028852Y3496360D01*
X1027226Y3491737D01*
X1026668Y3486658D01*
X1028395Y3477818D01*
X1032814Y3471214D01*
X1038860Y3466439D01*
X1045464Y3463036D01*
X1065276Y3454044D01*
X1070356Y3450742D01*
X1073708Y3446221D01*
X1074928Y3439922D01*
X1073556Y3433470D01*
X1069543Y3428390D01*
X1063142Y3425088D01*
X1054608Y3423920D01*
X1047292Y3424732D01*
X1040384Y3427120D01*
X1034034Y3430778D01*
X1028446Y3435604D01*
X1022096Y3428492D01*
X1028700Y3422751D01*
X1036319Y3418382D01*
X1044905Y3415537D01*
X1054354Y3414522D01*
X1061262Y3415029D01*
X1067358Y3416554D01*
X1072743Y3418992D01*
X1077214Y3422192D01*
X1080820Y3426053D01*
X1083411Y3430473D01*
X1085037Y3435400D01*
X1085596Y3440684D01*
X1084072Y3449828D01*
X1079957Y3456635D01*
X1073810Y3461715D01*
X1066292Y3465576D01*
X1052830Y3471164D01*
X1047394Y3473653D01*
X1042416Y3476904D01*
X1038758Y3481324D01*
X1037336Y3487420D01*
X1038656Y3493414D01*
X1042365Y3497884D01*
X1048054Y3500678D01*
X1055370Y3501644D01*
X1061669Y3501034D01*
X1067308Y3499307D01*
X1072388Y3496513D01*
X1076960Y3492754D01*
X1082294Y3499358D01*
X1076960Y3504082D01*
X1070660Y3507790D01*
X1063396Y3510178D01*
G37*
G36*
X1288034Y3511042D02*
G01*
X1282039Y3510584D01*
X1276604Y3509213D01*
X1271676Y3507028D01*
X1267510Y3504082D01*
X1264056Y3500526D01*
X1261516Y3496360D01*
X1259890Y3491737D01*
X1259332Y3486658D01*
X1261059Y3477818D01*
X1265478Y3471214D01*
X1271524Y3466439D01*
X1278128Y3463036D01*
X1297838Y3454044D01*
X1302918Y3450742D01*
X1306322Y3446221D01*
X1307592Y3439922D01*
X1306220Y3433470D01*
X1302207Y3428390D01*
X1295806Y3425088D01*
X1287272Y3423920D01*
X1279804Y3424732D01*
X1272844Y3427120D01*
X1266545Y3430778D01*
X1261110Y3435604D01*
X1254760Y3428492D01*
X1261364Y3422751D01*
X1268984Y3418382D01*
X1277569Y3415537D01*
X1287018Y3414522D01*
X1293926Y3415029D01*
X1300022Y3416554D01*
X1305407Y3418992D01*
X1309878Y3422192D01*
X1313484Y3426053D01*
X1316075Y3430473D01*
X1317701Y3435400D01*
X1318260Y3440684D01*
X1316736Y3449828D01*
X1312621Y3456635D01*
X1306474Y3461715D01*
X1298956Y3465576D01*
X1285494Y3471164D01*
X1280058Y3473653D01*
X1275080Y3476904D01*
X1271422Y3481324D01*
X1270000Y3487420D01*
X1271270Y3493414D01*
X1274927Y3497884D01*
X1280617Y3500678D01*
X1288034Y3501644D01*
X1294333Y3501034D01*
X1299972Y3499307D01*
X1305052Y3496513D01*
X1309624Y3492754D01*
X1314958Y3499358D01*
X1309624Y3504082D01*
X1303324Y3507790D01*
X1296060Y3510178D01*
G37*
G36*
X1372108Y3511042D02*
G01*
X1366418Y3510686D01*
X1360982Y3509568D01*
X1355852Y3507740D01*
X1351127Y3505200D01*
X1346809Y3501999D01*
X1342898Y3498138D01*
X1339494Y3493668D01*
X1336598Y3488639D01*
X1334312Y3482949D01*
X1332636Y3476751D01*
X1331569Y3470046D01*
X1331214Y3462782D01*
X1331569Y3455517D01*
X1332585Y3448812D01*
X1334262Y3442614D01*
X1336548Y3436924D01*
X1339342Y3431895D01*
X1342694Y3427425D01*
X1346504Y3423564D01*
X1350772Y3420364D01*
X1355445Y3417824D01*
X1360424Y3415995D01*
X1365758Y3414877D01*
X1371346Y3414522D01*
X1379880Y3415436D01*
X1387348Y3418128D01*
X1393850Y3422345D01*
X1399540Y3427984D01*
X1393952Y3434587D01*
X1389176Y3430015D01*
X1383944Y3426663D01*
X1378204Y3424631D01*
X1371854Y3423920D01*
X1365351Y3424631D01*
X1359509Y3426663D01*
X1354429Y3430015D01*
X1350162Y3434537D01*
X1346708Y3440176D01*
X1344218Y3446830D01*
X1342644Y3454501D01*
X1342136Y3463036D01*
X1342694Y3471570D01*
X1344269Y3479139D01*
X1346860Y3485743D01*
X1350365Y3491280D01*
X1354683Y3495700D01*
X1359814Y3498951D01*
X1365656Y3500983D01*
X1372108Y3501644D01*
X1378000Y3500983D01*
X1383182Y3499205D01*
X1387652Y3496411D01*
X1391412Y3492754D01*
X1397508Y3499612D01*
X1392885Y3503879D01*
X1387094Y3507536D01*
X1380134Y3510076D01*
G37*
G36*
X1104138Y3509264D02*
G01*
X1104138Y3500628D01*
X1126236Y3500628D01*
X1131620Y3500323D01*
X1136548Y3499510D01*
X1140968Y3498087D01*
X1144930Y3496208D01*
X1148384Y3493719D01*
X1151331Y3490772D01*
X1153871Y3487318D01*
X1155903Y3483406D01*
X1157478Y3478987D01*
X1158595Y3474110D01*
X1159306Y3468776D01*
X1159510Y3463036D01*
X1159306Y3457346D01*
X1158595Y3452012D01*
X1157478Y3447135D01*
X1155903Y3442665D01*
X1153871Y3438651D01*
X1151331Y3435146D01*
X1148384Y3432098D01*
X1144930Y3429558D01*
X1140968Y3427577D01*
X1136548Y3426104D01*
X1131620Y3425240D01*
X1126236Y3424936D01*
X1114806Y3424936D01*
X1114806Y3500628D01*
X1104138Y3500628D01*
X1104138Y3416300D01*
X1127506Y3416300D01*
X1134211Y3416655D01*
X1140409Y3417722D01*
X1145997Y3419500D01*
X1151077Y3421938D01*
X1155547Y3424986D01*
X1159459Y3428695D01*
X1162761Y3433013D01*
X1165504Y3437940D01*
X1167638Y3443427D01*
X1169212Y3449421D01*
X1170127Y3455974D01*
X1170432Y3463036D01*
X1170127Y3470097D01*
X1169212Y3476599D01*
X1167638Y3482594D01*
X1165504Y3487978D01*
X1162761Y3492855D01*
X1159357Y3497122D01*
X1155446Y3500729D01*
X1150924Y3503777D01*
X1145794Y3506165D01*
X1140104Y3507892D01*
X1133805Y3508908D01*
X1126998Y3509264D01*
G37*
G36*
X1417320Y3509264D02*
G01*
X1417320Y3416300D01*
X1427988Y3416300D01*
X1427988Y3446272D01*
X1444498Y3465829D01*
X1472946Y3416300D01*
X1484630Y3416300D01*
X1451356Y3473958D01*
X1480312Y3509264D01*
X1468374Y3509264D01*
X1428242Y3461258D01*
X1427988Y3461258D01*
X1427988Y3509264D01*
G37*
G36*
X1179576Y3405886D02*
G01*
X1179576Y3398774D01*
X1247140Y3398774D01*
X1247140Y3405886D01*
G37*
G36*
X1055370Y3257042D02*
G01*
X1049375Y3256584D01*
X1043940Y3255213D01*
X1039012Y3253028D01*
X1034846Y3250082D01*
X1031392Y3246526D01*
X1028852Y3242360D01*
X1027226Y3237738D01*
X1026668Y3232658D01*
X1028395Y3223818D01*
X1032814Y3217214D01*
X1038860Y3212439D01*
X1045464Y3209036D01*
X1065276Y3200044D01*
X1070356Y3196742D01*
X1073708Y3192221D01*
X1074928Y3185922D01*
X1073556Y3179470D01*
X1069543Y3174390D01*
X1063142Y3171088D01*
X1054608Y3169920D01*
X1047292Y3170732D01*
X1040384Y3173120D01*
X1034034Y3176778D01*
X1028446Y3181604D01*
X1022096Y3174492D01*
X1028700Y3168751D01*
X1036319Y3164382D01*
X1044905Y3161538D01*
X1054354Y3160522D01*
X1061262Y3161030D01*
X1067358Y3162554D01*
X1072743Y3164992D01*
X1077214Y3168192D01*
X1080820Y3172053D01*
X1083411Y3176473D01*
X1085037Y3181400D01*
X1085596Y3186684D01*
X1084072Y3195828D01*
X1079957Y3202635D01*
X1073810Y3207715D01*
X1066292Y3211576D01*
X1052830Y3217164D01*
X1047394Y3219653D01*
X1042416Y3222904D01*
X1038758Y3227324D01*
X1037336Y3233420D01*
X1038656Y3239414D01*
X1042365Y3243884D01*
X1048054Y3246678D01*
X1055370Y3247644D01*
X1061669Y3247034D01*
X1067308Y3245307D01*
X1072388Y3242513D01*
X1076960Y3238754D01*
X1082294Y3245358D01*
X1076960Y3250082D01*
X1070660Y3253790D01*
X1063396Y3256178D01*
G37*
G36*
X1426718Y3257042D02*
G01*
X1420723Y3256584D01*
X1415288Y3255213D01*
X1410360Y3253028D01*
X1406194Y3250082D01*
X1402740Y3246526D01*
X1400200Y3242360D01*
X1398574Y3237738D01*
X1398016Y3232658D01*
X1399743Y3223818D01*
X1404162Y3217214D01*
X1410208Y3212439D01*
X1416812Y3209036D01*
X1436522Y3200044D01*
X1441602Y3196742D01*
X1445006Y3192221D01*
X1446276Y3185922D01*
X1444853Y3179470D01*
X1440738Y3174390D01*
X1434287Y3171088D01*
X1425702Y3169920D01*
X1418386Y3170732D01*
X1411528Y3173120D01*
X1405229Y3176778D01*
X1399794Y3181604D01*
X1393444Y3174492D01*
X1399946Y3168751D01*
X1407566Y3164382D01*
X1416202Y3161538D01*
X1425702Y3160522D01*
X1432509Y3161030D01*
X1438605Y3162554D01*
X1443939Y3164992D01*
X1448460Y3168192D01*
X1452067Y3172053D01*
X1454759Y3176473D01*
X1456385Y3181400D01*
X1456944Y3186684D01*
X1455420Y3195828D01*
X1451305Y3202635D01*
X1445158Y3207715D01*
X1437640Y3211576D01*
X1424178Y3217164D01*
X1418742Y3219653D01*
X1413764Y3222904D01*
X1410106Y3227324D01*
X1408684Y3233420D01*
X1409954Y3239414D01*
X1413611Y3243884D01*
X1419301Y3246678D01*
X1426718Y3247644D01*
X1433017Y3247034D01*
X1438605Y3245307D01*
X1443634Y3242513D01*
X1448054Y3238754D01*
X1453642Y3245358D01*
X1448308Y3250082D01*
X1442008Y3253790D01*
X1434744Y3256178D01*
G37*
G36*
X1509268Y3257042D02*
G01*
X1503629Y3256686D01*
X1498346Y3255568D01*
X1493367Y3253740D01*
X1488795Y3251200D01*
X1484630Y3247999D01*
X1480921Y3244189D01*
X1477670Y3239719D01*
X1474978Y3234690D01*
X1472793Y3229051D01*
X1471218Y3222904D01*
X1470253Y3216198D01*
X1469898Y3209036D01*
X1480820Y3209036D01*
X1481328Y3217570D01*
X1482852Y3225139D01*
X1485290Y3231743D01*
X1488541Y3237280D01*
X1492656Y3241700D01*
X1497533Y3244951D01*
X1503070Y3246983D01*
X1509268Y3247644D01*
X1515465Y3246983D01*
X1521002Y3244951D01*
X1525879Y3241700D01*
X1529943Y3237280D01*
X1533245Y3231743D01*
X1535684Y3225139D01*
X1537208Y3217570D01*
X1537716Y3209036D01*
X1537208Y3200552D01*
X1535684Y3192983D01*
X1533245Y3186277D01*
X1529943Y3180638D01*
X1525879Y3176066D01*
X1521002Y3172714D01*
X1515465Y3170631D01*
X1509268Y3169920D01*
X1503070Y3170631D01*
X1497533Y3172714D01*
X1492656Y3176066D01*
X1488592Y3180638D01*
X1485290Y3186277D01*
X1482852Y3192983D01*
X1481328Y3200552D01*
X1480820Y3209036D01*
X1469898Y3209036D01*
X1470253Y3201873D01*
X1471218Y3195218D01*
X1472793Y3189020D01*
X1474978Y3183382D01*
X1477670Y3178251D01*
X1480921Y3173730D01*
X1484630Y3169818D01*
X1488795Y3166567D01*
X1493367Y3163976D01*
X1498346Y3162046D01*
X1503629Y3160928D01*
X1509268Y3160522D01*
X1514906Y3160928D01*
X1520190Y3162046D01*
X1525168Y3163976D01*
X1529740Y3166567D01*
X1533906Y3169818D01*
X1537614Y3173730D01*
X1540865Y3178251D01*
X1543558Y3183382D01*
X1545742Y3189020D01*
X1547317Y3195218D01*
X1548282Y3201873D01*
X1548638Y3209036D01*
X1548282Y3216198D01*
X1547317Y3222904D01*
X1545742Y3229051D01*
X1543558Y3234690D01*
X1540865Y3239719D01*
X1537614Y3244189D01*
X1533906Y3247999D01*
X1529740Y3251200D01*
X1525168Y3253740D01*
X1520190Y3255568D01*
X1514906Y3256686D01*
G37*
G36*
X1104138Y3255264D02*
G01*
X1104138Y3246628D01*
X1126236Y3246628D01*
X1131620Y3246323D01*
X1136548Y3245510D01*
X1140968Y3244088D01*
X1144930Y3242208D01*
X1148384Y3239719D01*
X1151331Y3236772D01*
X1153871Y3233318D01*
X1155903Y3229406D01*
X1157478Y3224987D01*
X1158595Y3220110D01*
X1159306Y3214776D01*
X1159510Y3209036D01*
X1159306Y3203346D01*
X1158595Y3198012D01*
X1157478Y3193135D01*
X1155903Y3188665D01*
X1153871Y3184652D01*
X1151331Y3181146D01*
X1148384Y3178098D01*
X1144930Y3175558D01*
X1140968Y3173577D01*
X1136548Y3172104D01*
X1131620Y3171240D01*
X1126236Y3170936D01*
X1114806Y3170936D01*
X1114806Y3246628D01*
X1104138Y3246628D01*
X1104138Y3162300D01*
X1127506Y3162300D01*
X1134211Y3162655D01*
X1140409Y3163722D01*
X1145997Y3165500D01*
X1151077Y3167938D01*
X1155547Y3170986D01*
X1159459Y3174695D01*
X1162761Y3179013D01*
X1165504Y3183940D01*
X1167638Y3189427D01*
X1169212Y3195421D01*
X1170127Y3201974D01*
X1170432Y3209036D01*
X1170127Y3216097D01*
X1169212Y3222599D01*
X1167638Y3228594D01*
X1165504Y3233978D01*
X1162761Y3238855D01*
X1159357Y3243122D01*
X1155446Y3246729D01*
X1150924Y3249777D01*
X1145794Y3252165D01*
X1140104Y3253892D01*
X1133805Y3254908D01*
X1126998Y3255264D01*
G37*
G36*
X1261618Y3255264D02*
G01*
X1261618Y3162300D01*
X1271270Y3162300D01*
X1271270Y3215894D01*
X1270711Y3229406D01*
X1269746Y3243072D01*
X1270254Y3243072D01*
X1295908Y3171952D01*
X1303274Y3171952D01*
X1321308Y3221736D01*
X1328674Y3243072D01*
X1329436Y3243072D01*
X1328369Y3229406D01*
X1327912Y3215894D01*
X1327912Y3162300D01*
X1337818Y3162300D01*
X1337818Y3255264D01*
X1324864Y3255264D01*
X1306576Y3204464D01*
X1300226Y3184652D01*
X1299464Y3184652D01*
X1292860Y3204464D01*
X1274572Y3255264D01*
G37*
G36*
X1363726Y3255264D02*
G01*
X1363726Y3162300D01*
X1374394Y3162300D01*
X1374394Y3255264D01*
G37*
G36*
X1179576Y3151886D02*
G01*
X1179576Y3144774D01*
X1247140Y3144774D01*
X1247140Y3151886D01*
G37*
G36*
X1055370Y3002788D02*
G01*
X1049375Y3002330D01*
X1043940Y3000959D01*
X1039012Y2998825D01*
X1034846Y2995980D01*
X1031392Y2992424D01*
X1028852Y2988310D01*
X1027226Y2983687D01*
X1026668Y2978658D01*
X1028395Y2969818D01*
X1032814Y2963214D01*
X1038860Y2958439D01*
X1045464Y2955036D01*
X1059180Y2949194D01*
X1065377Y2946196D01*
X1070406Y2942742D01*
X1073708Y2938221D01*
X1074928Y2931922D01*
X1073505Y2925368D01*
X1069390Y2920288D01*
X1062939Y2917088D01*
X1054354Y2915920D01*
X1047191Y2916732D01*
X1040333Y2919120D01*
X1034034Y2922778D01*
X1028446Y2927604D01*
X1022096Y2920492D01*
X1028598Y2914650D01*
X1036218Y2910281D01*
X1044854Y2907487D01*
X1054354Y2906522D01*
X1061161Y2907030D01*
X1067257Y2908554D01*
X1072591Y2910992D01*
X1077112Y2914192D01*
X1080719Y2918053D01*
X1083411Y2922473D01*
X1085037Y2927400D01*
X1085596Y2932684D01*
X1084072Y2941828D01*
X1079957Y2948635D01*
X1073810Y2953715D01*
X1066292Y2957576D01*
X1052830Y2963164D01*
X1047394Y2965653D01*
X1042416Y2968904D01*
X1038758Y2973324D01*
X1037336Y2979420D01*
X1038656Y2985262D01*
X1042365Y2989783D01*
X1048054Y2992628D01*
X1055370Y2993644D01*
X1061669Y2992983D01*
X1067257Y2991205D01*
X1072286Y2988411D01*
X1076706Y2984754D01*
X1082294Y2991612D01*
X1076960Y2996133D01*
X1070660Y2999689D01*
X1063396Y3001975D01*
G37*
G36*
X1397508Y3002788D02*
G01*
X1391920Y3002432D01*
X1386687Y3001314D01*
X1381760Y2999486D01*
X1377188Y2996996D01*
X1373073Y2993847D01*
X1369364Y2990037D01*
X1366164Y2985617D01*
X1363472Y2980639D01*
X1361287Y2975051D01*
X1359712Y2968904D01*
X1358747Y2962198D01*
X1358392Y2955036D01*
X1369060Y2955036D01*
X1369568Y2963570D01*
X1371092Y2971139D01*
X1373581Y2977743D01*
X1376883Y2983280D01*
X1381048Y2987700D01*
X1385874Y2990951D01*
X1391412Y2992983D01*
X1397508Y2993644D01*
X1403705Y2992983D01*
X1409293Y2990951D01*
X1414170Y2987700D01*
X1418336Y2983280D01*
X1421688Y2977743D01*
X1424178Y2971139D01*
X1425702Y2963570D01*
X1426210Y2955036D01*
X1425702Y2946552D01*
X1424178Y2938983D01*
X1421688Y2932277D01*
X1418336Y2926638D01*
X1414170Y2922066D01*
X1409293Y2918714D01*
X1403705Y2916631D01*
X1397508Y2915920D01*
X1391412Y2916631D01*
X1385874Y2918714D01*
X1381048Y2922066D01*
X1376883Y2926638D01*
X1373581Y2932277D01*
X1371092Y2938983D01*
X1369568Y2946552D01*
X1369060Y2955036D01*
X1358392Y2955036D01*
X1358747Y2947873D01*
X1359712Y2941218D01*
X1361287Y2935020D01*
X1363472Y2929382D01*
X1366164Y2924251D01*
X1369364Y2919730D01*
X1373073Y2915818D01*
X1377188Y2912567D01*
X1381760Y2909976D01*
X1386687Y2908046D01*
X1391920Y2906928D01*
X1397508Y2906522D01*
X1403146Y2906928D01*
X1408430Y2908046D01*
X1413408Y2909976D01*
X1417980Y2912567D01*
X1422146Y2915818D01*
X1425854Y2919730D01*
X1429105Y2924251D01*
X1431798Y2929382D01*
X1433982Y2935020D01*
X1435557Y2941218D01*
X1436522Y2947873D01*
X1436878Y2955036D01*
X1436522Y2962198D01*
X1435557Y2968904D01*
X1433982Y2975051D01*
X1431798Y2980639D01*
X1429105Y2985617D01*
X1425854Y2990037D01*
X1422146Y2993847D01*
X1417980Y2996996D01*
X1413408Y2999486D01*
X1408430Y3001314D01*
X1403146Y3002432D01*
G37*
G36*
X1483868Y3002788D02*
G01*
X1477873Y3002330D01*
X1472438Y3000959D01*
X1467510Y2998825D01*
X1463344Y2995980D01*
X1459890Y2992424D01*
X1457350Y2988310D01*
X1455724Y2983687D01*
X1455166Y2978658D01*
X1456893Y2969818D01*
X1461312Y2963214D01*
X1467358Y2958439D01*
X1473962Y2955036D01*
X1487424Y2949194D01*
X1493672Y2946196D01*
X1498752Y2942742D01*
X1502156Y2938221D01*
X1503426Y2931922D01*
X1502003Y2925368D01*
X1497888Y2920288D01*
X1491437Y2917088D01*
X1482852Y2915920D01*
X1475536Y2916732D01*
X1468678Y2919120D01*
X1462379Y2922778D01*
X1456944Y2927604D01*
X1450594Y2920492D01*
X1457096Y2914650D01*
X1464716Y2910281D01*
X1473352Y2907487D01*
X1482852Y2906522D01*
X1489659Y2907030D01*
X1495755Y2908554D01*
X1501089Y2910992D01*
X1505610Y2914192D01*
X1509217Y2918053D01*
X1511909Y2922473D01*
X1513535Y2927400D01*
X1514094Y2932684D01*
X1512570Y2941828D01*
X1508455Y2948635D01*
X1502308Y2953715D01*
X1494790Y2957576D01*
X1481328Y2963164D01*
X1475892Y2965653D01*
X1470914Y2968904D01*
X1467256Y2973324D01*
X1465834Y2979420D01*
X1467104Y2985262D01*
X1470761Y2989783D01*
X1476451Y2992628D01*
X1483868Y2993644D01*
X1490167Y2992983D01*
X1495755Y2991205D01*
X1500784Y2988411D01*
X1505204Y2984754D01*
X1510792Y2991612D01*
X1505458Y2996133D01*
X1499158Y2999689D01*
X1491894Y3001975D01*
G37*
G36*
X1104138Y3001264D02*
G01*
X1104138Y2992628D01*
X1126236Y2992628D01*
X1131620Y2992323D01*
X1136548Y2991510D01*
X1140968Y2990088D01*
X1144930Y2988208D01*
X1148384Y2985719D01*
X1151331Y2982772D01*
X1153871Y2979318D01*
X1155903Y2975406D01*
X1157478Y2970987D01*
X1158595Y2966110D01*
X1159306Y2960776D01*
X1159510Y2955036D01*
X1159306Y2949346D01*
X1158595Y2944012D01*
X1157478Y2939135D01*
X1155903Y2934665D01*
X1153871Y2930652D01*
X1151331Y2927146D01*
X1148384Y2924098D01*
X1144930Y2921558D01*
X1140968Y2919577D01*
X1136548Y2918104D01*
X1131620Y2917240D01*
X1126236Y2916936D01*
X1114806Y2916936D01*
X1114806Y2992628D01*
X1104138Y2992628D01*
X1104138Y2908300D01*
X1127506Y2908300D01*
X1134211Y2908655D01*
X1140409Y2909773D01*
X1145997Y2911551D01*
X1151077Y2913989D01*
X1155547Y2917088D01*
X1159459Y2920796D01*
X1162761Y2925114D01*
X1165504Y2930042D01*
X1167638Y2935528D01*
X1169212Y2941523D01*
X1170127Y2948025D01*
X1170432Y2955036D01*
X1170127Y2962097D01*
X1169212Y2968599D01*
X1167638Y2974594D01*
X1165504Y2979978D01*
X1162761Y2984855D01*
X1159357Y2989122D01*
X1155446Y2992729D01*
X1150924Y2995777D01*
X1145794Y2998165D01*
X1140104Y2999892D01*
X1133805Y3000908D01*
X1126998Y3001264D01*
G37*
G36*
X1261618Y3001264D02*
G01*
X1261618Y2908300D01*
X1271270Y2908300D01*
X1271270Y2961894D01*
X1270711Y2975457D01*
X1269746Y2989072D01*
X1270254Y2989072D01*
X1295908Y2917952D01*
X1303274Y2917952D01*
X1321308Y2967736D01*
X1328674Y2989072D01*
X1329436Y2989072D01*
X1328369Y2975457D01*
X1327912Y2961894D01*
X1327912Y2908300D01*
X1337818Y2908300D01*
X1337818Y3001264D01*
X1324864Y3001264D01*
X1306576Y2950464D01*
X1300226Y2930652D01*
X1299464Y2930652D01*
X1292860Y2950464D01*
X1274572Y3001264D01*
G37*
G36*
X1532636Y3001264D02*
G01*
X1532636Y2908300D01*
X1543050Y2908300D01*
X1543050Y3001264D01*
G37*
G36*
X1179576Y2897886D02*
G01*
X1179576Y2890774D01*
X1247140Y2890774D01*
X1247140Y2897886D01*
G37*
G36*
X1055370Y2748788D02*
G01*
X1049375Y2748330D01*
X1043940Y2746959D01*
X1039012Y2744825D01*
X1034846Y2741980D01*
X1031392Y2738424D01*
X1028852Y2734310D01*
X1027226Y2729687D01*
X1026668Y2724658D01*
X1028395Y2715818D01*
X1032814Y2709214D01*
X1038860Y2704439D01*
X1045464Y2701036D01*
X1059180Y2695194D01*
X1065377Y2692196D01*
X1070406Y2688742D01*
X1073708Y2684221D01*
X1074928Y2677922D01*
X1073505Y2671368D01*
X1069390Y2666288D01*
X1062939Y2663088D01*
X1054354Y2661920D01*
X1047191Y2662732D01*
X1040333Y2665120D01*
X1034034Y2668778D01*
X1028446Y2673604D01*
X1022096Y2666492D01*
X1028598Y2660650D01*
X1036218Y2656281D01*
X1044854Y2653487D01*
X1054354Y2652522D01*
X1061161Y2653030D01*
X1067257Y2654554D01*
X1072591Y2656992D01*
X1077112Y2660192D01*
X1080719Y2664053D01*
X1083411Y2668473D01*
X1085037Y2673400D01*
X1085596Y2678684D01*
X1084072Y2687828D01*
X1079957Y2694635D01*
X1073810Y2699715D01*
X1066292Y2703576D01*
X1052830Y2709164D01*
X1047394Y2711653D01*
X1042416Y2714904D01*
X1038758Y2719324D01*
X1037336Y2725420D01*
X1038656Y2731262D01*
X1042365Y2735783D01*
X1048054Y2738628D01*
X1055370Y2739644D01*
X1061669Y2738983D01*
X1067257Y2737205D01*
X1072286Y2734411D01*
X1076706Y2730754D01*
X1082294Y2737612D01*
X1076960Y2742133D01*
X1070660Y2745689D01*
X1063396Y2747975D01*
G37*
G36*
X1296924Y2748788D02*
G01*
X1291132Y2748432D01*
X1285697Y2747314D01*
X1280566Y2745486D01*
X1275842Y2742996D01*
X1271473Y2739847D01*
X1267612Y2736037D01*
X1264259Y2731566D01*
X1261364Y2726537D01*
X1259078Y2720949D01*
X1257401Y2714752D01*
X1256385Y2708046D01*
X1256030Y2700782D01*
X1256385Y2693466D01*
X1257401Y2686710D01*
X1259078Y2680512D01*
X1261364Y2674823D01*
X1264158Y2669794D01*
X1267510Y2665323D01*
X1271320Y2661513D01*
X1275588Y2658313D01*
X1280261Y2655824D01*
X1285240Y2653995D01*
X1290574Y2652877D01*
X1296162Y2652522D01*
X1304594Y2653436D01*
X1312062Y2656128D01*
X1318615Y2660345D01*
X1324356Y2665984D01*
X1318514Y2672588D01*
X1313789Y2668016D01*
X1308658Y2664663D01*
X1302969Y2662631D01*
X1296670Y2661920D01*
X1290167Y2662631D01*
X1284325Y2664663D01*
X1279245Y2667914D01*
X1274978Y2672435D01*
X1271524Y2678074D01*
X1269034Y2684729D01*
X1267460Y2692450D01*
X1266952Y2701036D01*
X1267510Y2709570D01*
X1269085Y2717139D01*
X1271676Y2723743D01*
X1275181Y2729280D01*
X1279601Y2733700D01*
X1284732Y2736951D01*
X1290624Y2738983D01*
X1297178Y2739644D01*
X1302816Y2738983D01*
X1307846Y2737205D01*
X1312316Y2734411D01*
X1316228Y2730754D01*
X1322070Y2737612D01*
X1317447Y2741828D01*
X1311706Y2745384D01*
X1304798Y2747873D01*
G37*
G36*
X1365250Y2748788D02*
G01*
X1359255Y2748330D01*
X1353820Y2746959D01*
X1348892Y2744825D01*
X1344726Y2741980D01*
X1341272Y2738424D01*
X1338732Y2734310D01*
X1337106Y2729687D01*
X1336548Y2724658D01*
X1338275Y2715818D01*
X1342694Y2709214D01*
X1348740Y2704439D01*
X1355344Y2701036D01*
X1368806Y2695194D01*
X1375054Y2692196D01*
X1380134Y2688742D01*
X1383538Y2684221D01*
X1384808Y2677922D01*
X1383385Y2671368D01*
X1379270Y2666288D01*
X1372819Y2663088D01*
X1364234Y2661920D01*
X1356918Y2662732D01*
X1350060Y2665120D01*
X1343761Y2668778D01*
X1338326Y2673604D01*
X1331976Y2666492D01*
X1338478Y2660650D01*
X1346098Y2656281D01*
X1354734Y2653487D01*
X1364234Y2652522D01*
X1371041Y2653030D01*
X1377137Y2654554D01*
X1382471Y2656992D01*
X1386992Y2660192D01*
X1390599Y2664053D01*
X1393291Y2668473D01*
X1394917Y2673400D01*
X1395476Y2678684D01*
X1393952Y2687828D01*
X1389837Y2694635D01*
X1383690Y2699715D01*
X1376172Y2703576D01*
X1362710Y2709164D01*
X1357274Y2711653D01*
X1352296Y2714904D01*
X1348638Y2719324D01*
X1347216Y2725420D01*
X1348486Y2731262D01*
X1352143Y2735783D01*
X1357833Y2738628D01*
X1365250Y2739644D01*
X1371549Y2738983D01*
X1377137Y2737205D01*
X1382166Y2734411D01*
X1386586Y2730754D01*
X1392174Y2737612D01*
X1386840Y2742133D01*
X1380540Y2745689D01*
X1373276Y2747975D01*
G37*
G36*
X1104138Y2747264D02*
G01*
X1104138Y2738628D01*
X1126236Y2738628D01*
X1131570Y2738323D01*
X1136497Y2737510D01*
X1140917Y2736088D01*
X1144879Y2734208D01*
X1148334Y2731719D01*
X1151382Y2728772D01*
X1153922Y2725318D01*
X1156055Y2721406D01*
X1157681Y2716987D01*
X1158849Y2712110D01*
X1159510Y2706776D01*
X1159764Y2701036D01*
X1159510Y2695346D01*
X1158849Y2690012D01*
X1157681Y2685135D01*
X1156055Y2680665D01*
X1153922Y2676652D01*
X1151382Y2673146D01*
X1148334Y2670098D01*
X1144879Y2667558D01*
X1140917Y2665577D01*
X1136497Y2664104D01*
X1131570Y2663240D01*
X1126236Y2662936D01*
X1114806Y2662936D01*
X1114806Y2738628D01*
X1104138Y2738628D01*
X1104138Y2654300D01*
X1127506Y2654300D01*
X1134211Y2654655D01*
X1140409Y2655773D01*
X1145997Y2657551D01*
X1151077Y2659989D01*
X1155547Y2663088D01*
X1159459Y2666796D01*
X1162761Y2671114D01*
X1165504Y2676042D01*
X1167638Y2681528D01*
X1169212Y2687523D01*
X1170127Y2694025D01*
X1170432Y2701036D01*
X1170127Y2708097D01*
X1169212Y2714599D01*
X1167638Y2720594D01*
X1165504Y2725978D01*
X1162761Y2730855D01*
X1159357Y2735122D01*
X1155446Y2738729D01*
X1150924Y2741777D01*
X1145794Y2744165D01*
X1140104Y2745892D01*
X1133805Y2746908D01*
X1126998Y2747264D01*
G37*
G36*
X1179576Y2643886D02*
G01*
X1179576Y2636774D01*
X1246886Y2636774D01*
X1246886Y2643886D01*
G37*
G36*
X8498992Y1475638D02*
G01*
X8493201Y1475232D01*
X8487765Y1474114D01*
X8482634Y1472285D01*
X8477910Y1469796D01*
X8473541Y1466596D01*
X8469680Y1462786D01*
X8466328Y1458315D01*
X8463432Y1453286D01*
X8461146Y1447647D01*
X8459470Y1441500D01*
X8458454Y1434795D01*
X8458098Y1427632D01*
X8458454Y1420317D01*
X8459470Y1413560D01*
X8461095Y1407312D01*
X8463381Y1401673D01*
X8466175Y1396593D01*
X8469477Y1392174D01*
X8473287Y1388313D01*
X8477554Y1385163D01*
X8482228Y1382674D01*
X8487206Y1380845D01*
X8492591Y1379728D01*
X8498230Y1379372D01*
X8506663Y1380236D01*
X8514130Y1382877D01*
X8520684Y1387094D01*
X8526424Y1392834D01*
X8520582Y1399438D01*
X8515858Y1394866D01*
X8510727Y1391513D01*
X8505037Y1389481D01*
X8498738Y1388770D01*
X8492236Y1389430D01*
X8486394Y1391462D01*
X8481314Y1394764D01*
X8477046Y1399286D01*
X8473592Y1404874D01*
X8471103Y1411579D01*
X8469528Y1419250D01*
X8469020Y1427886D01*
X8469579Y1436370D01*
X8471154Y1443990D01*
X8473744Y1450594D01*
X8477250Y1456131D01*
X8481568Y1460550D01*
X8486698Y1463802D01*
X8492540Y1465783D01*
X8498992Y1466494D01*
X8504783Y1465834D01*
X8509863Y1464056D01*
X8514384Y1461211D01*
X8518296Y1457604D01*
X8524138Y1464462D01*
X8519515Y1468678D01*
X8513775Y1472234D01*
X8506866Y1474724D01*
G37*
G36*
X8575700Y1475638D02*
G01*
X8569909Y1475232D01*
X8564473Y1474114D01*
X8559342Y1472285D01*
X8554618Y1469796D01*
X8550249Y1466596D01*
X8546388Y1462786D01*
X8543036Y1458315D01*
X8540140Y1453286D01*
X8537854Y1447647D01*
X8536178Y1441500D01*
X8535162Y1434795D01*
X8534806Y1427632D01*
X8535162Y1420317D01*
X8536178Y1413560D01*
X8537803Y1407312D01*
X8540089Y1401673D01*
X8542883Y1396593D01*
X8546185Y1392174D01*
X8549995Y1388313D01*
X8554262Y1385163D01*
X8558936Y1382674D01*
X8563914Y1380845D01*
X8569299Y1379728D01*
X8574938Y1379372D01*
X8583371Y1380236D01*
X8590838Y1382877D01*
X8597392Y1387094D01*
X8603132Y1392834D01*
X8597290Y1399438D01*
X8592566Y1394866D01*
X8587435Y1391513D01*
X8581745Y1389481D01*
X8575446Y1388770D01*
X8568944Y1389430D01*
X8563102Y1391462D01*
X8558022Y1394764D01*
X8553704Y1399286D01*
X8550300Y1404874D01*
X8547811Y1411579D01*
X8546236Y1419250D01*
X8545728Y1427886D01*
X8546287Y1436370D01*
X8547862Y1443990D01*
X8550452Y1450594D01*
X8553958Y1456131D01*
X8558276Y1460550D01*
X8563406Y1463802D01*
X8569248Y1465783D01*
X8575700Y1466494D01*
X8581491Y1465834D01*
X8586571Y1464056D01*
X8591092Y1461211D01*
X8595004Y1457604D01*
X8600846Y1464462D01*
X8596223Y1468678D01*
X8590483Y1472234D01*
X8583574Y1474724D01*
G37*
G36*
X8380374Y1474114D02*
G01*
X8410092Y1381150D01*
X8422284Y1381150D01*
X8452002Y1474114D01*
X8441334Y1474114D01*
X8423503Y1414830D01*
X8419185Y1399895D01*
X8416696Y1392072D01*
X8416188Y1392072D01*
X8411514Y1407312D01*
X8407044Y1422806D01*
X8391296Y1474114D01*
G37*
G36*
X8429650Y1729638D02*
G01*
X8423706Y1729232D01*
X8418068Y1728114D01*
X8412784Y1726285D01*
X8407857Y1723796D01*
X8403437Y1720596D01*
X8399424Y1716786D01*
X8395919Y1712315D01*
X8393023Y1707286D01*
X8390636Y1701647D01*
X8388908Y1695500D01*
X8387842Y1688795D01*
X8387486Y1681632D01*
X8387842Y1674317D01*
X8388858Y1667560D01*
X8390585Y1661312D01*
X8392871Y1655673D01*
X8395716Y1650593D01*
X8399119Y1646174D01*
X8403031Y1642313D01*
X8407450Y1639163D01*
X8412226Y1636674D01*
X8417458Y1634845D01*
X8422995Y1633728D01*
X8428888Y1633372D01*
X8437778Y1634185D01*
X8445601Y1636420D01*
X8452154Y1639773D01*
X8457336Y1644040D01*
X8457336Y1682648D01*
X8427364Y1682648D01*
X8427364Y1674012D01*
X8447684Y1674012D01*
X8447684Y1648612D01*
X8444280Y1646072D01*
X8440013Y1644243D01*
X8435136Y1643125D01*
X8429904Y1642770D01*
X8422792Y1643430D01*
X8416493Y1645462D01*
X8411108Y1648764D01*
X8406638Y1653286D01*
X8403082Y1658874D01*
X8400491Y1665579D01*
X8398916Y1673250D01*
X8398408Y1681886D01*
X8398967Y1690370D01*
X8400592Y1697989D01*
X8403285Y1704593D01*
X8406892Y1710131D01*
X8411464Y1714550D01*
X8416848Y1717802D01*
X8422995Y1719783D01*
X8429904Y1720494D01*
X8436508Y1719783D01*
X8441994Y1717852D01*
X8446566Y1715007D01*
X8450478Y1711604D01*
X8456320Y1718462D01*
X8451748Y1722424D01*
X8445855Y1726031D01*
X8438540Y1728622D01*
G37*
G36*
X8479942Y1728114D02*
G01*
X8479942Y1635150D01*
X8489848Y1635150D01*
X8489746Y1693113D01*
X8488578Y1714398D01*
X8489086Y1714398D01*
X8499246Y1695348D01*
X8534298Y1635150D01*
X8545220Y1635150D01*
X8545220Y1728114D01*
X8535060Y1728114D01*
X8535060Y1677822D01*
X8535517Y1663141D01*
X8536584Y1648866D01*
X8535822Y1648866D01*
X8525916Y1667916D01*
X8490610Y1728114D01*
G37*
G36*
X8571128Y1728114D02*
G01*
X8571128Y1719478D01*
X8592972Y1719478D01*
X8598357Y1719173D01*
X8603284Y1718360D01*
X8607755Y1716938D01*
X8611717Y1715007D01*
X8615222Y1712569D01*
X8618220Y1709623D01*
X8620760Y1706168D01*
X8622842Y1702206D01*
X8624417Y1697837D01*
X8625586Y1692960D01*
X8626297Y1687626D01*
X8626500Y1681886D01*
X8626297Y1676146D01*
X8625586Y1670862D01*
X8624417Y1665935D01*
X8622842Y1661515D01*
X8620760Y1657502D01*
X8618220Y1653946D01*
X8615222Y1650949D01*
X8611717Y1648409D01*
X8607755Y1646428D01*
X8603284Y1644954D01*
X8598357Y1644091D01*
X8592972Y1643786D01*
X8581542Y1643786D01*
X8581542Y1719478D01*
X8571128Y1719478D01*
X8571128Y1635150D01*
X8594242Y1635150D01*
X8600998Y1635506D01*
X8607247Y1636572D01*
X8612886Y1638350D01*
X8617966Y1640738D01*
X8622487Y1643837D01*
X8626398Y1647545D01*
X8629751Y1651863D01*
X8632494Y1656791D01*
X8634628Y1662226D01*
X8636203Y1668272D01*
X8637117Y1674825D01*
X8637422Y1681886D01*
X8637117Y1688896D01*
X8636203Y1695450D01*
X8634628Y1701444D01*
X8632494Y1706829D01*
X8629751Y1711706D01*
X8626398Y1715922D01*
X8622436Y1719580D01*
X8617915Y1722628D01*
X8612784Y1724964D01*
X8607094Y1726692D01*
X8600795Y1727758D01*
X8593988Y1728114D01*
G37*
G36*
X8428380Y1983638D02*
G01*
X8422589Y1983232D01*
X8417153Y1982114D01*
X8412022Y1980285D01*
X8407298Y1977796D01*
X8402929Y1974596D01*
X8399068Y1970786D01*
X8395716Y1966315D01*
X8392820Y1961286D01*
X8390534Y1955647D01*
X8388858Y1949500D01*
X8387842Y1942795D01*
X8387486Y1935632D01*
X8387842Y1928317D01*
X8388858Y1921560D01*
X8390483Y1915312D01*
X8392769Y1909673D01*
X8395563Y1904593D01*
X8398865Y1900174D01*
X8402675Y1896313D01*
X8406942Y1893163D01*
X8411616Y1890674D01*
X8416594Y1888845D01*
X8421979Y1887728D01*
X8427618Y1887372D01*
X8436051Y1888236D01*
X8443518Y1890877D01*
X8450072Y1895093D01*
X8455812Y1900834D01*
X8449970Y1907438D01*
X8445246Y1902866D01*
X8440115Y1899513D01*
X8434425Y1897481D01*
X8428126Y1896770D01*
X8421624Y1897430D01*
X8415782Y1899462D01*
X8410702Y1902764D01*
X8406384Y1907286D01*
X8402980Y1912874D01*
X8400491Y1919579D01*
X8398916Y1927250D01*
X8398408Y1935886D01*
X8398967Y1944370D01*
X8400542Y1951989D01*
X8403132Y1958593D01*
X8406638Y1964131D01*
X8410956Y1968550D01*
X8416086Y1971802D01*
X8421928Y1973783D01*
X8428380Y1974494D01*
X8434171Y1973834D01*
X8439251Y1972056D01*
X8443772Y1969211D01*
X8447684Y1965604D01*
X8453526Y1972462D01*
X8448903Y1976678D01*
X8443163Y1980234D01*
X8436254Y1982724D01*
G37*
G36*
X8496706Y1983638D02*
G01*
X8490712Y1983181D01*
X8485276Y1981809D01*
X8480348Y1979675D01*
X8476183Y1976780D01*
X8472728Y1973275D01*
X8470188Y1969160D01*
X8468563Y1964537D01*
X8468004Y1959508D01*
X8469731Y1950516D01*
X8474151Y1943862D01*
X8480196Y1939137D01*
X8486800Y1935886D01*
X8506510Y1926894D01*
X8511590Y1923542D01*
X8514994Y1919071D01*
X8516264Y1912772D01*
X8514842Y1906168D01*
X8510727Y1901139D01*
X8504275Y1897888D01*
X8495690Y1896770D01*
X8488375Y1897583D01*
X8481517Y1899920D01*
X8475218Y1903628D01*
X8469782Y1908454D01*
X8463432Y1901342D01*
X8469934Y1895500D01*
X8477554Y1891080D01*
X8486190Y1888337D01*
X8495690Y1887372D01*
X8502497Y1887880D01*
X8508593Y1889353D01*
X8513927Y1891741D01*
X8518448Y1894941D01*
X8522055Y1898751D01*
X8524748Y1903222D01*
X8526373Y1908149D01*
X8526932Y1913534D01*
X8525408Y1922525D01*
X8521293Y1929282D01*
X8515146Y1934413D01*
X8507628Y1938426D01*
X8488730Y1946452D01*
X8483752Y1949653D01*
X8480094Y1954072D01*
X8478672Y1960270D01*
X8479942Y1966112D01*
X8483600Y1970633D01*
X8489289Y1973478D01*
X8496706Y1974494D01*
X8503005Y1973834D01*
X8508593Y1972056D01*
X8513622Y1969211D01*
X8518042Y1965604D01*
X8523630Y1972208D01*
X8518296Y1976882D01*
X8511997Y1980488D01*
X8504732Y1982825D01*
G37*
G36*
X8573160Y2237638D02*
G01*
X8567166Y2237181D01*
X8561730Y2235809D01*
X8556802Y2233676D01*
X8552637Y2230780D01*
X8549182Y2227275D01*
X8546642Y2223160D01*
X8545017Y2218537D01*
X8544458Y2213508D01*
X8546236Y2204516D01*
X8550757Y2197862D01*
X8556904Y2193137D01*
X8563508Y2189886D01*
X8583168Y2180894D01*
X8588197Y2177542D01*
X8591499Y2173071D01*
X8592718Y2166772D01*
X8591346Y2160168D01*
X8587333Y2155139D01*
X8580932Y2151888D01*
X8572398Y2150770D01*
X8565083Y2151583D01*
X8558174Y2153920D01*
X8551824Y2157628D01*
X8546236Y2162454D01*
X8539886Y2155342D01*
X8546490Y2149500D01*
X8554110Y2145080D01*
X8562695Y2142337D01*
X8572144Y2141372D01*
X8579053Y2141880D01*
X8585149Y2143353D01*
X8590534Y2145741D01*
X8595004Y2148941D01*
X8598611Y2152751D01*
X8601202Y2157222D01*
X8602827Y2162149D01*
X8603386Y2167534D01*
X8601862Y2176526D01*
X8597747Y2183282D01*
X8591600Y2188413D01*
X8584082Y2192426D01*
X8565184Y2200452D01*
X8560206Y2203653D01*
X8556548Y2208072D01*
X8555126Y2214270D01*
X8556447Y2220112D01*
X8560155Y2224633D01*
X8565845Y2227478D01*
X8573160Y2228494D01*
X8579459Y2227834D01*
X8585098Y2226056D01*
X8590178Y2223211D01*
X8594750Y2219604D01*
X8600338Y2226208D01*
X8595004Y2230882D01*
X8588552Y2234488D01*
X8581237Y2236825D01*
G37*
G36*
X8393074Y2236114D02*
G01*
X8393074Y2227478D01*
X8419744Y2227478D01*
X8429701Y2226564D01*
X8437067Y2223617D01*
X8441588Y2218232D01*
X8443112Y2210206D01*
X8441588Y2202078D01*
X8437067Y2196388D01*
X8429701Y2193036D01*
X8419744Y2191918D01*
X8403488Y2191918D01*
X8403488Y2227478D01*
X8393074Y2227478D01*
X8393074Y2143150D01*
X8403488Y2143150D01*
X8403488Y2183282D01*
X8421014Y2183282D01*
X8444128Y2143150D01*
X8456066Y2143150D01*
X8431936Y2184298D01*
X8436660Y2185619D01*
X8440877Y2187498D01*
X8444585Y2189886D01*
X8447684Y2192883D01*
X8450173Y2196388D01*
X8452002Y2200452D01*
X8453120Y2205024D01*
X8453526Y2210206D01*
X8452916Y2216759D01*
X8451189Y2222296D01*
X8448344Y2226767D01*
X8444585Y2230272D01*
X8439912Y2232914D01*
X8434476Y2234742D01*
X8428278Y2235758D01*
X8421522Y2236114D01*
G37*
G36*
X8472576Y2236114D02*
G01*
X8472576Y2143150D01*
X8526932Y2143150D01*
X8526932Y2152040D01*
X8483244Y2152040D01*
X8483244Y2187600D01*
X8518804Y2187600D01*
X8518804Y2196490D01*
X8483244Y2196490D01*
X8483244Y2227224D01*
X8525662Y2227224D01*
X8525662Y2236114D01*
G37*
G36*
X8621928Y2236114D02*
G01*
X8621928Y2143150D01*
X8676284Y2143150D01*
X8676284Y2152040D01*
X8632596Y2152040D01*
X8632596Y2187600D01*
X8668156Y2187600D01*
X8668156Y2196490D01*
X8632596Y2196490D01*
X8632596Y2227224D01*
X8675014Y2227224D01*
X8675014Y2236114D01*
G37*
G36*
X8687206Y2236114D02*
G01*
X8687206Y2227224D01*
X8715654Y2227224D01*
X8715654Y2143150D01*
X8726322Y2143150D01*
X8726322Y2227224D01*
X8754770Y2227224D01*
X8754770Y2236114D01*
G37*
G36*
X8514994Y2491638D02*
G01*
X8509304Y2491232D01*
X8503869Y2490114D01*
X8498789Y2488285D01*
X8494064Y2485796D01*
X8489746Y2482596D01*
X8485936Y2478786D01*
X8482533Y2474315D01*
X8479688Y2469286D01*
X8477402Y2463647D01*
X8475726Y2457500D01*
X8474710Y2450795D01*
X8474354Y2443632D01*
X8474710Y2436317D01*
X8475726Y2429560D01*
X8477351Y2423312D01*
X8479637Y2417673D01*
X8482431Y2412593D01*
X8485733Y2408174D01*
X8489492Y2404313D01*
X8493709Y2401163D01*
X8498382Y2398674D01*
X8503361Y2396845D01*
X8508644Y2395728D01*
X8514232Y2395372D01*
X8522766Y2396236D01*
X8530285Y2398877D01*
X8536838Y2403094D01*
X8542680Y2408834D01*
X8536838Y2415438D01*
X8532114Y2410866D01*
X8526932Y2407513D01*
X8521192Y2405481D01*
X8514740Y2404770D01*
X8508238Y2405430D01*
X8502396Y2407462D01*
X8497316Y2410764D01*
X8492998Y2415286D01*
X8489594Y2420874D01*
X8487105Y2427579D01*
X8485530Y2435250D01*
X8485022Y2443886D01*
X8485581Y2452370D01*
X8487156Y2459990D01*
X8489746Y2466594D01*
X8493252Y2472131D01*
X8497671Y2476550D01*
X8502802Y2479802D01*
X8508695Y2481783D01*
X8515248Y2482494D01*
X8521039Y2481834D01*
X8526119Y2480056D01*
X8530640Y2477211D01*
X8534552Y2473604D01*
X8540394Y2480462D01*
X8535771Y2484678D01*
X8529980Y2488234D01*
X8523020Y2490724D01*
G37*
G36*
X8393074Y2490114D02*
G01*
X8393074Y2481478D01*
X8414918Y2481478D01*
X8420303Y2481173D01*
X8425230Y2480360D01*
X8429701Y2478938D01*
X8433663Y2477008D01*
X8437168Y2474569D01*
X8440166Y2471623D01*
X8442706Y2468168D01*
X8444788Y2464206D01*
X8446363Y2459837D01*
X8447532Y2454960D01*
X8448243Y2449626D01*
X8448446Y2443886D01*
X8448243Y2438146D01*
X8447532Y2432862D01*
X8446363Y2427935D01*
X8444788Y2423515D01*
X8442706Y2419502D01*
X8440166Y2415946D01*
X8437168Y2412949D01*
X8433663Y2410409D01*
X8429701Y2408428D01*
X8425230Y2406954D01*
X8420303Y2406091D01*
X8414918Y2405786D01*
X8403488Y2405786D01*
X8403488Y2481478D01*
X8393074Y2481478D01*
X8393074Y2397150D01*
X8416188Y2397150D01*
X8422944Y2397506D01*
X8429193Y2398572D01*
X8434832Y2400350D01*
X8439912Y2402738D01*
X8444433Y2405837D01*
X8448344Y2409545D01*
X8451697Y2413863D01*
X8454440Y2418791D01*
X8456574Y2424226D01*
X8458149Y2430272D01*
X8459063Y2436825D01*
X8459368Y2443886D01*
X8459063Y2450896D01*
X8458149Y2457450D01*
X8456574Y2463444D01*
X8454440Y2468829D01*
X8451697Y2473706D01*
X8448344Y2477922D01*
X8444382Y2481580D01*
X8439861Y2484628D01*
X8434730Y2486964D01*
X8429040Y2488692D01*
X8422741Y2489758D01*
X8415934Y2490114D01*
G37*
G36*
X8528964Y2745638D02*
G01*
X8523325Y2745232D01*
X8518042Y2744165D01*
X8513064Y2742336D01*
X8508492Y2739847D01*
X8504326Y2736697D01*
X8500618Y2732887D01*
X8497366Y2728468D01*
X8494674Y2723438D01*
X8492490Y2717850D01*
X8490915Y2711754D01*
X8489950Y2705049D01*
X8489594Y2697886D01*
X8500516Y2697886D01*
X8501024Y2706370D01*
X8502548Y2713990D01*
X8504986Y2720594D01*
X8508238Y2726131D01*
X8512352Y2730550D01*
X8517229Y2733802D01*
X8522766Y2735783D01*
X8528964Y2736494D01*
X8535162Y2735783D01*
X8540699Y2733802D01*
X8545576Y2730550D01*
X8549690Y2726131D01*
X8552942Y2720594D01*
X8555380Y2713990D01*
X8556904Y2706370D01*
X8557412Y2697886D01*
X8556904Y2689352D01*
X8555380Y2681681D01*
X8552942Y2675026D01*
X8549690Y2669387D01*
X8545576Y2664815D01*
X8540699Y2661513D01*
X8535162Y2659481D01*
X8528964Y2658770D01*
X8522766Y2659481D01*
X8517229Y2661513D01*
X8512352Y2664815D01*
X8508238Y2669336D01*
X8504986Y2675026D01*
X8502548Y2681681D01*
X8501024Y2689352D01*
X8500516Y2697886D01*
X8489594Y2697886D01*
X8489950Y2690672D01*
X8490915Y2683967D01*
X8492490Y2677769D01*
X8494674Y2672080D01*
X8497366Y2667000D01*
X8500618Y2662478D01*
X8504326Y2658567D01*
X8508492Y2655316D01*
X8513064Y2652776D01*
X8518042Y2650896D01*
X8523325Y2649728D01*
X8528964Y2649372D01*
X8534603Y2649728D01*
X8539886Y2650896D01*
X8544864Y2652776D01*
X8549436Y2655316D01*
X8553602Y2658567D01*
X8557310Y2662478D01*
X8560562Y2667000D01*
X8563254Y2672080D01*
X8565438Y2677769D01*
X8567013Y2683967D01*
X8567978Y2690672D01*
X8568334Y2697886D01*
X8567978Y2705049D01*
X8567013Y2711754D01*
X8565438Y2717850D01*
X8563254Y2723438D01*
X8560562Y2728468D01*
X8557310Y2732887D01*
X8553602Y2736697D01*
X8549436Y2739847D01*
X8544864Y2742336D01*
X8539886Y2744165D01*
X8534603Y2745232D01*
G37*
G36*
X8615070Y2745638D02*
G01*
X8609076Y2745181D01*
X8603640Y2743809D01*
X8598712Y2741676D01*
X8594547Y2738780D01*
X8591092Y2735275D01*
X8588552Y2731160D01*
X8586927Y2726537D01*
X8586368Y2721508D01*
X8588146Y2712516D01*
X8592667Y2705862D01*
X8598814Y2701137D01*
X8605418Y2697886D01*
X8625078Y2688894D01*
X8630107Y2685542D01*
X8633409Y2681071D01*
X8634628Y2674772D01*
X8633256Y2668168D01*
X8629243Y2663139D01*
X8622842Y2659888D01*
X8614308Y2658770D01*
X8606993Y2659583D01*
X8600084Y2661920D01*
X8593734Y2665628D01*
X8588146Y2670454D01*
X8581796Y2663342D01*
X8588400Y2657500D01*
X8596020Y2653080D01*
X8604605Y2650337D01*
X8614054Y2649372D01*
X8620963Y2649880D01*
X8627059Y2651353D01*
X8632444Y2653741D01*
X8636914Y2656941D01*
X8640521Y2660751D01*
X8643112Y2665222D01*
X8644737Y2670149D01*
X8645296Y2675534D01*
X8643772Y2684526D01*
X8639657Y2691282D01*
X8633510Y2696413D01*
X8625992Y2700426D01*
X8607094Y2708452D01*
X8602116Y2711653D01*
X8598458Y2716072D01*
X8597036Y2722270D01*
X8598357Y2728112D01*
X8602065Y2732633D01*
X8607755Y2735478D01*
X8615070Y2736494D01*
X8621369Y2735834D01*
X8627008Y2734056D01*
X8632088Y2731211D01*
X8636660Y2727604D01*
X8642248Y2734208D01*
X8636914Y2738882D01*
X8630462Y2742488D01*
X8623147Y2744825D01*
G37*
G36*
X8393074Y2744114D02*
G01*
X8393074Y2651150D01*
X8402472Y2651150D01*
X8402472Y2704744D01*
X8402015Y2718104D01*
X8401202Y2731668D01*
X8401710Y2731668D01*
X8409076Y2710586D01*
X8427364Y2660548D01*
X8434730Y2660548D01*
X8452764Y2710586D01*
X8460130Y2731668D01*
X8460638Y2731668D01*
X8459825Y2718104D01*
X8459368Y2704744D01*
X8459368Y2651150D01*
X8469274Y2651150D01*
X8469274Y2744114D01*
X8456320Y2744114D01*
X8438032Y2693314D01*
X8431682Y2673502D01*
X8430920Y2673502D01*
X8424316Y2693314D01*
X8406028Y2744114D01*
G37*
G36*
X8663838Y2744114D02*
G01*
X8663838Y2651150D01*
X8674506Y2651150D01*
X8674506Y2744114D01*
G37*
G36*
X8419490Y2999638D02*
G01*
X8413496Y2999181D01*
X8408060Y2997809D01*
X8403132Y2995676D01*
X8398967Y2992780D01*
X8395512Y2989275D01*
X8392972Y2985160D01*
X8391347Y2980537D01*
X8390788Y2975508D01*
X8392515Y2966516D01*
X8396935Y2959862D01*
X8402980Y2955137D01*
X8409584Y2951886D01*
X8429294Y2942894D01*
X8434374Y2939542D01*
X8437778Y2935071D01*
X8439048Y2928772D01*
X8437626Y2922168D01*
X8433511Y2917139D01*
X8427059Y2913888D01*
X8418474Y2912770D01*
X8411159Y2913583D01*
X8404301Y2915920D01*
X8398002Y2919628D01*
X8392566Y2924454D01*
X8386216Y2917342D01*
X8392718Y2911500D01*
X8400338Y2907080D01*
X8408974Y2904337D01*
X8418474Y2903372D01*
X8425281Y2903880D01*
X8431377Y2905353D01*
X8436711Y2907741D01*
X8441232Y2910941D01*
X8444839Y2914751D01*
X8447532Y2919222D01*
X8449157Y2924149D01*
X8449716Y2929534D01*
X8448192Y2938526D01*
X8444077Y2945282D01*
X8437930Y2950413D01*
X8430412Y2954426D01*
X8411514Y2962452D01*
X8406536Y2965653D01*
X8402878Y2970072D01*
X8401456Y2976270D01*
X8402726Y2982112D01*
X8406384Y2986633D01*
X8412073Y2989478D01*
X8419490Y2990494D01*
X8425789Y2989834D01*
X8431377Y2988056D01*
X8436406Y2985211D01*
X8440826Y2981604D01*
X8446414Y2988208D01*
X8441080Y2992882D01*
X8434781Y2996488D01*
X8427516Y2998825D01*
G37*
G36*
X8503564Y2999638D02*
G01*
X8497773Y2999232D01*
X8492337Y2998114D01*
X8487206Y2996285D01*
X8482482Y2993796D01*
X8478113Y2990596D01*
X8474252Y2986786D01*
X8470900Y2982315D01*
X8468004Y2977286D01*
X8465718Y2971647D01*
X8464042Y2965500D01*
X8463026Y2958795D01*
X8462670Y2951632D01*
X8463026Y2944317D01*
X8464042Y2937560D01*
X8465667Y2931312D01*
X8467953Y2925673D01*
X8470747Y2920593D01*
X8474049Y2916174D01*
X8477859Y2912313D01*
X8482126Y2909163D01*
X8486800Y2906674D01*
X8491778Y2904845D01*
X8497163Y2903728D01*
X8502802Y2903372D01*
X8511235Y2904236D01*
X8518702Y2906877D01*
X8525256Y2911094D01*
X8530996Y2916834D01*
X8525154Y2923438D01*
X8520430Y2918866D01*
X8515299Y2915513D01*
X8509609Y2913481D01*
X8503310Y2912770D01*
X8496808Y2913430D01*
X8490966Y2915462D01*
X8485886Y2918764D01*
X8481568Y2923286D01*
X8478164Y2928874D01*
X8475675Y2935579D01*
X8474100Y2943250D01*
X8473592Y2951886D01*
X8474151Y2960370D01*
X8475726Y2967990D01*
X8478316Y2974594D01*
X8481822Y2980131D01*
X8486140Y2984550D01*
X8491270Y2987802D01*
X8497112Y2989783D01*
X8503564Y2990494D01*
X8509355Y2989834D01*
X8514435Y2988056D01*
X8518956Y2985211D01*
X8522868Y2981604D01*
X8528710Y2988462D01*
X8524087Y2992678D01*
X8518347Y2996234D01*
X8511438Y2998724D01*
G37*
G36*
X8548776Y2998114D02*
G01*
X8548776Y2905150D01*
X8559190Y2905150D01*
X8559190Y2935122D01*
X8575954Y2954680D01*
X8604402Y2905150D01*
X8616086Y2905150D01*
X8582558Y2962808D01*
X8611768Y2998114D01*
X8599830Y2998114D01*
X8559444Y2950108D01*
X8559190Y2950108D01*
X8559190Y2998114D01*
G37*
G36*
X8393074Y3252114D02*
G01*
X8393074Y3159150D01*
X8444636Y3159150D01*
X8444636Y3168040D01*
X8403488Y3168040D01*
X8403488Y3252114D01*
G37*
G36*
X8461146Y3252114D02*
G01*
X8461146Y3159150D01*
X8515502Y3159150D01*
X8515502Y3168040D01*
X8471560Y3168040D01*
X8471560Y3203600D01*
X8507374Y3203600D01*
X8507374Y3212490D01*
X8471560Y3212490D01*
X8471560Y3243224D01*
X8513978Y3243224D01*
X8513978Y3252114D01*
G37*
G36*
X8535314Y3252114D02*
G01*
X8535314Y3243478D01*
X8557158Y3243478D01*
X8562543Y3243173D01*
X8567470Y3242360D01*
X8571941Y3240938D01*
X8575903Y3239008D01*
X8579408Y3236569D01*
X8582406Y3233623D01*
X8584946Y3230168D01*
X8587028Y3226206D01*
X8588603Y3221837D01*
X8589772Y3216960D01*
X8590483Y3211626D01*
X8590686Y3205886D01*
X8590483Y3200146D01*
X8589772Y3194862D01*
X8588603Y3189935D01*
X8587028Y3185515D01*
X8584946Y3181502D01*
X8582406Y3177946D01*
X8579408Y3174949D01*
X8575903Y3172409D01*
X8571941Y3170428D01*
X8567470Y3168954D01*
X8562543Y3168091D01*
X8557158Y3167786D01*
X8545728Y3167786D01*
X8545728Y3243478D01*
X8535314Y3243478D01*
X8535314Y3159150D01*
X8558428Y3159150D01*
X8565184Y3159506D01*
X8571433Y3160572D01*
X8577072Y3162350D01*
X8582152Y3164738D01*
X8586673Y3167837D01*
X8590584Y3171545D01*
X8593937Y3175863D01*
X8596680Y3180791D01*
X8598814Y3186226D01*
X8600389Y3192272D01*
X8601303Y3198825D01*
X8601608Y3205886D01*
X8601303Y3212896D01*
X8600389Y3219450D01*
X8598814Y3225444D01*
X8596680Y3230829D01*
X8593937Y3235706D01*
X8590534Y3239922D01*
X8586622Y3243580D01*
X8582101Y3246628D01*
X8576970Y3248964D01*
X8571280Y3250692D01*
X8564981Y3251758D01*
X8558174Y3252114D01*
G37*
G36*
X8552840Y3531768D02*
G01*
X8546846Y3531311D01*
X8541410Y3529939D01*
X8536482Y3527806D01*
X8532317Y3524910D01*
X8528862Y3521405D01*
X8526322Y3517290D01*
X8524697Y3512667D01*
X8524138Y3507638D01*
X8525916Y3498646D01*
X8530437Y3491992D01*
X8536584Y3487267D01*
X8543188Y3484016D01*
X8562848Y3475024D01*
X8567877Y3471672D01*
X8571179Y3467201D01*
X8572398Y3460902D01*
X8571026Y3454298D01*
X8567013Y3449269D01*
X8560612Y3446018D01*
X8552078Y3444900D01*
X8544763Y3445713D01*
X8537854Y3448050D01*
X8531504Y3451758D01*
X8525916Y3456584D01*
X8519566Y3449472D01*
X8526170Y3443630D01*
X8533790Y3439261D01*
X8542375Y3436467D01*
X8551824Y3435502D01*
X8558733Y3436010D01*
X8564829Y3437483D01*
X8570214Y3439871D01*
X8574684Y3443020D01*
X8578291Y3446881D01*
X8580882Y3451351D01*
X8582507Y3456279D01*
X8583066Y3461664D01*
X8581542Y3470656D01*
X8577427Y3477412D01*
X8571280Y3482543D01*
X8563762Y3486556D01*
X8544864Y3494582D01*
X8539886Y3497783D01*
X8536228Y3502202D01*
X8534806Y3508400D01*
X8536127Y3514242D01*
X8539835Y3518712D01*
X8545525Y3521608D01*
X8552840Y3522624D01*
X8559139Y3521964D01*
X8564778Y3520186D01*
X8569858Y3517341D01*
X8574430Y3513734D01*
X8580018Y3520338D01*
X8574684Y3525012D01*
X8568232Y3528618D01*
X8560917Y3530955D01*
G37*
G36*
X8635390Y3531768D02*
G01*
X8629802Y3531362D01*
X8624570Y3530295D01*
X8619642Y3528466D01*
X8615070Y3525977D01*
X8610955Y3522827D01*
X8607247Y3519017D01*
X8604046Y3514598D01*
X8601354Y3509568D01*
X8599170Y3503980D01*
X8597595Y3497884D01*
X8596630Y3491179D01*
X8596274Y3484016D01*
X8606942Y3484016D01*
X8607450Y3492500D01*
X8608974Y3500120D01*
X8611463Y3506724D01*
X8614765Y3512261D01*
X8618931Y3516680D01*
X8623757Y3519932D01*
X8629294Y3521913D01*
X8635390Y3522624D01*
X8641588Y3521913D01*
X8647176Y3519932D01*
X8652052Y3516680D01*
X8656218Y3512261D01*
X8659571Y3506724D01*
X8662060Y3500120D01*
X8663584Y3492500D01*
X8664092Y3484016D01*
X8663584Y3475482D01*
X8662060Y3467811D01*
X8659571Y3461156D01*
X8656218Y3455517D01*
X8652052Y3450945D01*
X8647176Y3447643D01*
X8641588Y3445611D01*
X8635390Y3444900D01*
X8629294Y3445611D01*
X8623757Y3447643D01*
X8618931Y3450945D01*
X8614765Y3455517D01*
X8611463Y3461156D01*
X8608974Y3467811D01*
X8607450Y3475482D01*
X8606942Y3484016D01*
X8596274Y3484016D01*
X8596630Y3476802D01*
X8597595Y3470097D01*
X8599170Y3463899D01*
X8601354Y3458210D01*
X8604046Y3453129D01*
X8607247Y3448608D01*
X8610955Y3444697D01*
X8615070Y3441446D01*
X8619642Y3438906D01*
X8624570Y3437026D01*
X8629802Y3435858D01*
X8635390Y3435502D01*
X8641029Y3435858D01*
X8646312Y3437026D01*
X8651290Y3438906D01*
X8655862Y3441446D01*
X8660028Y3444697D01*
X8663736Y3448608D01*
X8666988Y3453129D01*
X8669680Y3458210D01*
X8671864Y3463899D01*
X8673439Y3470097D01*
X8674404Y3476802D01*
X8674760Y3484016D01*
X8674404Y3491179D01*
X8673439Y3497884D01*
X8671864Y3503980D01*
X8669680Y3509568D01*
X8666988Y3514598D01*
X8663736Y3519017D01*
X8660028Y3522827D01*
X8655862Y3525977D01*
X8651290Y3528466D01*
X8646312Y3530295D01*
X8641029Y3531362D01*
G37*
G36*
X8387994Y3530244D02*
G01*
X8387994Y3437280D01*
X8397392Y3437280D01*
X8397392Y3490874D01*
X8396935Y3504234D01*
X8396122Y3517798D01*
X8396630Y3517798D01*
X8403996Y3496716D01*
X8422284Y3446678D01*
X8429650Y3446678D01*
X8447684Y3496716D01*
X8455050Y3517798D01*
X8455558Y3517798D01*
X8454745Y3504234D01*
X8454288Y3490874D01*
X8454288Y3437280D01*
X8464194Y3437280D01*
X8464194Y3530244D01*
X8451240Y3530244D01*
X8432952Y3479444D01*
X8426602Y3459632D01*
X8425840Y3459632D01*
X8419236Y3479444D01*
X8400948Y3530244D01*
G37*
G36*
X8490102Y3530244D02*
G01*
X8490102Y3437280D01*
X8500516Y3437280D01*
X8500516Y3530244D01*
G37*
G36*
X8574430Y3761638D02*
G01*
X8568740Y3761232D01*
X8563305Y3760114D01*
X8558225Y3758285D01*
X8553500Y3755796D01*
X8549182Y3752596D01*
X8545372Y3748786D01*
X8541969Y3744315D01*
X8539124Y3739286D01*
X8536838Y3733647D01*
X8535162Y3727500D01*
X8534146Y3720795D01*
X8533790Y3713632D01*
X8534146Y3706317D01*
X8535162Y3699560D01*
X8536787Y3693312D01*
X8539073Y3687673D01*
X8541867Y3682593D01*
X8545169Y3678174D01*
X8548928Y3674313D01*
X8553145Y3671163D01*
X8557818Y3668674D01*
X8562797Y3666845D01*
X8568080Y3665728D01*
X8573668Y3665372D01*
X8582202Y3666236D01*
X8589721Y3668877D01*
X8596274Y3673094D01*
X8602116Y3678834D01*
X8596274Y3685438D01*
X8591550Y3680866D01*
X8586368Y3677513D01*
X8580628Y3675481D01*
X8574176Y3674770D01*
X8567674Y3675430D01*
X8561832Y3677462D01*
X8556752Y3680764D01*
X8552434Y3685286D01*
X8549030Y3690874D01*
X8546541Y3697579D01*
X8544966Y3705250D01*
X8544458Y3713886D01*
X8545017Y3722370D01*
X8546592Y3729990D01*
X8549182Y3736594D01*
X8552738Y3742131D01*
X8557107Y3746550D01*
X8562238Y3749801D01*
X8568131Y3751783D01*
X8574684Y3752494D01*
X8580475Y3751834D01*
X8585555Y3750056D01*
X8590076Y3747211D01*
X8593988Y3743604D01*
X8599830Y3750462D01*
X8595207Y3754678D01*
X8589416Y3758234D01*
X8582456Y3760724D01*
G37*
G36*
X8384184Y3760114D02*
G01*
X8384184Y3751224D01*
X8412378Y3751224D01*
X8412378Y3667150D01*
X8423046Y3667150D01*
X8423046Y3751224D01*
X8451494Y3751224D01*
X8451494Y3760114D01*
G37*
G36*
X8619642Y3760114D02*
G01*
X8619642Y3667150D01*
X8671458Y3667150D01*
X8671458Y3676040D01*
X8630310Y3676040D01*
X8630310Y3760114D01*
G37*
G36*
X8687714Y3760114D02*
G01*
X8687714Y3667150D01*
X8698382Y3667150D01*
X8698382Y3697122D01*
X8714892Y3716680D01*
X8743594Y3667150D01*
X8755278Y3667150D01*
X8721750Y3724808D01*
X8750960Y3760114D01*
X8738768Y3760114D01*
X8698636Y3712108D01*
X8698382Y3712108D01*
X8698382Y3760114D01*
G37*
G36*
X8457082Y3656736D02*
G01*
X8457082Y3649624D01*
X8524646Y3649624D01*
X8524646Y3656736D01*
G37*
G36*
X8574430Y4015638D02*
G01*
X8568740Y4015232D01*
X8563305Y4014114D01*
X8558225Y4012285D01*
X8553500Y4009796D01*
X8549182Y4006596D01*
X8545372Y4002786D01*
X8541969Y3998315D01*
X8539124Y3993286D01*
X8536838Y3987647D01*
X8535162Y3981500D01*
X8534146Y3974795D01*
X8533790Y3967632D01*
X8534146Y3960317D01*
X8535162Y3953560D01*
X8536787Y3947312D01*
X8539073Y3941673D01*
X8541867Y3936593D01*
X8545169Y3932174D01*
X8548928Y3928313D01*
X8553145Y3925163D01*
X8557818Y3922674D01*
X8562797Y3920845D01*
X8568080Y3919728D01*
X8573668Y3919372D01*
X8582202Y3920236D01*
X8589721Y3922877D01*
X8596274Y3927094D01*
X8602116Y3932834D01*
X8596274Y3939438D01*
X8591550Y3934866D01*
X8586368Y3931513D01*
X8580628Y3929481D01*
X8574176Y3928770D01*
X8567674Y3929430D01*
X8561832Y3931462D01*
X8556752Y3934764D01*
X8552434Y3939286D01*
X8549030Y3944874D01*
X8546541Y3951579D01*
X8544966Y3959250D01*
X8544458Y3967886D01*
X8545017Y3976370D01*
X8546592Y3983990D01*
X8549182Y3990594D01*
X8552738Y3996131D01*
X8557107Y4000550D01*
X8562238Y4003801D01*
X8568131Y4005783D01*
X8574684Y4006494D01*
X8580475Y4005834D01*
X8585555Y4004056D01*
X8590076Y4001211D01*
X8593988Y3997604D01*
X8599830Y4004462D01*
X8595207Y4008678D01*
X8589416Y4012234D01*
X8582456Y4014724D01*
G37*
G36*
X8642756Y4015638D02*
G01*
X8636762Y4015181D01*
X8631326Y4013809D01*
X8626398Y4011676D01*
X8622233Y4008780D01*
X8618778Y4005275D01*
X8616238Y4001160D01*
X8614613Y3996537D01*
X8614054Y3991508D01*
X8615832Y3982516D01*
X8620353Y3975862D01*
X8626500Y3971137D01*
X8633104Y3967886D01*
X8652764Y3958894D01*
X8657793Y3955542D01*
X8661095Y3951071D01*
X8662314Y3944772D01*
X8660942Y3938168D01*
X8656929Y3933139D01*
X8650528Y3929887D01*
X8641994Y3928770D01*
X8634679Y3929583D01*
X8627770Y3931920D01*
X8621420Y3935628D01*
X8615832Y3940454D01*
X8609482Y3933342D01*
X8616086Y3927500D01*
X8623706Y3923080D01*
X8632291Y3920337D01*
X8641740Y3919372D01*
X8648649Y3919880D01*
X8654745Y3921353D01*
X8660130Y3923741D01*
X8664600Y3926941D01*
X8668207Y3930751D01*
X8670798Y3935222D01*
X8672423Y3940149D01*
X8672982Y3945534D01*
X8671458Y3954526D01*
X8667343Y3961282D01*
X8661196Y3966413D01*
X8653678Y3970426D01*
X8634780Y3978452D01*
X8629802Y3981653D01*
X8626144Y3986072D01*
X8624722Y3992270D01*
X8626043Y3998112D01*
X8629751Y4002633D01*
X8635441Y4005478D01*
X8642756Y4006494D01*
X8649055Y4005834D01*
X8654694Y4004056D01*
X8659774Y4001211D01*
X8664346Y3997604D01*
X8669934Y4004208D01*
X8664600Y4008882D01*
X8658148Y4012488D01*
X8650833Y4014825D01*
G37*
G36*
X8384184Y4014114D02*
G01*
X8384184Y4005224D01*
X8412378Y4005224D01*
X8412378Y3921150D01*
X8423046Y3921150D01*
X8423046Y4005224D01*
X8451494Y4005224D01*
X8451494Y4014114D01*
G37*
G36*
X8457082Y3910736D02*
G01*
X8457082Y3903624D01*
X8524646Y3903624D01*
X8524646Y3910736D01*
G37*
G36*
X8384184Y4268114D02*
G01*
X8384184Y4259224D01*
X8412378Y4259224D01*
X8412378Y4175150D01*
X8423046Y4175150D01*
X8423046Y4259224D01*
X8451494Y4259224D01*
X8451494Y4268114D01*
G37*
G36*
X8539124Y4268114D02*
G01*
X8539124Y4259478D01*
X8561222Y4259478D01*
X8566607Y4259173D01*
X8571534Y4258360D01*
X8576005Y4256938D01*
X8579967Y4255008D01*
X8583472Y4252569D01*
X8586470Y4249623D01*
X8589010Y4246168D01*
X8591092Y4242206D01*
X8592667Y4237837D01*
X8593836Y4232960D01*
X8594547Y4227626D01*
X8594750Y4221886D01*
X8594547Y4216146D01*
X8593836Y4210862D01*
X8592667Y4205935D01*
X8591092Y4201515D01*
X8589010Y4197502D01*
X8586470Y4193946D01*
X8583472Y4190949D01*
X8579967Y4188409D01*
X8576005Y4186428D01*
X8571534Y4184954D01*
X8566607Y4184091D01*
X8561222Y4183786D01*
X8549792Y4183786D01*
X8549792Y4259478D01*
X8539124Y4259478D01*
X8539124Y4175150D01*
X8562492Y4175150D01*
X8569248Y4175506D01*
X8575446Y4176572D01*
X8581085Y4178350D01*
X8586165Y4180738D01*
X8590635Y4183837D01*
X8594547Y4187545D01*
X8597849Y4191863D01*
X8600541Y4196791D01*
X8602675Y4202226D01*
X8604199Y4208272D01*
X8605113Y4214825D01*
X8605418Y4221886D01*
X8605113Y4228896D01*
X8604199Y4235450D01*
X8602675Y4241444D01*
X8600541Y4246829D01*
X8597798Y4251706D01*
X8594445Y4255922D01*
X8590534Y4259580D01*
X8586012Y4262628D01*
X8580882Y4264964D01*
X8575192Y4266692D01*
X8568893Y4267758D01*
X8561984Y4268114D01*
G37*
G36*
X8625992Y4268114D02*
G01*
X8625992Y4175150D01*
X8636406Y4175150D01*
X8636406Y4268114D01*
G37*
G36*
X8662314Y4268114D02*
G01*
X8662314Y4175150D01*
X8672220Y4175150D01*
X8672118Y4233113D01*
X8670950Y4254398D01*
X8671712Y4254398D01*
X8681872Y4235348D01*
X8716670Y4175150D01*
X8727592Y4175150D01*
X8727592Y4268114D01*
X8717686Y4268114D01*
X8717686Y4217822D01*
X8718143Y4203141D01*
X8718956Y4188866D01*
X8718448Y4188866D01*
X8708288Y4207916D01*
X8673236Y4268114D01*
G37*
G36*
X8457082Y4164736D02*
G01*
X8457082Y4157624D01*
X8524646Y4157624D01*
X8524646Y4164736D01*
G37*
G36*
X8659774Y4523638D02*
G01*
X8654135Y4523232D01*
X8648852Y4522165D01*
X8643874Y4520336D01*
X8639302Y4517847D01*
X8635136Y4514697D01*
X8631428Y4510887D01*
X8628176Y4506468D01*
X8625484Y4501438D01*
X8623300Y4495850D01*
X8621725Y4489754D01*
X8620760Y4483049D01*
X8620404Y4475886D01*
X8631326Y4475886D01*
X8631834Y4484370D01*
X8633358Y4491990D01*
X8635796Y4498594D01*
X8639098Y4504131D01*
X8643162Y4508550D01*
X8648039Y4511802D01*
X8653576Y4513783D01*
X8659774Y4514494D01*
X8665972Y4513783D01*
X8671509Y4511802D01*
X8676386Y4508550D01*
X8680450Y4504131D01*
X8683752Y4498594D01*
X8686190Y4491990D01*
X8687714Y4484370D01*
X8688222Y4475886D01*
X8687714Y4467352D01*
X8686190Y4459681D01*
X8683752Y4453026D01*
X8680500Y4447387D01*
X8676386Y4442815D01*
X8671509Y4439513D01*
X8665972Y4437481D01*
X8659774Y4436770D01*
X8653576Y4437481D01*
X8648039Y4439513D01*
X8643162Y4442815D01*
X8639098Y4447336D01*
X8635796Y4453026D01*
X8633358Y4459681D01*
X8631834Y4467352D01*
X8631326Y4475886D01*
X8620404Y4475886D01*
X8620760Y4468672D01*
X8621725Y4461967D01*
X8623300Y4455769D01*
X8625484Y4450080D01*
X8628176Y4445000D01*
X8631428Y4440478D01*
X8635136Y4436567D01*
X8639302Y4433316D01*
X8643874Y4430776D01*
X8648852Y4428896D01*
X8654135Y4427728D01*
X8659774Y4427372D01*
X8665413Y4427728D01*
X8670696Y4428896D01*
X8675674Y4430776D01*
X8680246Y4433316D01*
X8684412Y4436567D01*
X8688120Y4440478D01*
X8691372Y4445000D01*
X8694064Y4450080D01*
X8696248Y4455769D01*
X8697823Y4461967D01*
X8698788Y4468672D01*
X8699144Y4475886D01*
X8698788Y4483049D01*
X8697823Y4489754D01*
X8696248Y4495850D01*
X8694064Y4501438D01*
X8691372Y4506468D01*
X8688120Y4510887D01*
X8684412Y4514697D01*
X8680246Y4517847D01*
X8675674Y4520336D01*
X8670696Y4522165D01*
X8665413Y4523232D01*
G37*
G36*
X8384184Y4522114D02*
G01*
X8384184Y4513224D01*
X8412378Y4513224D01*
X8412378Y4429150D01*
X8423046Y4429150D01*
X8423046Y4513224D01*
X8451494Y4513224D01*
X8451494Y4522114D01*
G37*
G36*
X8539124Y4522114D02*
G01*
X8539124Y4513478D01*
X8561222Y4513478D01*
X8566607Y4513173D01*
X8571534Y4512360D01*
X8576005Y4510938D01*
X8579967Y4509008D01*
X8583472Y4506569D01*
X8586470Y4503623D01*
X8589010Y4500168D01*
X8591092Y4496206D01*
X8592667Y4491837D01*
X8593836Y4486960D01*
X8594547Y4481626D01*
X8594750Y4475886D01*
X8594547Y4470146D01*
X8593836Y4464862D01*
X8592667Y4459935D01*
X8591092Y4455515D01*
X8589010Y4451502D01*
X8586470Y4447946D01*
X8583472Y4444949D01*
X8579967Y4442409D01*
X8576005Y4440428D01*
X8571534Y4438954D01*
X8566607Y4438091D01*
X8561222Y4437786D01*
X8549792Y4437786D01*
X8549792Y4513478D01*
X8539124Y4513478D01*
X8539124Y4429150D01*
X8562492Y4429150D01*
X8569248Y4429506D01*
X8575446Y4430572D01*
X8581085Y4432350D01*
X8586165Y4434738D01*
X8590635Y4437837D01*
X8594547Y4441545D01*
X8597849Y4445863D01*
X8600541Y4450791D01*
X8602675Y4456226D01*
X8604199Y4462272D01*
X8605113Y4468825D01*
X8605418Y4475886D01*
X8605113Y4482896D01*
X8604199Y4489450D01*
X8602675Y4495444D01*
X8600541Y4500829D01*
X8597798Y4505706D01*
X8594445Y4509922D01*
X8590534Y4513580D01*
X8586012Y4516628D01*
X8580882Y4518964D01*
X8575192Y4520692D01*
X8568893Y4521758D01*
X8561984Y4522114D01*
G37*
G36*
X8457082Y4418736D02*
G01*
X8457082Y4411624D01*
X8524646Y4411624D01*
X8524646Y4418736D01*
G37*
G36*
X8688984Y4777638D02*
G01*
X8683396Y4777232D01*
X8678164Y4776165D01*
X8673236Y4774336D01*
X8668664Y4771847D01*
X8664549Y4768697D01*
X8660841Y4764887D01*
X8657640Y4760468D01*
X8654948Y4755438D01*
X8652764Y4749850D01*
X8651189Y4743754D01*
X8650224Y4737049D01*
X8649868Y4729886D01*
X8660536Y4729886D01*
X8661044Y4738370D01*
X8662568Y4745990D01*
X8665057Y4752594D01*
X8668359Y4758131D01*
X8672525Y4762550D01*
X8677351Y4765802D01*
X8682888Y4767783D01*
X8688984Y4768494D01*
X8695182Y4767783D01*
X8700770Y4765802D01*
X8705646Y4762550D01*
X8709812Y4758131D01*
X8713165Y4752594D01*
X8715654Y4745990D01*
X8717178Y4738370D01*
X8717686Y4729886D01*
X8717178Y4721250D01*
X8715654Y4713478D01*
X8713165Y4706721D01*
X8709812Y4701032D01*
X8705646Y4696409D01*
X8700770Y4693056D01*
X8695182Y4690973D01*
X8688984Y4690262D01*
X8682888Y4690973D01*
X8677351Y4693056D01*
X8672525Y4696409D01*
X8668359Y4701032D01*
X8665057Y4706721D01*
X8662568Y4713478D01*
X8661044Y4721250D01*
X8660536Y4729886D01*
X8649868Y4729886D01*
X8650173Y4723231D01*
X8650986Y4716983D01*
X8652306Y4711141D01*
X8654186Y4705807D01*
X8656472Y4700930D01*
X8659266Y4696510D01*
X8662466Y4692650D01*
X8666073Y4689348D01*
X8670036Y4686604D01*
X8674303Y4684420D01*
X8678976Y4682845D01*
X8683904Y4681880D01*
X8686088Y4677257D01*
X8688882Y4673092D01*
X8692235Y4669383D01*
X8696147Y4666183D01*
X8700617Y4663592D01*
X8705646Y4661662D01*
X8711133Y4660442D01*
X8717178Y4660036D01*
X8721039Y4660188D01*
X8724595Y4660646D01*
X8727694Y4661306D01*
X8730132Y4662068D01*
X8728100Y4670196D01*
X8721293Y4669028D01*
X8718448Y4668926D01*
X8711031Y4669739D01*
X8704478Y4672177D01*
X8699093Y4676190D01*
X8695080Y4681880D01*
X8699906Y4682947D01*
X8704427Y4684623D01*
X8708644Y4686858D01*
X8712504Y4689703D01*
X8716010Y4693056D01*
X8719159Y4696917D01*
X8721852Y4701286D01*
X8724138Y4706162D01*
X8725966Y4711446D01*
X8727287Y4717186D01*
X8728100Y4723333D01*
X8728354Y4729886D01*
X8727998Y4737049D01*
X8727033Y4743754D01*
X8725458Y4749850D01*
X8723274Y4755438D01*
X8720582Y4760468D01*
X8717330Y4764887D01*
X8713622Y4768697D01*
X8709456Y4771847D01*
X8704884Y4774336D01*
X8699906Y4776165D01*
X8694623Y4777232D01*
G37*
G36*
X8384184Y4776114D02*
G01*
X8384184Y4767224D01*
X8412378Y4767224D01*
X8412378Y4683150D01*
X8423046Y4683150D01*
X8423046Y4767224D01*
X8451494Y4767224D01*
X8451494Y4776114D01*
G37*
G36*
X8539124Y4776114D02*
G01*
X8539124Y4683150D01*
X8549792Y4683150D01*
X8549792Y4776114D01*
G37*
G36*
X8575700Y4776114D02*
G01*
X8575700Y4767478D01*
X8602370Y4767478D01*
X8612327Y4766564D01*
X8619693Y4763617D01*
X8624214Y4758232D01*
X8625738Y4750206D01*
X8624214Y4742078D01*
X8619693Y4736388D01*
X8612327Y4733036D01*
X8602370Y4731918D01*
X8586114Y4731918D01*
X8586114Y4767478D01*
X8575700Y4767478D01*
X8575700Y4683150D01*
X8586114Y4683150D01*
X8586114Y4723282D01*
X8603640Y4723282D01*
X8626754Y4683150D01*
X8638692Y4683150D01*
X8614562Y4724298D01*
X8619286Y4725619D01*
X8623503Y4727498D01*
X8627211Y4729886D01*
X8630310Y4732883D01*
X8632799Y4736388D01*
X8634628Y4740452D01*
X8635746Y4745024D01*
X8636152Y4750206D01*
X8635542Y4756759D01*
X8633815Y4762296D01*
X8630970Y4766767D01*
X8627211Y4770272D01*
X8622538Y4772914D01*
X8617102Y4774742D01*
X8610904Y4775758D01*
X8604148Y4776114D01*
G37*
G36*
X8457082Y4672736D02*
G01*
X8457082Y4665624D01*
X8524646Y4665624D01*
X8524646Y4672736D01*
G37*
D10*
X1738884Y2984500D02*
G01*
X1816862Y2984500D01*
X1832355Y2989579D01*
X1842770Y2999994D01*
X1847850Y3015742D01*
X1847850Y3026155D01*
X1842770Y3041650D01*
X1832355Y3052063D01*
X1816862Y3057144D01*
X1738884Y3057144D01*
X1738884Y3143504D02*
G01*
X1811528Y3091434D01*
X1811528Y3169412D01*
X1738884Y3143504D02*
G01*
X1847850Y3143504D01*
D11*
X531291Y584200D02*
G01*
X531291Y5584189D01*
X9131300Y5584189D01*
X9131300Y584200D01*
X531291Y584200D01*
X8788400Y1282700D02*
G01*
X8788400Y4876800D01*
X9080500Y4876800D01*
X9080500Y1282700D01*
X8788400Y1282700D01*
X647700Y2552700D02*
G01*
X647700Y3619500D01*
X952500Y3619500D01*
X952500Y2552700D01*
X647700Y2552700D01*
G75*
G01
X8729294Y884199D02*
G03X8729294Y884199I-289992J0D01*
G75*
G01
X8729294Y5284191D02*
G03X8729294Y5284191I-289992J0D01*
G75*
G01
X1121283Y884199D02*
G03X1121283Y884199I-289992J0D01*
G75*
G01
X1121283Y5284191D02*
G03X1121283Y5284191I-289992J0D01*
M02*
