G04 Layer: BottomSilkscreenLayer*
G04 EasyEDA v6.5.57, 2026-08-01 22:12:09*
G04 ce6ec3c6b95b40dda3310bd9e8daaa44,593fdc44a476429594515caf0fb21de9,10*
G04 Gerber Generator version 0.2*
G04 Scale: 100 percent, Rotated: No, Reflected: No *
G04 Dimensions in millimeters *
G04 leading zeros omitted , absolute positions ,4 integer and 5 decimal *
%FSLAX45Y45*%
%MOMM*%

%ADD10C,0.1524*%
%ADD11C,0.2540*%
%ADD12C,0.0800*%
%ADD13C,0.3000*%
%ADD14C,0.0198*%

%LPD*%
D10*
X3305464Y4747953D02*
G01*
X3315855Y4758344D01*
X3331441Y4763538D01*
X3352223Y4763538D01*
X3367808Y4758344D01*
X3378200Y4747953D01*
X3378200Y4737562D01*
X3373005Y4727171D01*
X3367808Y4721974D01*
X3357417Y4716779D01*
X3326244Y4706388D01*
X3315855Y4701194D01*
X3310658Y4695997D01*
X3305464Y4685606D01*
X3305464Y4670021D01*
X3315855Y4659629D01*
X3331441Y4654435D01*
X3352223Y4654435D01*
X3367808Y4659629D01*
X3378200Y4670021D01*
X3271174Y4763538D02*
G01*
X3245195Y4654435D01*
X3219218Y4763538D02*
G01*
X3245195Y4654435D01*
X3219218Y4763538D02*
G01*
X3193242Y4654435D01*
X3167265Y4763538D02*
G01*
X3193242Y4654435D01*
X3132975Y4742756D02*
G01*
X3122584Y4747953D01*
X3106996Y4763538D01*
X3106996Y4654435D01*
X2048164Y4506653D02*
G01*
X2058555Y4517044D01*
X2074141Y4522238D01*
X2094923Y4522238D01*
X2110508Y4517044D01*
X2120900Y4506653D01*
X2120900Y4496262D01*
X2115705Y4485871D01*
X2110508Y4480674D01*
X2100117Y4475479D01*
X2068944Y4465088D01*
X2058555Y4459894D01*
X2053358Y4454697D01*
X2048164Y4444306D01*
X2048164Y4428721D01*
X2058555Y4418329D01*
X2074141Y4413135D01*
X2094923Y4413135D01*
X2110508Y4418329D01*
X2120900Y4428721D01*
X2013874Y4522238D02*
G01*
X1987895Y4413135D01*
X1961918Y4522238D02*
G01*
X1987895Y4413135D01*
X1961918Y4522238D02*
G01*
X1935942Y4413135D01*
X1909965Y4522238D02*
G01*
X1935942Y4413135D01*
X1870478Y4496262D02*
G01*
X1870478Y4501456D01*
X1865284Y4511847D01*
X1860087Y4517044D01*
X1849696Y4522238D01*
X1828914Y4522238D01*
X1818525Y4517044D01*
X1813328Y4511847D01*
X1808134Y4501456D01*
X1808134Y4491065D01*
X1813328Y4480674D01*
X1823720Y4465088D01*
X1875675Y4413135D01*
X1802937Y4413135D01*
X3785108Y2503678D02*
G01*
X3795522Y2498344D01*
X3805936Y2487929D01*
X3811015Y2477770D01*
X3811015Y2456942D01*
X3805936Y2446528D01*
X3795522Y2436113D01*
X3785108Y2430779D01*
X3769359Y2425700D01*
X3743452Y2425700D01*
X3727958Y2430779D01*
X3717543Y2436113D01*
X3707129Y2446528D01*
X3702050Y2456942D01*
X3702050Y2477770D01*
X3707129Y2487929D01*
X3717543Y2498344D01*
X3727958Y2503678D01*
X3790188Y2537968D02*
G01*
X3795522Y2548381D01*
X3811015Y2563876D01*
X3702050Y2563876D01*
X2882391Y5256021D02*
G01*
X2871977Y5261355D01*
X2861563Y5271770D01*
X2856484Y5281929D01*
X2856484Y5302757D01*
X2861563Y5313171D01*
X2871977Y5323586D01*
X2882391Y5328920D01*
X2898140Y5334000D01*
X2924047Y5334000D01*
X2939541Y5328920D01*
X2949956Y5323586D01*
X2960370Y5313171D01*
X2965450Y5302757D01*
X2965450Y5281929D01*
X2960370Y5271770D01*
X2949956Y5261355D01*
X2939541Y5256021D01*
X2882391Y5216652D02*
G01*
X2877311Y5216652D01*
X2866897Y5211318D01*
X2861563Y5206237D01*
X2856484Y5195823D01*
X2856484Y5174995D01*
X2861563Y5164581D01*
X2866897Y5159502D01*
X2877311Y5154168D01*
X2887725Y5154168D01*
X2898140Y5159502D01*
X2913634Y5169915D01*
X2965450Y5221731D01*
X2965450Y5149087D01*
X3846322Y4089907D02*
G01*
X3851656Y4100321D01*
X3862070Y4110736D01*
X3872229Y4115815D01*
X3893058Y4115815D01*
X3903472Y4110736D01*
X3913886Y4100321D01*
X3919220Y4089907D01*
X3924300Y4074160D01*
X3924300Y4048252D01*
X3919220Y4032757D01*
X3913886Y4022344D01*
X3903472Y4011929D01*
X3893058Y4006850D01*
X3872229Y4006850D01*
X3862070Y4011929D01*
X3851656Y4022344D01*
X3846322Y4032757D01*
X3760215Y4115815D02*
G01*
X3812031Y4043171D01*
X3734054Y4043171D01*
X3760215Y4115815D02*
G01*
X3760215Y4006850D01*
X3236722Y4013707D02*
G01*
X3242056Y4024121D01*
X3252470Y4034536D01*
X3262629Y4039615D01*
X3283458Y4039615D01*
X3293872Y4034536D01*
X3304286Y4024121D01*
X3309620Y4013707D01*
X3314700Y3997960D01*
X3314700Y3972052D01*
X3309620Y3956557D01*
X3304286Y3946144D01*
X3293872Y3935729D01*
X3283458Y3930650D01*
X3262629Y3930650D01*
X3252470Y3935729D01*
X3242056Y3946144D01*
X3236722Y3956557D01*
X3140202Y4039615D02*
G01*
X3192018Y4039615D01*
X3197352Y3992879D01*
X3192018Y3997960D01*
X3176524Y4003294D01*
X3161029Y4003294D01*
X3145281Y3997960D01*
X3134868Y3987800D01*
X3129788Y3972052D01*
X3129788Y3961637D01*
X3134868Y3946144D01*
X3145281Y3935729D01*
X3161029Y3930650D01*
X3176524Y3930650D01*
X3192018Y3935729D01*
X3197352Y3940810D01*
X3202431Y3951223D01*
X3481577Y1713992D02*
G01*
X3476243Y1703578D01*
X3465829Y1693163D01*
X3455670Y1688084D01*
X3434841Y1688084D01*
X3424427Y1693163D01*
X3414013Y1703578D01*
X3408679Y1713992D01*
X3403600Y1729739D01*
X3403600Y1755647D01*
X3408679Y1771142D01*
X3414013Y1781555D01*
X3424427Y1791970D01*
X3434841Y1797050D01*
X3455670Y1797050D01*
X3465829Y1791970D01*
X3476243Y1781555D01*
X3481577Y1771142D01*
X3578097Y1703578D02*
G01*
X3573018Y1693163D01*
X3557270Y1688084D01*
X3547109Y1688084D01*
X3531361Y1693163D01*
X3520947Y1708912D01*
X3515868Y1734820D01*
X3515868Y1760728D01*
X3520947Y1781555D01*
X3531361Y1791970D01*
X3547109Y1797050D01*
X3552190Y1797050D01*
X3567684Y1791970D01*
X3578097Y1781555D01*
X3583431Y1766062D01*
X3583431Y1760728D01*
X3578097Y1745234D01*
X3567684Y1734820D01*
X3552190Y1729739D01*
X3547109Y1729739D01*
X3531361Y1734820D01*
X3520947Y1745234D01*
X3515868Y1760728D01*
X2539491Y5332221D02*
G01*
X2529077Y5337555D01*
X2518663Y5347970D01*
X2513584Y5358129D01*
X2513584Y5378957D01*
X2518663Y5389371D01*
X2529077Y5399786D01*
X2539491Y5405120D01*
X2555240Y5410200D01*
X2581147Y5410200D01*
X2596641Y5405120D01*
X2607056Y5399786D01*
X2617470Y5389371D01*
X2622550Y5378957D01*
X2622550Y5358129D01*
X2617470Y5347970D01*
X2607056Y5337555D01*
X2596641Y5332221D01*
X2513584Y5287518D02*
G01*
X2513584Y5230368D01*
X2555240Y5261610D01*
X2555240Y5246115D01*
X2560320Y5235702D01*
X2565400Y5230368D01*
X2581147Y5225287D01*
X2591561Y5225287D01*
X2607056Y5230368D01*
X2617470Y5240781D01*
X2622550Y5256529D01*
X2622550Y5272023D01*
X2617470Y5287518D01*
X2612390Y5292852D01*
X2601975Y5297931D01*
X3353815Y3403600D02*
G01*
X3244850Y3403600D01*
X3353815Y3403600D02*
G01*
X3353815Y3439921D01*
X3348736Y3455670D01*
X3338322Y3465829D01*
X3327908Y3471163D01*
X3312159Y3476244D01*
X3286252Y3476244D01*
X3270758Y3471163D01*
X3260343Y3465829D01*
X3249929Y3455670D01*
X3244850Y3439921D01*
X3244850Y3403600D01*
X3332988Y3510534D02*
G01*
X3338322Y3520947D01*
X3353815Y3536695D01*
X3244850Y3536695D01*
X1827784Y2844800D02*
G01*
X1936750Y2844800D01*
X1827784Y2844800D02*
G01*
X1827784Y2798063D01*
X1832863Y2782570D01*
X1838197Y2777236D01*
X1848612Y2772155D01*
X1859026Y2772155D01*
X1869439Y2777236D01*
X1874520Y2782570D01*
X1879600Y2798063D01*
X1879600Y2844800D01*
X1879600Y2808478D02*
G01*
X1936750Y2772155D01*
X1848612Y2737865D02*
G01*
X1843278Y2727452D01*
X1827784Y2711704D01*
X1936750Y2711704D01*
X1294384Y1485900D02*
G01*
X1403350Y1485900D01*
X1294384Y1485900D02*
G01*
X1294384Y1439163D01*
X1299463Y1423670D01*
X1304797Y1418336D01*
X1315212Y1413255D01*
X1325626Y1413255D01*
X1336039Y1418336D01*
X1341120Y1423670D01*
X1346200Y1439163D01*
X1346200Y1485900D01*
X1346200Y1449578D02*
G01*
X1403350Y1413255D01*
X1320292Y1373631D02*
G01*
X1315212Y1373631D01*
X1304797Y1368552D01*
X1299463Y1363218D01*
X1294384Y1352804D01*
X1294384Y1332229D01*
X1299463Y1321815D01*
X1304797Y1316481D01*
X1315212Y1311402D01*
X1325626Y1311402D01*
X1336039Y1316481D01*
X1351534Y1326895D01*
X1403350Y1378965D01*
X1403350Y1306068D01*
X3695700Y2069084D02*
G01*
X3695700Y2178050D01*
X3695700Y2069084D02*
G01*
X3742436Y2069084D01*
X3757929Y2074163D01*
X3763263Y2079497D01*
X3768343Y2089912D01*
X3768343Y2100326D01*
X3763263Y2110739D01*
X3757929Y2115820D01*
X3742436Y2120900D01*
X3695700Y2120900D01*
X3732022Y2120900D02*
G01*
X3768343Y2178050D01*
X3813047Y2069084D02*
G01*
X3870197Y2069084D01*
X3839209Y2110739D01*
X3854704Y2110739D01*
X3865118Y2115820D01*
X3870197Y2120900D01*
X3875531Y2136647D01*
X3875531Y2147062D01*
X3870197Y2162555D01*
X3859784Y2172970D01*
X3844290Y2178050D01*
X3828795Y2178050D01*
X3813047Y2172970D01*
X3807968Y2167889D01*
X3802634Y2157476D01*
X3314700Y4837684D02*
G01*
X3314700Y4946650D01*
X3314700Y4837684D02*
G01*
X3361436Y4837684D01*
X3376929Y4842763D01*
X3382263Y4848097D01*
X3387343Y4858512D01*
X3387343Y4868926D01*
X3382263Y4879339D01*
X3376929Y4884420D01*
X3361436Y4889500D01*
X3314700Y4889500D01*
X3351022Y4889500D02*
G01*
X3387343Y4946650D01*
X3473704Y4837684D02*
G01*
X3421634Y4910328D01*
X3499611Y4910328D01*
X3473704Y4837684D02*
G01*
X3473704Y4946650D01*
X3708400Y5398528D02*
G01*
X3708400Y5320550D01*
X3703320Y5305056D01*
X3692906Y5294642D01*
X3677158Y5289562D01*
X3666743Y5289562D01*
X3651250Y5294642D01*
X3640836Y5305056D01*
X3635756Y5320550D01*
X3635756Y5398528D01*
X3601465Y5377700D02*
G01*
X3591052Y5383034D01*
X3575304Y5398528D01*
X3575304Y5289562D01*
X1027684Y5067300D02*
G01*
X1105662Y5067300D01*
X1121155Y5062220D01*
X1131570Y5051805D01*
X1136650Y5036057D01*
X1136650Y5025644D01*
X1131570Y5010150D01*
X1121155Y4999736D01*
X1105662Y4994655D01*
X1027684Y4994655D01*
X1053592Y4955031D02*
G01*
X1048512Y4955031D01*
X1038097Y4949952D01*
X1032763Y4944618D01*
X1027684Y4934204D01*
X1027684Y4913629D01*
X1032763Y4903215D01*
X1038097Y4897881D01*
X1048512Y4892802D01*
X1058926Y4892802D01*
X1069339Y4897881D01*
X1084834Y4908295D01*
X1136650Y4960365D01*
X1136650Y4887468D01*
X1677415Y2781300D02*
G01*
X1599437Y2781300D01*
X1583944Y2786379D01*
X1573529Y2796794D01*
X1568450Y2812542D01*
X1568450Y2822955D01*
X1573529Y2838450D01*
X1583944Y2848863D01*
X1599437Y2853944D01*
X1677415Y2853944D01*
X1677415Y2898647D02*
G01*
X1677415Y2955797D01*
X1635760Y2924810D01*
X1635760Y2940304D01*
X1630679Y2950718D01*
X1625600Y2955797D01*
X1609852Y2961131D01*
X1599437Y2961131D01*
X1583944Y2955797D01*
X1573529Y2945384D01*
X1568450Y2929889D01*
X1568450Y2914395D01*
X1573529Y2898647D01*
X1578610Y2893568D01*
X1589023Y2888234D01*
X3898900Y1713484D02*
G01*
X3898900Y1791462D01*
X3903979Y1806955D01*
X3914393Y1817370D01*
X3930141Y1822450D01*
X3940556Y1822450D01*
X3956050Y1817370D01*
X3966463Y1806955D01*
X3971543Y1791462D01*
X3971543Y1713484D01*
X4078731Y1713484D02*
G01*
X4026661Y1822450D01*
X4005834Y1713484D02*
G01*
X4078731Y1713484D01*
X545084Y4267200D02*
G01*
X623062Y4267200D01*
X638555Y4262120D01*
X648970Y4251705D01*
X654050Y4235957D01*
X654050Y4225544D01*
X648970Y4210050D01*
X638555Y4199636D01*
X623062Y4194555D01*
X545084Y4194555D01*
X545084Y4097781D02*
G01*
X545084Y4149852D01*
X591820Y4154931D01*
X586739Y4149852D01*
X581405Y4134104D01*
X581405Y4118610D01*
X586739Y4103115D01*
X596900Y4092702D01*
X612647Y4087368D01*
X623062Y4087368D01*
X638555Y4092702D01*
X648970Y4103115D01*
X654050Y4118610D01*
X654050Y4134104D01*
X648970Y4149852D01*
X643889Y4154931D01*
X633476Y4160265D01*
X1066800Y394710D02*
G01*
X1066800Y316732D01*
X1061720Y301238D01*
X1051305Y290824D01*
X1035557Y285744D01*
X1025144Y285744D01*
X1009650Y290824D01*
X999236Y301238D01*
X994155Y316732D01*
X994155Y394710D01*
X933704Y394710D02*
G01*
X949452Y389630D01*
X954531Y379216D01*
X954531Y368802D01*
X949452Y358388D01*
X939037Y353054D01*
X918210Y347974D01*
X902715Y342894D01*
X892302Y332480D01*
X886968Y322066D01*
X886968Y306318D01*
X892302Y295904D01*
X897381Y290824D01*
X913129Y285744D01*
X933704Y285744D01*
X949452Y290824D01*
X954531Y295904D01*
X959865Y306318D01*
X959865Y322066D01*
X954531Y332480D01*
X944118Y342894D01*
X928623Y347974D01*
X907795Y353054D01*
X897381Y358388D01*
X892302Y368802D01*
X892302Y379216D01*
X897381Y389630D01*
X913129Y394710D01*
X933704Y394710D01*
X4961597Y1733016D02*
G01*
X4961597Y1655038D01*
X4956517Y1639544D01*
X4946103Y1629130D01*
X4930355Y1624050D01*
X4919941Y1624050D01*
X4904447Y1629130D01*
X4894033Y1639544D01*
X4888953Y1655038D01*
X4888953Y1733016D01*
X4792179Y1717522D02*
G01*
X4797513Y1727936D01*
X4813007Y1733016D01*
X4823421Y1733016D01*
X4838915Y1727936D01*
X4849329Y1712188D01*
X4854663Y1686280D01*
X4854663Y1660372D01*
X4849329Y1639544D01*
X4838915Y1629130D01*
X4823421Y1624050D01*
X4818087Y1624050D01*
X4802593Y1629130D01*
X4792179Y1639544D01*
X4787099Y1655038D01*
X4787099Y1660372D01*
X4792179Y1675866D01*
X4802593Y1686280D01*
X4818087Y1691360D01*
X4823421Y1691360D01*
X4838915Y1686280D01*
X4849329Y1675866D01*
X4854663Y1660372D01*
X2705100Y3696715D02*
G01*
X2705100Y3587750D01*
X2705100Y3696715D02*
G01*
X2668777Y3696715D01*
X2653029Y3691636D01*
X2642870Y3681221D01*
X2637536Y3670807D01*
X2632456Y3655060D01*
X2632456Y3629152D01*
X2637536Y3613657D01*
X2642870Y3603244D01*
X2653029Y3592829D01*
X2668777Y3587750D01*
X2705100Y3587750D01*
X2592831Y3670807D02*
G01*
X2592831Y3675887D01*
X2587752Y3686302D01*
X2582418Y3691636D01*
X2572004Y3696715D01*
X2551429Y3696715D01*
X2541015Y3691636D01*
X2535681Y3686302D01*
X2530602Y3675887D01*
X2530602Y3665473D01*
X2535681Y3655060D01*
X2546095Y3639565D01*
X2598165Y3587750D01*
X2525268Y3587750D01*
X2347722Y3226307D02*
G01*
X2353056Y3236721D01*
X2363470Y3247136D01*
X2373629Y3252215D01*
X2394458Y3252215D01*
X2404872Y3247136D01*
X2415286Y3236721D01*
X2420620Y3226307D01*
X2425700Y3210560D01*
X2425700Y3184652D01*
X2420620Y3169157D01*
X2415286Y3158744D01*
X2404872Y3148329D01*
X2394458Y3143250D01*
X2373629Y3143250D01*
X2363470Y3148329D01*
X2353056Y3158744D01*
X2347722Y3169157D01*
X2240788Y3252215D02*
G01*
X2292604Y3143250D01*
X2313431Y3252215D02*
G01*
X2240788Y3252215D01*
X1854200Y3950715D02*
G01*
X1854200Y3872737D01*
X1849120Y3857244D01*
X1838705Y3846829D01*
X1822957Y3841750D01*
X1812544Y3841750D01*
X1797050Y3846829D01*
X1786636Y3857244D01*
X1781555Y3872737D01*
X1781555Y3950715D01*
X1679702Y3914394D02*
G01*
X1684781Y3898900D01*
X1695195Y3888486D01*
X1710689Y3883152D01*
X1716023Y3883152D01*
X1731518Y3888486D01*
X1741931Y3898900D01*
X1747265Y3914394D01*
X1747265Y3919473D01*
X1741931Y3935221D01*
X1731518Y3945636D01*
X1716023Y3950715D01*
X1710689Y3950715D01*
X1695195Y3945636D01*
X1684781Y3935221D01*
X1679702Y3914394D01*
X1679702Y3888486D01*
X1684781Y3862323D01*
X1695195Y3846829D01*
X1710689Y3841750D01*
X1721104Y3841750D01*
X1736852Y3846829D01*
X1741931Y3857244D01*
X3137915Y2743200D02*
G01*
X3059938Y2743200D01*
X3044443Y2748279D01*
X3034029Y2758694D01*
X3028950Y2774442D01*
X3028950Y2784855D01*
X3034029Y2800350D01*
X3044443Y2810763D01*
X3059938Y2815844D01*
X3137915Y2815844D01*
X3117088Y2850134D02*
G01*
X3122422Y2860547D01*
X3137915Y2876295D01*
X3028950Y2876295D01*
X3137915Y2941573D02*
G01*
X3132836Y2926079D01*
X3117088Y2915665D01*
X3091179Y2910586D01*
X3075686Y2910586D01*
X3049524Y2915665D01*
X3034029Y2926079D01*
X3028950Y2941573D01*
X3028950Y2951987D01*
X3034029Y2967736D01*
X3049524Y2978150D01*
X3075686Y2983229D01*
X3091179Y2983229D01*
X3117088Y2978150D01*
X3132836Y2967736D01*
X3137915Y2951987D01*
X3137915Y2941573D01*
X2501912Y1855213D02*
G01*
X2501912Y1777235D01*
X2496832Y1761741D01*
X2486418Y1751327D01*
X2470670Y1746247D01*
X2460256Y1746247D01*
X2444762Y1751327D01*
X2434348Y1761741D01*
X2429268Y1777235D01*
X2429268Y1855213D01*
X2322080Y1839719D02*
G01*
X2332494Y1850133D01*
X2348242Y1855213D01*
X2368816Y1855213D01*
X2384564Y1850133D01*
X2394978Y1839719D01*
X2394978Y1829305D01*
X2389644Y1818891D01*
X2384564Y1813557D01*
X2374150Y1808477D01*
X2342908Y1798063D01*
X2332494Y1792983D01*
X2327414Y1787649D01*
X2322080Y1777235D01*
X2322080Y1761741D01*
X2332494Y1751327D01*
X2348242Y1746247D01*
X2368816Y1746247D01*
X2384564Y1751327D01*
X2394978Y1761741D01*
X2287790Y1855213D02*
G01*
X2287790Y1746247D01*
X2287790Y1855213D02*
G01*
X2241054Y1855213D01*
X2225560Y1850133D01*
X2220226Y1844799D01*
X2215146Y1834385D01*
X2215146Y1823971D01*
X2220226Y1813557D01*
X2225560Y1808477D01*
X2241054Y1803397D01*
X2287790Y1803397D02*
G01*
X2241054Y1803397D01*
X2225560Y1798063D01*
X2220226Y1792983D01*
X2215146Y1782569D01*
X2215146Y1766821D01*
X2220226Y1756407D01*
X2225560Y1751327D01*
X2241054Y1746247D01*
X2287790Y1746247D01*
X2180856Y1834385D02*
G01*
X2170442Y1839719D01*
X2154948Y1855213D01*
X2154948Y1746247D01*
X8179815Y1737004D02*
G01*
X8070850Y1737004D01*
X8179815Y1737004D02*
G01*
X8179815Y1783740D01*
X8174736Y1799234D01*
X8169402Y1804568D01*
X8158988Y1809648D01*
X8148574Y1809648D01*
X8138159Y1804568D01*
X8133079Y1799234D01*
X8128000Y1783740D01*
X8128000Y1737004D02*
G01*
X8128000Y1783740D01*
X8122665Y1799234D01*
X8117586Y1804568D01*
X8107172Y1809648D01*
X8091424Y1809648D01*
X8081009Y1804568D01*
X8075929Y1799234D01*
X8070850Y1783740D01*
X8070850Y1737004D01*
X8179815Y1880514D02*
G01*
X8070850Y1880514D01*
X8179815Y1843938D02*
G01*
X8179815Y1916836D01*
X8158988Y1951126D02*
G01*
X8164322Y1961540D01*
X8179815Y1977034D01*
X8070850Y1977034D01*
X6553200Y4189984D02*
G01*
X6553200Y4267962D01*
X6558279Y4283455D01*
X6568693Y4293870D01*
X6584441Y4298950D01*
X6594856Y4298950D01*
X6610350Y4293870D01*
X6620763Y4283455D01*
X6625843Y4267962D01*
X6625843Y4189984D01*
X6660134Y4210812D02*
G01*
X6670547Y4205478D01*
X6686295Y4189984D01*
X6686295Y4298950D01*
X6720586Y4210812D02*
G01*
X6731000Y4205478D01*
X6746493Y4189984D01*
X6746493Y4298950D01*
G36*
X3439515Y2757881D02*
G01*
X3398875Y2757779D01*
X3399332Y2711805D01*
X3439515Y2712161D01*
G37*
G36*
X3179724Y2758744D02*
G01*
X3139033Y2758592D01*
X3139490Y2712618D01*
X3179724Y2713024D01*
G37*
G36*
X5487924Y4874463D02*
G01*
X5481269Y4874056D01*
X5474766Y4872786D01*
X5468416Y4870754D01*
X5462422Y4867910D01*
X5456834Y4864354D01*
X5451703Y4860137D01*
X5447182Y4855311D01*
X5443270Y4849926D01*
X5440070Y4844084D01*
X5437632Y4837938D01*
X5435955Y4831486D01*
X5435142Y4824933D01*
X5435142Y4818278D01*
X5435955Y4811674D01*
X5437632Y4805273D01*
X5440070Y4799076D01*
X5443270Y4793284D01*
X5447182Y4787900D01*
X5451703Y4783074D01*
X5456834Y4778857D01*
X5462422Y4775301D01*
X5468416Y4772456D01*
X5474766Y4770424D01*
X5481269Y4769154D01*
X5487924Y4768748D01*
X5494528Y4769154D01*
X5501030Y4770424D01*
X5507380Y4772456D01*
X5513374Y4775301D01*
X5518962Y4778857D01*
X5524093Y4783074D01*
X5528614Y4787900D01*
X5532526Y4793284D01*
X5535726Y4799076D01*
X5538165Y4805273D01*
X5539841Y4811674D01*
X5540654Y4818278D01*
X5540654Y4824933D01*
X5539841Y4831486D01*
X5538165Y4837938D01*
X5535726Y4844084D01*
X5532526Y4849926D01*
X5528614Y4855311D01*
X5524093Y4860137D01*
X5518962Y4864354D01*
X5513374Y4867910D01*
X5507380Y4870754D01*
X5501030Y4872786D01*
X5494528Y4874056D01*
G37*
G36*
X2957118Y3553815D02*
G01*
X2957220Y3513175D01*
X3003194Y3513632D01*
X3002838Y3553815D01*
G37*
G36*
X2956255Y3294024D02*
G01*
X2956407Y3253333D01*
X3002381Y3253790D01*
X3001975Y3294024D01*
G37*
D11*
X3447173Y4641512D02*
G01*
X3029831Y4641512D01*
X2978500Y4488398D02*
G01*
X2978500Y4274626D01*
X3029831Y4121513D02*
G01*
X3447168Y4121513D01*
X3498499Y4274626D02*
G01*
X3498499Y4488398D01*
X3433500Y4446513D02*
G01*
X3303501Y4576513D01*
X3173498Y4576513D01*
X3043499Y4446513D01*
X3043499Y4316511D01*
X3173498Y4186511D01*
X3303501Y4186511D01*
X3433500Y4316511D01*
X3433500Y4446513D01*
X2177173Y4362112D02*
G01*
X1759831Y4362112D01*
X1708500Y4208998D02*
G01*
X1708500Y3995226D01*
X1759831Y3842113D02*
G01*
X2177168Y3842113D01*
X2228499Y3995226D02*
G01*
X2228499Y4208998D01*
X2163500Y4167113D02*
G01*
X2033501Y4297113D01*
X1903498Y4297113D01*
X1773499Y4167113D01*
X1773499Y4037111D01*
X1903498Y3907111D01*
X2033501Y3907111D01*
X2163500Y4037111D01*
X2163500Y4167113D01*
X3116742Y2308781D02*
G01*
X3116742Y2228783D01*
X3116696Y2364826D02*
G01*
X3116696Y2444823D01*
X3258710Y2308781D02*
G01*
X3258710Y2228783D01*
X3258662Y2364826D02*
G01*
X3258662Y2444823D01*
X3147725Y2197808D02*
G01*
X3227730Y2197808D01*
X3227677Y2475801D02*
G01*
X3147674Y2475801D01*
X3004657Y4981018D02*
G01*
X3004657Y5061016D01*
X3004703Y4924973D02*
G01*
X3004703Y4844976D01*
X2862689Y4981018D02*
G01*
X2862689Y5061016D01*
X2862737Y4924973D02*
G01*
X2862737Y4844976D01*
X2973674Y5091991D02*
G01*
X2893669Y5091991D01*
X2893722Y4813998D02*
G01*
X2973725Y4813998D01*
X3533218Y3853342D02*
G01*
X3613216Y3853342D01*
X3477173Y3853296D02*
G01*
X3397176Y3853296D01*
X3533218Y3995310D02*
G01*
X3613216Y3995310D01*
X3477173Y3995262D02*
G01*
X3397176Y3995262D01*
X3644191Y3884325D02*
G01*
X3644191Y3964330D01*
X3366198Y3964277D02*
G01*
X3366198Y3884274D01*
X3545918Y3662842D02*
G01*
X3625916Y3662842D01*
X3489873Y3662796D02*
G01*
X3409876Y3662796D01*
X3545918Y3804810D02*
G01*
X3625916Y3804810D01*
X3489873Y3804762D02*
G01*
X3409876Y3804762D01*
X3656891Y3693825D02*
G01*
X3656891Y3773830D01*
X3378898Y3773777D02*
G01*
X3378898Y3693774D01*
X3350181Y2014057D02*
G01*
X3270183Y2014057D01*
X3406226Y2014103D02*
G01*
X3486223Y2014103D01*
X3350181Y1872089D02*
G01*
X3270183Y1872089D01*
X3406226Y1872137D02*
G01*
X3486223Y1872137D01*
X3239208Y1983074D02*
G01*
X3239208Y1903069D01*
X3517201Y1903122D02*
G01*
X3517201Y1983125D01*
D12*
X2658109Y5097779D02*
G01*
X2658109Y4782820D01*
X2498090Y5100320D02*
G01*
X2498090Y4780279D01*
X2658109Y4972649D02*
G01*
X2498090Y4972276D01*
D10*
X3431920Y2921507D02*
G01*
X3146679Y2921507D01*
X3431920Y2750281D02*
G01*
X3431920Y3269518D01*
X3171738Y3269228D02*
G01*
X3147816Y3269896D01*
X3431920Y3269518D02*
G01*
X3407999Y3270186D01*
X3146679Y2750281D02*
G01*
X3146679Y3269518D01*
X2203409Y2749679D02*
G01*
X2203409Y2613687D01*
X1987590Y2613687D01*
X1987590Y2749679D01*
X2203409Y2939920D02*
G01*
X2203409Y3075912D01*
X1987590Y3075912D01*
X1987590Y2939920D01*
X1670009Y1390779D02*
G01*
X1670009Y1254787D01*
X1454190Y1254787D01*
X1454190Y1390779D01*
X1670009Y1581020D02*
G01*
X1670009Y1717012D01*
X1454190Y1717012D01*
X1454190Y1581020D01*
X3738321Y2352060D02*
G01*
X3834208Y2352060D01*
X3834208Y2219939D01*
X3738321Y2219939D01*
X3653078Y2352060D02*
G01*
X3557191Y2352060D01*
X3557191Y2219939D01*
X3653078Y2219939D01*
X3357321Y5120660D02*
G01*
X3453208Y5120660D01*
X3453208Y4988539D01*
X3357321Y4988539D01*
X3272078Y5120660D02*
G01*
X3176191Y5120660D01*
X3176191Y4988539D01*
X3272078Y4988539D01*
D11*
X4058183Y4947135D02*
G01*
X4058183Y5435594D01*
X4281703Y5435594D01*
X4261383Y4947135D02*
G01*
X4261383Y5435594D01*
X4546600Y5435594D01*
X4546600Y5219694D01*
X4800600Y5219694D01*
X4800600Y5435594D01*
X5054600Y5435594D01*
X5054600Y5219694D01*
X5283200Y5219694D01*
X5283200Y5435594D01*
X5511800Y5435594D01*
X5511800Y5067294D01*
X5687900Y4947135D02*
G01*
X3886200Y4947135D01*
X3886200Y4869210D02*
G01*
X3886200Y5549894D01*
X4021284Y2997194D02*
G01*
X3886200Y2997194D01*
X3886200Y3081980D01*
X5687900Y3081980D02*
G01*
X5687900Y2997194D01*
X5554515Y2997194D01*
X5687900Y5551096D02*
G01*
X5687900Y4869210D01*
X3887899Y5551096D02*
G01*
X5687900Y5551096D01*
D10*
X1864121Y5206939D02*
G01*
X1183878Y5206939D01*
X1183878Y4927660D01*
X1864121Y4927660D01*
X1864121Y5206939D01*
X1480860Y2831919D02*
G01*
X1480860Y2683421D01*
X1262339Y2683421D02*
G01*
X1262339Y2831919D01*
X1277579Y2847159D02*
G01*
X1465620Y2847159D01*
X1480860Y2349680D02*
G01*
X1480860Y2498178D01*
X1262339Y2498178D02*
G01*
X1262339Y2349680D01*
X1277579Y2334440D02*
G01*
X1465620Y2334440D01*
X4140019Y1871939D02*
G01*
X3991521Y1871939D01*
X3991521Y2090460D02*
G01*
X4140019Y2090460D01*
X4155259Y2075220D02*
G01*
X4155259Y1887179D01*
X3657780Y1871939D02*
G01*
X3806278Y1871939D01*
X3806278Y2090460D02*
G01*
X3657780Y2090460D01*
X3642540Y2075220D02*
G01*
X3642540Y1887179D01*
X1374020Y4404339D02*
G01*
X708779Y4404339D01*
X708779Y4130060D01*
X1374020Y4130060D01*
X1374020Y4404339D01*
D11*
X1382867Y145003D02*
G01*
X1375239Y145003D01*
X1375239Y139926D01*
X1375239Y132303D01*
X1375239Y109446D01*
X1309197Y109446D01*
X1309197Y132303D01*
X1309197Y139926D01*
X1375239Y139926D01*
X1393024Y155168D02*
G01*
X1393024Y180568D01*
X1375239Y200888D02*
G01*
X1375239Y277088D01*
X1365082Y287246D02*
G01*
X1319367Y287246D01*
X1309197Y277088D02*
G01*
X1309197Y200888D01*
X1291424Y180568D02*
G01*
X1291424Y155168D01*
X1301582Y145003D02*
G01*
X1309197Y145003D01*
X1309197Y139926D01*
X1309197Y132303D02*
G01*
X1375239Y132303D01*
X1801967Y145003D02*
G01*
X1794339Y145003D01*
X1794339Y139926D01*
X1794339Y132303D01*
X1794339Y109446D01*
X1728297Y109446D01*
X1728297Y132303D01*
X1728297Y139926D01*
X1794339Y139926D01*
X1812124Y155168D02*
G01*
X1812124Y180568D01*
X1794339Y200888D02*
G01*
X1794339Y277088D01*
X1784182Y287246D02*
G01*
X1738467Y287246D01*
X1728297Y277088D02*
G01*
X1728297Y200888D01*
X1710524Y180568D02*
G01*
X1710524Y155168D01*
X1720682Y145003D02*
G01*
X1728297Y145003D01*
X1728297Y139926D01*
X1728297Y132303D02*
G01*
X1794339Y132303D01*
X1239319Y567253D02*
G01*
X1174399Y567253D01*
X1924400Y567253D02*
G01*
X1859480Y567253D01*
X1174399Y365505D02*
G01*
X1174399Y567253D01*
X1174399Y41452D02*
G01*
X1174399Y142402D01*
X1924400Y365505D02*
G01*
X1924400Y567253D01*
X1924400Y40952D02*
G01*
X1924400Y142402D01*
X1924400Y40952D02*
G01*
X1174399Y41452D01*
X4502878Y58303D02*
G01*
X4142999Y58303D01*
X5765794Y365188D02*
G01*
X5765794Y136702D01*
X4581278Y136702D01*
X4502878Y58303D01*
X5765794Y1345186D02*
G01*
X5765794Y631416D01*
X4371108Y1508300D02*
G01*
X4674882Y1508300D01*
X4142999Y1508300D02*
G01*
X4164881Y1508300D01*
X4142999Y631416D02*
G01*
X4142999Y1508300D01*
X4142999Y58303D02*
G01*
X4142999Y365188D01*
D10*
X2793491Y3546220D02*
G01*
X2793491Y3260979D01*
X2964718Y3546220D02*
G01*
X2445481Y3546220D01*
X2445771Y3286038D02*
G01*
X2445103Y3262116D01*
X2445481Y3546220D02*
G01*
X2444813Y3522299D01*
X2964718Y3260979D02*
G01*
X2445481Y3260979D01*
D11*
X2453718Y2964342D02*
G01*
X2533716Y2964342D01*
X2397673Y2964296D02*
G01*
X2317676Y2964296D01*
X2453718Y3106310D02*
G01*
X2533716Y3106310D01*
X2397673Y3106262D02*
G01*
X2317676Y3106262D01*
X2564691Y2995325D02*
G01*
X2564691Y3075330D01*
X2286698Y3075277D02*
G01*
X2286698Y2995274D01*
D10*
X1991339Y3121779D02*
G01*
X1991339Y3787020D01*
X1717060Y3787020D01*
X1717060Y3121779D01*
X1991339Y3121779D01*
X2979460Y2984319D02*
G01*
X2979460Y2835821D01*
X2760939Y2835821D02*
G01*
X2760939Y2984319D01*
X2776179Y2999559D02*
G01*
X2964220Y2999559D01*
X2979460Y2502080D02*
G01*
X2979460Y2650578D01*
X2760939Y2650578D02*
G01*
X2760939Y2502080D01*
X2776179Y2486840D02*
G01*
X2964220Y2486840D01*
D11*
X2492888Y1392699D02*
G01*
X2319113Y1392699D01*
X2742897Y1392699D02*
G01*
X2649113Y1392699D01*
X2942897Y1392699D02*
G01*
X2899125Y1392699D01*
X3192884Y1392699D02*
G01*
X3099125Y1392699D01*
X3522886Y1392699D02*
G01*
X3349111Y1392699D01*
X3580998Y874585D02*
G01*
X3580998Y32702D01*
X2261001Y32702D01*
X2261001Y874585D01*
X2391829Y655495D02*
G01*
X2426627Y81836D01*
X2715145Y82318D01*
X2764650Y655825D01*
X2713774Y655444D01*
X2662745Y201419D01*
X2655227Y133601D01*
X2480246Y134668D01*
X2432850Y612493D01*
X2429852Y655495D01*
X2391829Y655495D01*
X3074708Y662378D02*
G01*
X3110268Y88338D01*
X3399828Y88338D01*
X3448088Y662378D01*
X3397288Y662378D01*
X3346767Y148866D01*
X3171736Y148866D01*
X3112808Y662378D01*
X3074708Y662378D01*
X3369525Y435861D02*
G01*
X3143516Y435861D01*
X3355530Y314855D02*
G01*
X3152533Y314855D01*
X2681414Y425955D02*
G01*
X2455405Y425955D01*
X2667419Y304949D02*
G01*
X2464422Y304949D01*
X7226300Y2667005D02*
G01*
X7226300Y2946405D01*
X7378700Y2806705D02*
G01*
X7073900Y2806705D01*
X8026400Y2710814D02*
G01*
X8026400Y647705D01*
X7581900Y3175005D02*
G01*
X7581900Y2857505D01*
X7879709Y2857505D01*
X8026400Y2710814D01*
X7429413Y3175005D02*
G01*
X7581900Y3175005D01*
X6426200Y2852602D02*
G01*
X6870700Y2852602D01*
X6870700Y3175005D01*
X7023186Y3175005D01*
X7023186Y330205D02*
G01*
X6870700Y330205D01*
X6870700Y647705D01*
X6426200Y647705D01*
X7480300Y330205D02*
G01*
X7429413Y330205D01*
X7579580Y330205D02*
G01*
X7579580Y647705D01*
X8026400Y647705D01*
X7480300Y330205D02*
G01*
X7579580Y330205D01*
X6426200Y652604D02*
G01*
X6426200Y2852602D01*
D10*
X6055979Y5272440D02*
G01*
X6055979Y4608159D01*
X7101220Y4608159D01*
X7101220Y5272440D01*
X6055979Y5272440D01*
D11*
G75*
G01*
X3258663Y2444819D02*
G03*
X3227677Y2475801I-30983J0D01*
G75*
G01*
X3147680Y2475801D02*
G03*
X3116697Y2444819I0J-30982D01*
G75*
G01*
X3116743Y2228789D02*
G03*
X3147725Y2197809I30982J3D01*
G75*
G01*
X3227723Y2197809D02*
G03*
X3258711Y2228789I5J30983D01*
G75*
G01*
X2862737Y4844981D02*
G03*
X2893723Y4813999I30983J0D01*
G75*
G01*
X2973720Y4813999D02*
G03*
X3004703Y4844981I0J30982D01*
G75*
G01*
X3004657Y5061011D02*
G03*
X2973675Y5091991I-30982J-3D01*
G75*
G01*
X2893677Y5091991D02*
G03*
X2862689Y5061011I-5J-30983D01*
G75*
G01*
X3397181Y3995263D02*
G03*
X3366199Y3964277I0J-30983D01*
G75*
G01*
X3366199Y3884280D02*
G03*
X3397181Y3853297I30982J0D01*
G75*
G01*
X3613211Y3853343D02*
G03*
X3644191Y3884325I-3J30982D01*
G75*
G01*
X3644191Y3964323D02*
G03*
X3613211Y3995311I-30983J5D01*
G75*
G01*
X3409881Y3804763D02*
G03*
X3378899Y3773777I0J-30983D01*
G75*
G01*
X3378899Y3693780D02*
G03*
X3409881Y3662797I30982J0D01*
G75*
G01*
X3625911Y3662843D02*
G03*
X3656891Y3693825I-3J30982D01*
G75*
G01*
X3656891Y3773823D02*
G03*
X3625911Y3804811I-30983J5D01*
G75*
G01*
X3486219Y1872137D02*
G03*
X3517201Y1903123I0J30983D01*
G75*
G01*
X3517201Y1983120D02*
G03*
X3486219Y2014103I-30982J0D01*
G75*
G01*
X3270189Y2014057D02*
G03*
X3239209Y1983075I3J-30982D01*
G75*
G01*
X3239209Y1903077D02*
G03*
X3270189Y1872089I30983J-5D01*
D10*
G75*
G01*
X1262339Y2831920D02*
G02*
X1277579Y2847160I15240J0D01*
G75*
G01*
X1465621Y2847160D02*
G02*
X1480861Y2831920I0J-15240D01*
G75*
G01*
X1262339Y2349680D02*
G03*
X1277579Y2334440I15240J0D01*
G75*
G01*
X1465621Y2334440D02*
G03*
X1480861Y2349680I0J15240D01*
G75*
G01*
X4140020Y2090461D02*
G02*
X4155260Y2075221I0J-15240D01*
G75*
G01*
X4155260Y1887179D02*
G02*
X4140020Y1871939I-15240J0D01*
G75*
G01*
X3657780Y2090461D02*
G03*
X3642540Y2075221I0J-15240D01*
G75*
G01*
X3642540Y1887179D02*
G03*
X3657780Y1871939I15240J0D01*
D11*
G75*
G01*
X1292598Y181110D02*
G02*
X1302598Y191110I10008J-8D01*
G75*
G01*
X1302400Y146309D02*
G02*
X1292400Y156309I8J10008D01*
G75*
G01*
X1382700Y191110D02*
G02*
X1392700Y181110I-8J-10008D01*
G75*
G01*
X1310000Y201110D02*
G02*
X1301199Y191186I-10008J10D01*
G75*
G01*
X1310000Y276207D02*
G02*
X1320000Y286207I10008J-7D01*
G75*
G01*
X1364999Y286207D02*
G02*
X1374999Y276207I-8J-10007D01*
G75*
G01*
X1383698Y191209D02*
G02*
X1375014Y201110I1298J9897D01*
G75*
G01*
X1392499Y156210D02*
G02*
X1382499Y146207I-10007J5D01*
G75*
G01*
X1711698Y181110D02*
G02*
X1721698Y191110I10008J-8D01*
G75*
G01*
X1721500Y146309D02*
G02*
X1711500Y156309I8J10008D01*
G75*
G01*
X1801800Y191110D02*
G02*
X1811800Y181110I-8J-10008D01*
G75*
G01*
X1729100Y201110D02*
G02*
X1720299Y191186I-10008J10D01*
G75*
G01*
X1729100Y276207D02*
G02*
X1739100Y286207I10008J-7D01*
G75*
G01*
X1784099Y286207D02*
G02*
X1794099Y276207I-8J-10007D01*
G75*
G01*
X1802798Y191209D02*
G02*
X1794114Y201110I1298J9897D01*
G75*
G01*
X1811599Y156210D02*
G02*
X1801599Y146207I-10007J5D01*
G75*
G01*
X2317681Y3106263D02*
G03*
X2286699Y3075277I0J-30983D01*
G75*
G01*
X2286699Y2995280D02*
G03*
X2317681Y2964297I30982J0D01*
G75*
G01*
X2533711Y2964343D02*
G03*
X2564691Y2995325I-3J30982D01*
G75*
G01*
X2564691Y3075323D02*
G03*
X2533711Y3106311I-30983J5D01*
D10*
G75*
G01*
X2760939Y2984320D02*
G02*
X2776179Y2999560I15240J0D01*
G75*
G01*
X2964221Y2999560D02*
G02*
X2979461Y2984320I0J-15240D01*
G75*
G01*
X2760939Y2502080D02*
G03*
X2776179Y2486840I15240J0D01*
G75*
G01*
X2964221Y2486840D02*
G03*
X2979461Y2502080I0J15240D01*
D11*
G75*
G01
X3368497Y4381500D02*
G03X3368497Y4381500I-129997J0D01*
G75*
G01
X2098497Y4102100D02*
G03X2098497Y4102100I-129997J0D01*
D13*
G75*
G01
X6149111Y5197196D02*
G03X6149111Y5197196I-15011J0D01*
G75*
G01
X6075172Y5415331D02*
G03X6075172Y5415331I-15011J0D01*
M02*
