G04 Layer: BottomPasteMaskLayer*
G04 EasyEDA v6.5.57, 2026-08-01 22:12:09*
G04 ce6ec3c6b95b40dda3310bd9e8daaa44,593fdc44a476429594515caf0fb21de9,10*
G04 Gerber Generator version 0.2*
G04 Scale: 100 percent, Rotated: No, Reflected: No *
G04 Dimensions in millimeters *
G04 leading zeros omitted , absolute positions ,4 integer and 5 decimal *
%FSLAX45Y45*%
%MOMM*%

%AMMACRO1*21,1,$1,$2,0,0,$3*%
%ADD10MACRO1,1.8X1.1X0.0000*%
%ADD11MACRO1,0.8X0.9X90.0000*%
%ADD12MACRO1,0.8X0.9X-90.0000*%
%ADD13MACRO1,0.8X0.9X0.0000*%
%ADD14MACRO1,1.5X1.3589X-90.0000*%
%ADD15MACRO1,2X2X-90.0000*%
%ADD16C,0.0153*%
%ADD17MACRO1,1.5X0.9X0.0000*%
%ADD18MACRO1,1.5X0.9X90.0000*%
%ADD19MACRO1,0.9X0.9001X90.0000*%
%ADD20MACRO1,0.9X0.9X90.0000*%
%ADD21MACRO1,0.9001X0.9001X90.0000*%
%ADD22MACRO1,0.9001X0.9X90.0000*%
%ADD23MACRO1,2X1.5X-90.0000*%
%ADD24MACRO1,2X3.8X-90.0000*%
%ADD25MACRO1,0.98X2.47X0.0000*%
%ADD26MACRO1,3.6X2.47X0.0000*%
%ADD27MACRO1,0.7X1.6X0.0000*%
%ADD28MACRO1,1.2X1.6X0.0000*%
%ADD29MACRO1,2.2X1.2X90.0000*%
%ADD30MACRO1,1.2X2.2X0.0000*%
%ADD31MACRO1,1.6X1.4X0.0000*%
%ADD32MACRO1,2X2X0.0000*%
%ADD33MACRO1,0.98X2.47X90.0000*%
%ADD34R,2.4700X3.6000*%
%ADD35R,1.1000X3.8000*%
%ADD36MACRO1,2.3X5.3X0.0000*%
%ADD37MACRO1,2.9X3.6X90.0000*%
%ADD38O,0.573989X2.400503*%

%LPD*%
G36*
X2020468Y2757322D02*
G01*
X2010460Y2747314D01*
X2010460Y2646527D01*
X2020468Y2636570D01*
X2170531Y2636570D01*
X2180539Y2646527D01*
X2180539Y2747314D01*
X2170531Y2757322D01*
X2134412Y2757322D01*
X2124405Y2747314D01*
X2124405Y2726232D01*
X2114397Y2716225D01*
X2076602Y2716225D01*
X2066594Y2726232D01*
X2066594Y2747314D01*
X2056587Y2757322D01*
G37*
G36*
X2020468Y3053029D02*
G01*
X2010460Y3043072D01*
X2010460Y2942285D01*
X2020468Y2932277D01*
X2056587Y2932277D01*
X2066594Y2942285D01*
X2066594Y2963367D01*
X2076602Y2973374D01*
X2114397Y2973374D01*
X2124405Y2963367D01*
X2124405Y2942285D01*
X2134412Y2932277D01*
X2170531Y2932277D01*
X2180539Y2942285D01*
X2180539Y3043072D01*
X2170531Y3053029D01*
G37*
G36*
X1487068Y1398422D02*
G01*
X1477060Y1388414D01*
X1477060Y1287627D01*
X1487068Y1277670D01*
X1637131Y1277670D01*
X1647139Y1287627D01*
X1647139Y1388414D01*
X1637131Y1398422D01*
X1601012Y1398422D01*
X1591005Y1388414D01*
X1591005Y1367332D01*
X1580997Y1357325D01*
X1543202Y1357325D01*
X1533194Y1367332D01*
X1533194Y1388414D01*
X1523187Y1398422D01*
G37*
G36*
X1487068Y1694129D02*
G01*
X1477060Y1684172D01*
X1477060Y1583385D01*
X1487068Y1573377D01*
X1523187Y1573377D01*
X1533194Y1583385D01*
X1533194Y1604467D01*
X1543202Y1614474D01*
X1580997Y1614474D01*
X1591005Y1604467D01*
X1591005Y1583385D01*
X1601012Y1573377D01*
X1637131Y1573377D01*
X1647139Y1583385D01*
X1647139Y1684172D01*
X1637131Y1694129D01*
G37*
G36*
X3735222Y2331008D02*
G01*
X3730193Y2325979D01*
X3730193Y2301798D01*
X3767175Y2301798D01*
X3767175Y2268778D01*
X3730193Y2268778D01*
X3730193Y2246020D01*
X3735222Y2240991D01*
X3815181Y2240991D01*
X3820210Y2246020D01*
X3820210Y2325979D01*
X3815181Y2331008D01*
G37*
G36*
X3576218Y2331008D02*
G01*
X3571189Y2325979D01*
X3571189Y2246020D01*
X3576218Y2240991D01*
X3656177Y2240991D01*
X3661206Y2246020D01*
X3661206Y2270201D01*
X3624224Y2270201D01*
X3624224Y2303221D01*
X3661206Y2303221D01*
X3661206Y2325979D01*
X3656177Y2331008D01*
G37*
G36*
X3354222Y5099608D02*
G01*
X3349193Y5094579D01*
X3349193Y5070398D01*
X3386175Y5070398D01*
X3386175Y5037378D01*
X3349193Y5037378D01*
X3349193Y5014620D01*
X3354222Y5009591D01*
X3434181Y5009591D01*
X3439210Y5014620D01*
X3439210Y5094579D01*
X3434181Y5099608D01*
G37*
G36*
X3195218Y5099608D02*
G01*
X3190189Y5094579D01*
X3190189Y5014620D01*
X3195218Y5009591D01*
X3275177Y5009591D01*
X3280206Y5014620D01*
X3280206Y5038801D01*
X3243224Y5038801D01*
X3243224Y5071821D01*
X3280206Y5071821D01*
X3280206Y5094579D01*
X3275177Y5099608D01*
G37*
G36*
X1295196Y2824276D02*
G01*
X1285189Y2814320D01*
X1285189Y2685796D01*
X1295196Y2675788D01*
X1332230Y2675788D01*
X1342237Y2685796D01*
X1342237Y2716276D01*
X1352245Y2726283D01*
X1390954Y2726283D01*
X1400962Y2716276D01*
X1400962Y2685796D01*
X1410970Y2675788D01*
X1448003Y2675788D01*
X1458010Y2685796D01*
X1458010Y2814320D01*
X1448003Y2824276D01*
G37*
G36*
X1295196Y2505811D02*
G01*
X1285189Y2495804D01*
X1285189Y2367280D01*
X1295196Y2357323D01*
X1448003Y2357323D01*
X1458010Y2367280D01*
X1458010Y2495804D01*
X1448003Y2505811D01*
X1410970Y2505811D01*
X1400962Y2495804D01*
X1400962Y2465324D01*
X1390954Y2455316D01*
X1352245Y2455316D01*
X1342237Y2465324D01*
X1342237Y2495804D01*
X1332230Y2505811D01*
G37*
G36*
X3993896Y2067610D02*
G01*
X3983888Y2057603D01*
X3983888Y2020570D01*
X3993896Y2010562D01*
X4024376Y2010562D01*
X4034383Y2000554D01*
X4034383Y1961845D01*
X4024376Y1951837D01*
X3993896Y1951837D01*
X3983888Y1941830D01*
X3983888Y1904796D01*
X3993896Y1894789D01*
X4122420Y1894789D01*
X4132376Y1904796D01*
X4132376Y2057603D01*
X4122420Y2067610D01*
G37*
G36*
X3675379Y2067610D02*
G01*
X3665423Y2057603D01*
X3665423Y1904796D01*
X3675379Y1894789D01*
X3803904Y1894789D01*
X3813911Y1904796D01*
X3813911Y1941830D01*
X3803904Y1951837D01*
X3773424Y1951837D01*
X3763416Y1961845D01*
X3763416Y2000554D01*
X3773424Y2010562D01*
X3803904Y2010562D01*
X3813911Y2020570D01*
X3813911Y2057603D01*
X3803904Y2067610D01*
G37*
G36*
X1399387Y636473D02*
G01*
X1399387Y436473D01*
X1439418Y436473D01*
X1439418Y636473D01*
G37*
G36*
X1464411Y636473D02*
G01*
X1464411Y436473D01*
X1504391Y436473D01*
X1504391Y636473D01*
G37*
G36*
X1529384Y636473D02*
G01*
X1529384Y436473D01*
X1569415Y436473D01*
X1569415Y636473D01*
G37*
G36*
X1594408Y636473D02*
G01*
X1594408Y436473D01*
X1634388Y436473D01*
X1634388Y636473D01*
G37*
G36*
X1659382Y636473D02*
G01*
X1659382Y436473D01*
X1699412Y436473D01*
X1699412Y636473D01*
G37*
G36*
X1306271Y578916D02*
G01*
X1301242Y578662D01*
X1296212Y578002D01*
X1291285Y576884D01*
X1286459Y575360D01*
X1281785Y573430D01*
X1277264Y571093D01*
X1272997Y568452D01*
X1268933Y565404D01*
X1265174Y562051D01*
X1261668Y558342D01*
X1258519Y554431D01*
X1255674Y550214D01*
X1253236Y545795D01*
X1251153Y541172D01*
X1249527Y536397D01*
X1248257Y531520D01*
X1247394Y526491D01*
X1246936Y521462D01*
X1246936Y516432D01*
X1247394Y511352D01*
X1248257Y506374D01*
X1249527Y501497D01*
X1251153Y496722D01*
X1253236Y492099D01*
X1255674Y487680D01*
X1258519Y483463D01*
X1261668Y479501D01*
X1265174Y475843D01*
X1268933Y472490D01*
X1272997Y469442D01*
X1277264Y466750D01*
X1281785Y464464D01*
X1286459Y462534D01*
X1291285Y461009D01*
X1296212Y459892D01*
X1301242Y459232D01*
X1306271Y458927D01*
X1311351Y459079D01*
X1316329Y459689D01*
X1321308Y460705D01*
X1326184Y462127D01*
X1330909Y463956D01*
X1335430Y466140D01*
X1339799Y468731D01*
X1343914Y471678D01*
X1347724Y474980D01*
X1351280Y478586D01*
X1354531Y482447D01*
X1357426Y486613D01*
X1359966Y490982D01*
X1362151Y495554D01*
X1363929Y500278D01*
X1365300Y505155D01*
X1366266Y510133D01*
X1366774Y515162D01*
X1366875Y520192D01*
X1366570Y525272D01*
X1365808Y530250D01*
X1364640Y535178D01*
X1363116Y540004D01*
X1361135Y544626D01*
X1358747Y549148D01*
X1356055Y553364D01*
X1352956Y557377D01*
X1349552Y561136D01*
X1345844Y564591D01*
X1341882Y567690D01*
X1337614Y570484D01*
X1333195Y572871D01*
X1328521Y574903D01*
X1323746Y576529D01*
X1318818Y577748D01*
X1313840Y578561D01*
G37*
G36*
X1791258Y578916D02*
G01*
X1786229Y578662D01*
X1781200Y578002D01*
X1776272Y576884D01*
X1771446Y575360D01*
X1766773Y573430D01*
X1762252Y571093D01*
X1757984Y568452D01*
X1753920Y565404D01*
X1750161Y562051D01*
X1746656Y558342D01*
X1743506Y554431D01*
X1740662Y550214D01*
X1738223Y545795D01*
X1736140Y541172D01*
X1734464Y536397D01*
X1733245Y531520D01*
X1732381Y526491D01*
X1731924Y521462D01*
X1731924Y516432D01*
X1732381Y511352D01*
X1733245Y506374D01*
X1734464Y501497D01*
X1736140Y496722D01*
X1738223Y492099D01*
X1740662Y487680D01*
X1743506Y483463D01*
X1746656Y479501D01*
X1750161Y475843D01*
X1753920Y472490D01*
X1757984Y469442D01*
X1762252Y466750D01*
X1766773Y464464D01*
X1771446Y462534D01*
X1776272Y461009D01*
X1781200Y459892D01*
X1786229Y459232D01*
X1791258Y458927D01*
X1796338Y459079D01*
X1801317Y459689D01*
X1806295Y460705D01*
X1811172Y462127D01*
X1815896Y463956D01*
X1820418Y466140D01*
X1824786Y468731D01*
X1828901Y471678D01*
X1832711Y474980D01*
X1836267Y478586D01*
X1839518Y482447D01*
X1842414Y486613D01*
X1844954Y490982D01*
X1847138Y495554D01*
X1848916Y500278D01*
X1850288Y505155D01*
X1851253Y510133D01*
X1851761Y515162D01*
X1851863Y520192D01*
X1851558Y525272D01*
X1850796Y530250D01*
X1849628Y535178D01*
X1848104Y540004D01*
X1846122Y544626D01*
X1843735Y549148D01*
X1841042Y553364D01*
X1837943Y557377D01*
X1834540Y561136D01*
X1830832Y564591D01*
X1826869Y567690D01*
X1822602Y570484D01*
X1818182Y572871D01*
X1813509Y574903D01*
X1808734Y576529D01*
X1803806Y577748D01*
X1798828Y578561D01*
G37*
G36*
X1188161Y340918D02*
G01*
X1183182Y340563D01*
X1178306Y339699D01*
X1173480Y338328D01*
X1168857Y336499D01*
X1164386Y334264D01*
X1160221Y331520D01*
X1156309Y328422D01*
X1152753Y324967D01*
X1149553Y321157D01*
X1146759Y317042D01*
X1144371Y312623D01*
X1142441Y308051D01*
X1140968Y303276D01*
X1139952Y298399D01*
X1139444Y293420D01*
X1139393Y210921D01*
X1139647Y205943D01*
X1140409Y201015D01*
X1141628Y196189D01*
X1143355Y191516D01*
X1145489Y187045D01*
X1148080Y182778D01*
X1151077Y178816D01*
X1154480Y175158D01*
X1158240Y171856D01*
X1162304Y168960D01*
X1166571Y166471D01*
X1171143Y164388D01*
X1175867Y162814D01*
X1180744Y161696D01*
X1185672Y161086D01*
X1190650Y160985D01*
X1195628Y161340D01*
X1200505Y162204D01*
X1205331Y163525D01*
X1209954Y165354D01*
X1214424Y167640D01*
X1218590Y170332D01*
X1222502Y173482D01*
X1226058Y176936D01*
X1229258Y180746D01*
X1232052Y184861D01*
X1234440Y189230D01*
X1236370Y193852D01*
X1237843Y198628D01*
X1238859Y203504D01*
X1239367Y208432D01*
X1239418Y290931D01*
X1239164Y295910D01*
X1238402Y300837D01*
X1237183Y305663D01*
X1235456Y310388D01*
X1233322Y314858D01*
X1230731Y319125D01*
X1227734Y323088D01*
X1224330Y326745D01*
X1220571Y330047D01*
X1216507Y332943D01*
X1212240Y335432D01*
X1207668Y337464D01*
X1202944Y339090D01*
X1198067Y340207D01*
X1193139Y340817D01*
G37*
G36*
X1908149Y340918D02*
G01*
X1903171Y340563D01*
X1898294Y339699D01*
X1893468Y338328D01*
X1888845Y336499D01*
X1884375Y334264D01*
X1880209Y331520D01*
X1876298Y328422D01*
X1872742Y324967D01*
X1869541Y321157D01*
X1866747Y317042D01*
X1864360Y312623D01*
X1862429Y308051D01*
X1860956Y303276D01*
X1859940Y298399D01*
X1859432Y293420D01*
X1859381Y210921D01*
X1859635Y205943D01*
X1860397Y201015D01*
X1861616Y196189D01*
X1863343Y191516D01*
X1865477Y187045D01*
X1868068Y182778D01*
X1871065Y178816D01*
X1874469Y175158D01*
X1878228Y171856D01*
X1882292Y168960D01*
X1886559Y166471D01*
X1891131Y164388D01*
X1895856Y162814D01*
X1900732Y161696D01*
X1905660Y161086D01*
X1910638Y160985D01*
X1915617Y161340D01*
X1920493Y162204D01*
X1925320Y163525D01*
X1929942Y165354D01*
X1934413Y167640D01*
X1938578Y170332D01*
X1942490Y173482D01*
X1946046Y176936D01*
X1949246Y180746D01*
X1952040Y184861D01*
X1954428Y189230D01*
X1956358Y193852D01*
X1957832Y198628D01*
X1958848Y203504D01*
X1959356Y208432D01*
X1959406Y290931D01*
X1959152Y295910D01*
X1958390Y300837D01*
X1957171Y305663D01*
X1955444Y310388D01*
X1953310Y314858D01*
X1950720Y319125D01*
X1947672Y323088D01*
X1944319Y326745D01*
X1940560Y330047D01*
X1936496Y332943D01*
X1932228Y335432D01*
X1927656Y337464D01*
X1922932Y339090D01*
X1918055Y340207D01*
X1913128Y340817D01*
G37*
G36*
X2793796Y2976676D02*
G01*
X2783789Y2966720D01*
X2783789Y2838196D01*
X2793796Y2828188D01*
X2830830Y2828188D01*
X2840837Y2838196D01*
X2840837Y2868676D01*
X2850845Y2878683D01*
X2889554Y2878683D01*
X2899562Y2868676D01*
X2899562Y2838196D01*
X2909570Y2828188D01*
X2946603Y2828188D01*
X2956610Y2838196D01*
X2956610Y2966720D01*
X2946603Y2976676D01*
G37*
G36*
X2793796Y2658211D02*
G01*
X2783789Y2648204D01*
X2783789Y2519680D01*
X2793796Y2509723D01*
X2946603Y2509723D01*
X2956610Y2519680D01*
X2956610Y2648204D01*
X2946603Y2658211D01*
X2909570Y2658211D01*
X2899562Y2648204D01*
X2899562Y2617724D01*
X2889554Y2607716D01*
X2850845Y2607716D01*
X2840837Y2617724D01*
X2840837Y2648204D01*
X2830830Y2658211D01*
G37*
D10*
G01*
X3548499Y4566512D03*
G01*
X2928500Y4566513D03*
G01*
X3548499Y4196511D03*
G01*
X2928500Y4196511D03*
G01*
X2278499Y4287112D03*
G01*
X1658500Y4287113D03*
G01*
X2278499Y3917111D03*
G01*
X1658500Y3917111D03*
D11*
G01*
X3187700Y2406799D03*
G01*
X3187700Y2266800D03*
D12*
G01*
X2933700Y4883000D03*
G01*
X2933700Y5022999D03*
D13*
G01*
X3435200Y3924300D03*
G01*
X3575199Y3924300D03*
G01*
X3447900Y3733800D03*
G01*
X3587899Y3733800D03*
G01*
X3448199Y1943100D03*
G01*
X3308200Y1943100D03*
D14*
G01*
X2578100Y5060299D03*
G01*
X2578100Y4820301D03*
D15*
G01*
X3289300Y3229899D03*
G01*
X3289300Y2789900D03*
D17*
G01*
X5662900Y4801095D03*
G01*
X5662899Y4674095D03*
G01*
X5662899Y4547095D03*
G01*
X5662899Y4420095D03*
G01*
X5662899Y4293095D03*
G01*
X5662899Y4166095D03*
G01*
X5662899Y4039095D03*
G01*
X5662899Y3912095D03*
G01*
X5662899Y3785095D03*
G01*
X5662899Y3658095D03*
G01*
X5662899Y3531095D03*
G01*
X5662899Y3404095D03*
G01*
X5662899Y3277095D03*
G01*
X5662899Y3150095D03*
D18*
G01*
X5486400Y3022094D03*
G01*
X5359400Y3022094D03*
G01*
X5232400Y3022094D03*
G01*
X5105400Y3022094D03*
G01*
X4978400Y3022094D03*
G01*
X4851400Y3022094D03*
G01*
X4724400Y3022094D03*
G01*
X4597400Y3022094D03*
G01*
X4470400Y3022094D03*
G01*
X4343400Y3022094D03*
G01*
X4216400Y3022094D03*
G01*
X4089400Y3025099D03*
D17*
G01*
X3912900Y3150095D03*
G01*
X3912900Y3277095D03*
G01*
X3912900Y3404095D03*
G01*
X3912900Y3531095D03*
G01*
X3912900Y3658095D03*
G01*
X3912900Y3785095D03*
G01*
X3912900Y3912095D03*
G01*
X3912900Y4039095D03*
G01*
X3912900Y4166095D03*
G01*
X3912900Y4293095D03*
G01*
X3912900Y4420095D03*
G01*
X3912900Y4547095D03*
G01*
X3912900Y4674095D03*
G01*
X3912900Y4801095D03*
D19*
G01*
X4797910Y3889085D03*
D20*
G01*
X4937909Y3889075D03*
G01*
X5077907Y3889085D03*
G01*
X5077907Y4169084D03*
G01*
X4937909Y4169084D03*
D19*
G01*
X4797910Y4169084D03*
D21*
G01*
X4797910Y4029085D03*
D22*
G01*
X5077908Y4029085D03*
G01*
X4937909Y4029085D03*
D23*
G01*
X1753996Y4781550D03*
G01*
X1524000Y4781550D03*
G01*
X1294003Y4781550D03*
D24*
G01*
X1524000Y5353050D03*
D25*
G01*
X1271400Y3983700D03*
G01*
X1041400Y3983700D03*
G01*
X811399Y3983700D03*
D26*
G01*
X1041400Y4550699D03*
D27*
G01*
X4732996Y1508300D03*
G01*
X4842996Y1508300D03*
G01*
X4952996Y1508300D03*
G01*
X5062995Y1508300D03*
G01*
X5172995Y1508300D03*
G01*
X5282995Y1508300D03*
G01*
X5392995Y1508300D03*
G01*
X5502995Y1508300D03*
G01*
X5612994Y1508300D03*
D28*
G01*
X5727994Y1448300D03*
D29*
G01*
X5727994Y498302D03*
D30*
G01*
X4178000Y498302D03*
D31*
G01*
X4267995Y1458300D03*
D32*
G01*
X2485100Y3403600D03*
G01*
X2925099Y3403600D03*
D13*
G01*
X2355700Y3035300D03*
G01*
X2495699Y3035300D03*
D33*
G01*
X1570700Y3224399D03*
G01*
X1570700Y3454400D03*
G01*
X1570700Y3684400D03*
D34*
G01*
X2137689Y3454400D03*
D35*
G01*
X3271011Y1402689D03*
G01*
X3020999Y1402689D03*
G01*
X2821000Y1402689D03*
G01*
X2571013Y1402689D03*
D36*
G01*
X3660998Y1162698D03*
G01*
X2181001Y1162698D03*
D37*
G01*
X7226300Y287610D03*
G01*
X7226300Y3217602D03*
D38*
G01*
X6134100Y5415330D03*
G01*
X6261100Y5415330D03*
G01*
X6388100Y5415330D03*
G01*
X6515100Y5415330D03*
G01*
X6642100Y5415330D03*
G01*
X6769100Y5415330D03*
G01*
X6896100Y5415330D03*
G01*
X7023100Y5415330D03*
G01*
X6134100Y4465269D03*
G01*
X6261100Y4465269D03*
G01*
X6388100Y4465269D03*
G01*
X6515100Y4465269D03*
G01*
X6642100Y4465269D03*
G01*
X6769100Y4465269D03*
G01*
X6896100Y4465269D03*
G01*
X7023100Y4465269D03*
M02*
