G04 Layer: BottomSolderMaskLayer*
G04 EasyEDA v6.5.57, 2026-08-01 22:12:09*
G04 ce6ec3c6b95b40dda3310bd9e8daaa44,593fdc44a476429594515caf0fb21de9,10*
G04 Gerber Generator version 0.2*
G04 Scale: 100 percent, Rotated: No, Reflected: No *
G04 Dimensions in millimeters *
G04 leading zeros omitted , absolute positions ,4 integer and 5 decimal *
%FSLAX45Y45*%
%MOMM*%

%AMMACRO1*4,1,8,-0.9211,-0.6008,-0.9508,-0.571,-0.9508,0.5711,-0.9211,0.6008,0.921,0.6008,0.9508,0.5711,0.9508,-0.571,0.921,-0.6008,-0.9211,-0.6008,0*%
%AMMACRO2*4,1,8,-0.4711,-0.4508,-0.5008,-0.421,-0.5008,0.4211,-0.4711,0.4508,0.471,0.4508,0.5008,0.4211,0.5008,-0.421,0.471,-0.4508,-0.4711,-0.4508,0*%
%AMMACRO3*4,1,8,-0.4211,-0.5008,-0.4508,-0.471,-0.4508,0.4711,-0.4211,0.5008,0.421,0.5008,0.4508,0.4711,0.4508,-0.471,0.421,-0.5008,-0.4211,-0.5008,0*%
%AMMACRO4*4,1,8,-0.7005,-0.8008,-0.7303,-0.771,-0.7303,0.7711,-0.7005,0.8008,0.7005,0.8008,0.7303,0.7711,0.7303,-0.771,0.7005,-0.8008,-0.7005,-0.8008,0*%
%AMMACRO5*4,1,8,-1.0211,-1.0508,-1.0508,-1.021,-1.0508,1.0211,-1.0211,1.0508,1.021,1.0508,1.0508,1.0211,1.0508,-1.021,1.021,-1.0508,-1.0211,-1.0508,0*%
%AMMACRO6*4,1,8,-0.8716,-0.6546,-0.9013,-0.6248,-0.9013,0.6248,-0.8716,0.6546,0.8715,0.6546,0.9013,0.6248,0.9013,-0.6248,0.8715,-0.6546,-0.8716,-0.6546,0*%
%AMMACRO7*4,1,8,-0.4243,-0.4828,-0.454,-0.453,-0.454,0.4531,-0.4243,0.4828,0.4243,0.4828,0.454,0.4531,0.454,-0.453,0.4243,-0.4828,-0.4243,-0.4828,0*%
%AMMACRO8*4,1,8,-0.7707,-0.5,-0.8,-0.4707,-0.8,0.4707,-0.7707,0.5,0.7707,0.5,0.8,0.4707,0.8,-0.4707,0.7707,-0.5,-0.7707,-0.5,0*%
%AMMACRO9*4,1,8,-0.4707,-0.8,-0.5,-0.7707,-0.5,0.7707,-0.4707,0.8,0.4707,0.8,0.5,0.7707,0.5,-0.7707,0.4707,-0.8,-0.4707,-0.8,0*%
%AMMACRO10*4,1,8,-0.4711,-0.5008,-0.5008,-0.471,-0.5008,0.4711,-0.4711,0.5008,0.4711,0.5008,0.5008,0.4711,0.5008,-0.471,0.4711,-0.5008,-0.4711,-0.5008,0*%
%AMMACRO11*4,1,8,-0.4711,-0.5008,-0.5008,-0.471,-0.5008,0.4711,-0.4711,0.5008,0.471,0.5008,0.5008,0.4711,0.5008,-0.471,0.471,-0.5008,-0.4711,-0.5008,0*%
%AMMACRO12*4,1,8,-0.4711,-0.5008,-0.5008,-0.4711,-0.5008,0.4711,-0.4711,0.5008,0.4711,0.5008,0.5008,0.4711,0.5008,-0.4711,0.4711,-0.5008,-0.4711,-0.5008,0*%
%AMMACRO13*4,1,8,-0.4711,-0.5008,-0.5008,-0.4711,-0.5008,0.4711,-0.4711,0.5008,0.471,0.5008,0.5008,0.4711,0.5008,-0.4711,0.471,-0.5008,-0.4711,-0.5008,0*%
%AMMACRO14*4,1,8,-0.7711,-1.0508,-0.8008,-1.021,-0.8008,1.0211,-0.7711,1.0508,0.771,1.0508,0.8008,1.0211,0.8008,-1.021,0.771,-1.0508,-0.7711,-1.0508,0*%
%AMMACRO15*4,1,8,-1.9211,-1.0508,-1.9508,-1.021,-1.9508,1.0211,-1.9211,1.0508,1.921,1.0508,1.9508,1.0211,1.9508,-1.021,1.921,-1.0508,-1.9211,-1.0508,0*%
%AMMACRO16*4,1,8,-0.8851,-0.7933,-0.9148,-0.7635,-0.9148,0.7635,-0.8851,0.7933,0.885,0.7933,0.9148,0.7635,0.9148,-0.7635,0.885,-0.7933,-0.8851,-0.7933,0*%
%AMMACRO17*4,1,8,-0.7635,-0.9148,-0.7933,-0.885,-0.7933,0.8851,-0.7635,0.9148,0.7635,0.9148,0.7933,0.8851,0.7933,-0.885,0.7635,-0.9148,-0.7635,-0.9148,0*%
%AMMACRO18*4,1,8,-0.5111,-1.2858,-0.5408,-1.256,-0.5408,1.2561,-0.5111,1.2858,0.511,1.2858,0.5408,1.2561,0.5408,-1.256,0.511,-1.2858,-0.5111,-1.2858,0*%
%AMMACRO19*4,1,8,-0.511,-1.2858,-0.5408,-1.256,-0.5408,1.2561,-0.511,1.2858,0.511,1.2858,0.5408,1.2561,0.5408,-1.256,0.511,-1.2858,-0.511,-1.2858,0*%
%AMMACRO20*4,1,8,-1.8211,-1.2858,-1.8508,-1.256,-1.8508,1.2561,-1.8211,1.2858,1.821,1.2858,1.8508,1.2561,1.8508,-1.256,1.821,-1.2858,-1.8211,-1.2858,0*%
%AMMACRO21*4,1,8,-0.2207,-1.05,-0.25,-1.0207,-0.25,1.0207,-0.2207,1.05,0.2207,1.05,0.25,1.0207,0.25,-1.0207,0.2207,-1.05,-0.2207,-1.05,0*%
%AMMACRO22*4,1,8,-0.3711,-0.8508,-0.4008,-0.821,-0.4008,0.8211,-0.3711,0.8508,0.371,0.8508,0.4008,0.8211,0.4008,-0.821,0.371,-0.8508,-0.3711,-0.8508,0*%
%AMMACRO23*4,1,8,-0.6211,-0.8508,-0.6508,-0.821,-0.6508,0.8211,-0.6211,0.8508,0.621,0.8508,0.6508,0.8211,0.6508,-0.821,0.621,-0.8508,-0.6211,-0.8508,0*%
%AMMACRO24*4,1,8,-0.6211,-1.1508,-0.6508,-1.121,-0.6508,1.1211,-0.6211,1.1508,0.621,1.1508,0.6508,1.1211,0.6508,-1.121,0.621,-1.1508,-0.6211,-1.1508,0*%
%AMMACRO25*4,1,8,-0.8211,-0.7508,-0.8508,-0.721,-0.8508,0.7211,-0.8211,0.7508,0.821,0.7508,0.8508,0.7211,0.8508,-0.721,0.821,-0.7508,-0.8211,-0.7508,0*%
%AMMACRO26*4,1,8,-1.2561,-0.5408,-1.2858,-0.511,-1.2858,0.5111,-1.2561,0.5408,1.256,0.5408,1.2858,0.5111,1.2858,-0.511,1.256,-0.5408,-1.2561,-0.5408,0*%
%AMMACRO27*4,1,8,-1.2561,-0.5408,-1.2858,-0.511,-1.2858,0.511,-1.2561,0.5408,1.256,0.5408,1.2858,0.511,1.2858,-0.511,1.256,-0.5408,-1.2561,-0.5408,0*%
%AMMACRO28*4,1,8,-1.2561,-1.8508,-1.2858,-1.821,-1.2858,1.8211,-1.2561,1.8508,1.256,1.8508,1.2858,1.8211,1.2858,-1.821,1.256,-1.8508,-1.2561,-1.8508,0*%
%AMMACRO29*4,1,8,-0.571,-1.9508,-0.6008,-1.921,-0.6008,1.9211,-0.571,1.9508,0.571,1.9508,0.6008,1.9211,0.6008,-1.921,0.571,-1.9508,-0.571,-1.9508,0*%
%AMMACRO30*4,1,8,-0.5711,-1.9508,-0.6008,-1.921,-0.6008,1.9211,-0.5711,1.9508,0.571,1.9508,0.6008,1.9211,0.6008,-1.921,0.571,-1.9508,-0.5711,-1.9508,0*%
%AMMACRO31*4,1,8,-1.171,-2.7008,-1.2008,-2.671,-1.2008,2.6711,-1.171,2.7008,1.171,2.7008,1.2008,2.6711,1.2008,-2.671,1.171,-2.7008,-1.171,-2.7008,0*%
%AMMACRO32*4,1,8,-1.8211,-1.5008,-1.8508,-1.471,-1.8508,1.4711,-1.8211,1.5008,1.821,1.5008,1.8508,1.4711,1.8508,-1.471,1.821,-1.5008,-1.8211,-1.5008,0*%
%ADD10MACRO1*%
%ADD11MACRO2*%
%ADD12MACRO3*%
%ADD13MACRO4*%
%ADD14MACRO5*%
%ADD15C,0.0101*%
%ADD16MACRO6*%
%ADD17MACRO7*%
%ADD18MACRO8*%
%ADD19MACRO9*%
%ADD20MACRO10*%
%ADD21MACRO11*%
%ADD22MACRO12*%
%ADD23MACRO13*%
%ADD24MACRO14*%
%ADD25MACRO15*%
%ADD26MACRO16*%
%ADD27MACRO17*%
%ADD28MACRO18*%
%ADD29MACRO19*%
%ADD30MACRO20*%
%ADD31MACRO21*%
%ADD32C,1.3000*%
%ADD33O,1.100023X1.900022*%
%ADD34MACRO22*%
%ADD35MACRO23*%
%ADD36MACRO24*%
%ADD37MACRO25*%
%ADD38MACRO26*%
%ADD39MACRO27*%
%ADD40MACRO28*%
%ADD41MACRO29*%
%ADD42MACRO30*%
%ADD43MACRO31*%
%ADD44MACRO32*%
%ADD45O,0.675589X2.502103*%
%ADD46C,2.1016*%

%LPD*%
D10*
G01*
X3548499Y4566512D03*
G01*
X2928500Y4566513D03*
G01*
X3548499Y4196511D03*
G01*
X2928500Y4196511D03*
G01*
X2278499Y4287112D03*
G01*
X1658500Y4287113D03*
G01*
X2278499Y3917111D03*
G01*
X1658500Y3917111D03*
D11*
G01*
X3187700Y2406799D03*
G01*
X3187700Y2266800D03*
G01*
X2933700Y4883000D03*
G01*
X2933700Y5022999D03*
D12*
G01*
X3435200Y3924300D03*
G01*
X3575199Y3924300D03*
G01*
X3447900Y3733800D03*
G01*
X3587899Y3733800D03*
G01*
X3448199Y1943100D03*
G01*
X3308200Y1943100D03*
D13*
G01*
X2578100Y5060299D03*
G01*
X2578100Y4820301D03*
D14*
G01*
X3289300Y3229899D03*
G01*
X3289300Y2789900D03*
D16*
G01*
X2095500Y2696923D03*
G01*
X2095500Y2992676D03*
G01*
X1562100Y1338023D03*
G01*
X1562100Y1633776D03*
D17*
G01*
X3771024Y2286000D03*
G01*
X3620375Y2286000D03*
G01*
X3390024Y5054600D03*
G01*
X3239375Y5054600D03*
D18*
G01*
X5662900Y4801095D03*
G01*
X5662899Y4674095D03*
G01*
X5662899Y4547095D03*
G01*
X5662899Y4420095D03*
G01*
X5662899Y4293095D03*
G01*
X5662899Y4166095D03*
G01*
X5662899Y4039095D03*
G01*
X5662899Y3912095D03*
G01*
X5662899Y3785095D03*
G01*
X5662899Y3658095D03*
G01*
X5662899Y3531095D03*
G01*
X5662899Y3404095D03*
G01*
X5662899Y3277095D03*
G01*
X5662899Y3150095D03*
D19*
G01*
X5486400Y3022094D03*
G01*
X5359400Y3022094D03*
G01*
X5232400Y3022094D03*
G01*
X5105400Y3022094D03*
G01*
X4978400Y3022094D03*
G01*
X4851400Y3022094D03*
G01*
X4724400Y3022094D03*
G01*
X4597400Y3022094D03*
G01*
X4470400Y3022094D03*
G01*
X4343400Y3022094D03*
G01*
X4216400Y3022094D03*
G01*
X4089400Y3025099D03*
D18*
G01*
X3912900Y3150095D03*
G01*
X3912900Y3277095D03*
G01*
X3912900Y3404095D03*
G01*
X3912900Y3531095D03*
G01*
X3912900Y3658095D03*
G01*
X3912900Y3785095D03*
G01*
X3912900Y3912095D03*
G01*
X3912900Y4039095D03*
G01*
X3912900Y4166095D03*
G01*
X3912900Y4293095D03*
G01*
X3912900Y4420095D03*
G01*
X3912900Y4547095D03*
G01*
X3912900Y4674095D03*
G01*
X3912900Y4801095D03*
D20*
G01*
X4797910Y3889085D03*
D21*
G01*
X4937909Y3889075D03*
G01*
X5077907Y3889085D03*
G01*
X5077907Y4169084D03*
G01*
X4937909Y4169084D03*
D20*
G01*
X4797910Y4169084D03*
D22*
G01*
X4797910Y4029085D03*
D23*
G01*
X5077908Y4029085D03*
G01*
X4937909Y4029085D03*
D24*
G01*
X1753997Y4781550D03*
G01*
X1524000Y4781550D03*
G01*
X1294002Y4781550D03*
D25*
G01*
X1524000Y5353050D03*
D26*
G01*
X1371600Y2750050D03*
G01*
X1371600Y2431549D03*
D27*
G01*
X4058150Y1981200D03*
G01*
X3739649Y1981200D03*
D28*
G01*
X1271400Y3983700D03*
D29*
G01*
X1041400Y3983700D03*
D28*
G01*
X811399Y3983700D03*
D30*
G01*
X1041400Y4550699D03*
D31*
G01*
X1419402Y536453D03*
G01*
X1484401Y536453D03*
G01*
X1549400Y536453D03*
G01*
X1614398Y536453D03*
G01*
X1679397Y536453D03*
D32*
G01*
X1791893Y518947D03*
D33*
G01*
X1909394Y250952D03*
G01*
X1189405Y250952D03*
D32*
G01*
X1306906Y518947D03*
D34*
G01*
X4732996Y1508300D03*
G01*
X4842996Y1508300D03*
G01*
X4952996Y1508300D03*
G01*
X5062995Y1508300D03*
G01*
X5172995Y1508300D03*
G01*
X5282995Y1508300D03*
G01*
X5392995Y1508300D03*
G01*
X5502995Y1508300D03*
G01*
X5612994Y1508300D03*
D35*
G01*
X5727994Y1448300D03*
D36*
G01*
X5727994Y498302D03*
G01*
X4178000Y498302D03*
D37*
G01*
X4267995Y1458300D03*
D14*
G01*
X2485100Y3403600D03*
G01*
X2925099Y3403600D03*
D12*
G01*
X2355700Y3035300D03*
G01*
X2495699Y3035300D03*
D38*
G01*
X1570700Y3224399D03*
D39*
G01*
X1570700Y3454400D03*
D38*
G01*
X1570700Y3684400D03*
D40*
G01*
X2137699Y3454400D03*
D26*
G01*
X2870200Y2902450D03*
G01*
X2870200Y2583949D03*
D41*
G01*
X3270999Y1402699D03*
D42*
G01*
X3020988Y1402699D03*
G01*
X2820988Y1402699D03*
G01*
X2571001Y1402699D03*
D43*
G01*
X3660998Y1162698D03*
G01*
X2181001Y1162698D03*
D44*
G01*
X7226300Y287610D03*
G01*
X7226300Y3217602D03*
D45*
G01*
X6134100Y5415330D03*
G01*
X6261100Y5415330D03*
G01*
X6388100Y5415330D03*
G01*
X6515100Y5415330D03*
G01*
X6642100Y5415330D03*
G01*
X6769100Y5415330D03*
G01*
X6896100Y5415330D03*
G01*
X7023100Y5415330D03*
G01*
X6134100Y4465269D03*
G01*
X6261100Y4465269D03*
G01*
X6388100Y4465269D03*
G01*
X6515100Y4465269D03*
G01*
X6642100Y4465269D03*
G01*
X6769100Y4465269D03*
G01*
X6896100Y4465269D03*
G01*
X7023100Y4465269D03*
D46*
G01*
X8931300Y4735195D03*
G01*
X8931300Y4481195D03*
G01*
X8931300Y4227195D03*
G01*
X8931300Y3973195D03*
G01*
X8931300Y3719195D03*
G01*
X8931300Y3465195D03*
G01*
X8931300Y3211195D03*
G01*
X8931300Y2957195D03*
G01*
X8931300Y2703195D03*
G01*
X8931300Y2449195D03*
G01*
X8931300Y2195195D03*
G01*
X8931300Y1941195D03*
G01*
X8931300Y1687195D03*
G01*
X8931300Y1433195D03*
G01*
X803300Y3465195D03*
G01*
X803300Y3211195D03*
G01*
X803300Y2957195D03*
G01*
X803300Y2703195D03*
M02*
